0
SECTION
2
HEADER
9
$INSUNITS
70
4
9
$ACADVER
1
AC1014
9
$HANDSEED
5
FFFF
0
ENDSEC
0
SECTION
2
TABLES
0
TABLE
2
VPORT
5
8
100
AcDbSymbolTable
0
ENDTAB
0
TABLE
2
LTYPE
5
5
100
AcDbSymbolTable
0
LTYPE
5
14
100
AcDbSymbolTableRecord
100
AcDbLinetypeTableRecord
2
BYBLOCK
70
0
0
LTYPE
5
15
100
AcDbSymbolTableRecord
100
AcDbLinetypeTableRecord
2
BYLAYER
70
0
0
ENDTAB
0
TABLE
2
LAYER
5
2
100
AcDbSymbolTable
70
2
0
LAYER
5
50
100
AcDbSymbolTableRecord
100
AcDbLayerTableRecord
2
0
70
0
6
CONTINUOUS
0
ENDTAB
0
TABLE
2
STYLE
5
3
100
AcDbSymbolTable
70
1
0
STYLE
5
11
100
AcDbSymbolTableRecord
100
AcDbTextStyleTableRecord
2
STANDARD
70
0
0
ENDTAB
0
TABLE
2
VIEW
5
6
100
AcDbSymbolTable
70
0
0
ENDTAB
0
TABLE
2
UCS
5
7
100
AcDbSymbolTable
70
0
0
ENDTAB
0
TABLE
2
APPID
5
9
100
AcDbSymbolTable
70
2
0
APPID
5
12
100
AcDbSymbolTableRecord
100
AcDbRegAppTableRecord
2
ACAD
70
0
0
ENDTAB
0
TABLE
2
DIMSTYLE
5
A
100
AcDbSymbolTable
70
1
0
ENDTAB
0
TABLE
2
BLOCK_RECORD
5
1
100
AcDbSymbolTable
70
1
0
BLOCK_RECORD
5
1F
100
AcDbSymbolTableRecord
100
AcDbBlockTableRecord
2
*MODEL_SPACE
0
BLOCK_RECORD
5
1B
100
AcDbSymbolTableRecord
100
AcDbBlockTableRecord
2
*PAPER_SPACE
0
ENDTAB
0
ENDSEC
0
SECTION
2
BLOCKS
0
BLOCK
5
20
100
AcDbEntity
100
AcDbBlockBegin
2
*MODEL_SPACE
0
ENDBLK
5
21
100
AcDbEntity
100
AcDbBlockEnd
0
BLOCK
5
1C
100
AcDbEntity
100
AcDbBlockBegin
2
*PAPER_SPACE
0
ENDBLK
5
1D
100
AcDbEntity
100
AcDbBlockEnd
0
ENDSEC
0
SECTION
2
ENTITIES
0
LINE
5
100
100
AcDbEntity
8
0
100
AcDbLine
10
-12.208146865110194
20
61.40904609128804
30
0
11
-43.172308121615792
21
61.409046091288047
31
0
0
SPLINE
5
101
100
AcDbEntity
8
0
100
AcDbSpline
70
0
71
3
72
8
73
4
74
0
42
0.000000001
43
0.0000000001
44
0.0000000001
40
-0.11856548987200365
40
-0.11856548987200365
40
-0.11856548987200365
40
-0.11856548987200365
40
0
40
0
40
0
40
0
10
-11.171926613520036
20
61.388463132867479
30
0
10
-11.522434382938336
20
61.403464161896281
30
0
10
-11.866272331764893
20
61.40904609128804
30
0
10
-12.208146865110194
20
61.40904609128804
30
0
0
SPLINE
5
102
100
AcDbEntity
8
0
100
AcDbSpline
70
0
71
3
72
14
73
10
74
0
42
0.000000001
43
0.0000000001
44
0.0000000001
40
0.19862249706136467
40
0.19862249706136467
40
0.19862249706136467
40
0.19862249706136467
40
0.39398882867434026
40
0.39398882867434026
40
0.39398882867434026
40
0.67636728762579179
40
0.67636728762579179
40
0.67636728762579179
40
0.8171783485143963
40
0.8171783485143963
40
0.8171783485143963
40
0.8171783485143963
10
-43.172308121615792
20
61.409046091288047
30
0
10
-43.241657560421871
20
61.439783833939501
30
0
10
-43.43973872065294
20
61.551462419464698
30
0
10
-43.767273964243579
20
61.799325173411923
30
0
10
-44.240686637623945
20
62.157580876496574
30
0
10
-44.927376724195973
20
62.788670055409824
30
0
10
-45.97371807663496
20
63.449447954846832
30
0
10
-46.495487465262002
20
63.778951973591653
30
0
10
-47.1314630675746
20
64.113053677398497
30
0
10
-47.858792577478667
20
64.360780805730116
30
0
0
SPLINE
5
103
100
AcDbEntity
8
0
100
AcDbSpline
70
0
71
3
72
11
73
7
74
0
42
0.000000001
43
0.0000000001
44
0.0000000001
40
0.8171783485151245
40
0.8171783485151245
40
0.8171783485151245
40
0.8171783485151245
40
0.8876648911288797
40
0.8876648911288797
40
0.8876648911288797
40
0.89341490714151617
40
0.89341490714151617
40
0.89341490714151617
40
0.89341490714151617
10
-47.858792577489957
20
64.360780805733967
30
0
10
-48.22287578352956
20
64.484786893590112
30
0
10
-48.609850054921708
20
64.587149615506632
30
0
10
-49.016848981421319
20
64.6564581397474
30
0
10
-49.050050359410918
20
64.662112057636108
30
0
10
-49.083345358012124
20
64.667535549096655
30
0
10
-49.116725522553075
20
64.672728933296227
30
0
0
LINE
5
104
100
AcDbEntity
8
0
100
AcDbLine
10
-51.00691862812085
20
64.726367567058659
30
0
11
-87.51559466600861
21
61.222629548711289
31
0
0
SPLINE
5
105
100
AcDbEntity
8
0
100
AcDbSpline
70
0
71
3
72
8
73
4
74
0
42
0.000000001
43
0.0000000001
44
0.0000000001
40
0.89341490714151617
40
0.89341490714151617
40
0.89341490714151617
40
0.89341490714151617
40
1
40
1
40
1
40
1
10
-49.116725522553075
20
64.672728933296227
30
0
10
-49.735476484187046
20
64.768996028195303
30
0
10
-50.383490575407208
20
64.786197963749302
30
0
10
-51.00691862812085
20
64.726367567058659
30
0
0
SPLINE
5
106
100
AcDbEntity
8
0
100
AcDbSpline
70
0
71
3
72
8
73
4
74
0
42
0.000000001
43
0.0000000001
44
0.0000000001
40
0
40
0
40
0
40
0
40
0.03362386851358256
40
0.03362386851358256
40
0.03362386851358256
40
0.03362386851358256
10
-87.51559466600861
20
61.222629548711289
30
0
10
-87.880718310031725
20
61.187588628804114
30
0
10
-88.24342867910849
20
61.136305109805747
30
0
10
-88.601898436304296
20
61.069744617409299
30
0
0
SPLINE
5
107
100
AcDbEntity
8
0
100
AcDbSpline
70
0
71
3
72
8
73
4
74
0
42
0.000000001
43
0.0000000001
44
0.0000000001
40
0.03362386851367636
40
0.03362386851367636
40
0.03362386851367636
40
0.03362386851367636
40
0.13979111546090434
40
0.13979111546090434
40
0.13979111546090434
40
0.13979111546090434
10
-88.601898436307295
20
61.069744617408752
30
0
10
-89.733765437867305
20
60.859580096026008
30
0
10
-90.823354454480508
20
60.497107448013111
30
0
10
-91.813141726445181
20
60.012724143740115
30
0
0
SPLINE
5
108
100
AcDbEntity
8
0
100
AcDbSpline
70
0
71
3
72
20
73
16
74
0
42
0.000000001
43
0.0000000001
44
0.0000000001
40
0.13979111546090439
40
0.13979111546090439
40
0.13979111546090439
40
0.13979111546090439
40
0.17112855423075315
40
0.17112855423075315
40
0.17112855423075315
40
0.38593495030314001
40
0.38593495030314001
40
0.38593495030314001
40
0.63272958992324757
40
0.63272958992324757
40
0.63272958992324757
40
0.82115989298640035
40
0.82115989298640035
40
0.82115989298640035
40
1
40
1
40
1
40
1
10
-91.813141726445195
20
60.012724143740115
30
0
10
-92.105297724855774
20
59.869748484341699
30
0
10
-92.38875843431083
20
59.716151283339293
30
0
10
-92.662044521312353
20
59.552714269820221
30
0
10
-94.535318207673825
20
58.432414805760644
30
0
10
-95.916431420941308
20
56.941728972549335
30
0
10
-97.035514579272601
20
55.543848970123726
30
0
10
-98.321247824721354
20
53.937801395476434
30
0
10
-99.324159697238855
20
52.41867115586993
30
0
10
-100.23232880901153
20
51.367396891219087
30
0
10
-100.92572547770472
20
50.564737933165624
30
0
10
-101.52303641425922
20
50.060093991510861
30
0
10
-102.05711616643349
20
49.774116009328004
30
0
10
-102.56401382822108
20
49.502692930843807
30
0
10
-103.04019631286832
20
49.359509447530392
30
0
10
-103.875536663844
20
49.359509447530392
30
0
0
LINE
5
109
100
AcDbEntity
8
0
100
AcDbLine
10
-103.875536663844
20
49.359509447530392
30
0
11
-111.39011112071607
21
49.359509447530392
31
0
0
LINE
5
110
100
AcDbEntity
8
0
100
AcDbLine
10
-111.39011112071607
20
49.359509447530392
30
0
11
-111.3895830382545
21
49.232190619645579
31
0
0
ARC
5
111
100
AcDbEntity
8
0
100
AcDbCircle
10
0.71951964228746945
20
-42.25720982338138
30
0
40
7.2500000000000098
210
0
220
0
230
1
100
AcDbArc
50
168.65546748825076
51
269.90964386773436
0
SPLINE
5
112
100
AcDbEntity
8
0
100
AcDbSpline
70
4
71
5
72
16
73
10
74
0
42
0.000000001
43
0.0000000001
44
0.0000000001
40
0
40
0
40
0
40
0
40
0
40
0
40
0.20000000000000001
40
0.40000000000000002
40
0.60000000000000009
40
0.80000000000000004
40
1
40
1
40
1
40
1
40
1
40
1
41
1
41
1
41
1
41
1
41
1
41
1
41
1
41
1
41
1
41
1
10
-37.201132913409225
20
-46.342700837866573
30
0
10
-36.559843957604123
20
-46.222565958032035
30
0
10
-35.334984706572897
20
-45.871150420170551
30
0
10
-33.67074746893249
20
-45.010898751235985
30
0
10
-31.794632784945058
20
-43.297352586471412
30
0
10
-30.144856387280655
20
-40.582113663806467
30
0
10
-29.629541051040871
20
-38.209785502989128
30
0
10
-29.894042585764559
20
-36.415804419483003
30
0
10
-30.403672247103977
20
-35.224698541004791
30
0
10
-30.741884766165555
20
-34.630373298119125
30
0
0
SPLINE
5
113
100
AcDbEntity
8
0
100
AcDbSpline
70
4
71
3
72
8
73
4
74
0
42
0.000000001
43
0.0000000001
44
0.0000000001
40
-0.16976713745994673
40
-0.16976713745994673
40
-0.16976713745994673
40
-0.16976713745994673
40
0
40
0
40
0
40
0
41
1
41
1
41
1
41
1
10
0.7080863099728596
20
-49.507200808128317
30
0
10
0.48279945275732317
20
-49.949038633240725
30
0
10
0.19697423915671308
20
-50.458625575907064
30
0
10
-0.14729690029948728
20
-51.072413545112823
30
0
0
LINE
5
114
100
AcDbEntity
8
0
100
AcDbLine
10
-38.436482430161263
20
57.409046091288047
30
0
11
-25.076764973820289
21
57.40904609128804
31
0
0
SPLINE
5
115
100
AcDbEntity
8
0
100
AcDbSpline
70
4
71
3
72
8
73
4
74
0
42
0.000000001
43
0.0000000001
44
0.0000000001
40
-1
40
-1
40
-1
40
-1
40
-0.10517431003580606
40
-0.10517431003580606
40
-0.10517431003580606
40
-0.10517431003580606
41
1
41
1
41
1
41
1
10
-43.565146319544098
20
50.843249912606709
30
0
10
-43.270924947415622
20
54.992524288575027
30
0
10
-43.239980417604215
20
55.428921358216755
30
0
10
-38.436482430161263
20
57.409046091288047
30
0
0
SPLINE
5
116
100
AcDbEntity
8
0
100
AcDbSpline
70
4
71
3
72
8
73
4
74
0
42
0.000000001
43
0.0000000001
44
0.0000000001
40
-1
40
-1
40
-1
40
-1
40
0
40
0
40
0
40
0
41
1
41
1
41
1
41
1
10
-22.132434539689019
20
49.11509155897825
30
0
10
-23.634191214783655
20
44.06226461371336
30
0
10
-23.634191214783655
20
44.06226461371336
30
0
10
-31.224812482643962
20
41.973018935843967
30
0
0
SPLINE
5
117
100
AcDbEntity
8
0
100
AcDbSpline
70
4
71
3
72
8
73
4
74
0
42
0.000000001
43
0.0000000001
44
0.0000000001
40
-0.98848772132213136
40
-0.98848772132213136
40
-0.98848772132213136
40
-0.98848772132213136
40
0
40
0
40
0
40
0
41
1
41
1
41
1
41
1
10
-25.076764973820325
20
57.40904609128804
30
0
10
-20.630872874926176
20
54.167249191971464
30
0
10
-20.647962530386739
20
54.109749300154476
30
0
10
-22.132434539689019
20
49.11509155897825
30
0
0
SPLINE
5
118
100
AcDbEntity
8
0
100
AcDbSpline
70
4
71
3
72
8
73
4
74
0
42
0.000000001
43
0.0000000001
44
0.0000000001
40
-1
40
-1
40
-1
40
-1
40
0
40
0
40
0
40
0
41
1
41
1
41
1
41
1
10
-31.224812482643962
20
41.973018935843967
30
0
10
-38.815425354920322
20
39.883769939850126
30
0
10
-38.815425354920322
20
39.883769939850126
30
0
10
-41.354687249707531
20
43.045026996013583
30
0
0
SPLINE
5
119
100
AcDbEntity
8
0
100
AcDbSpline
70
4
71
5
72
16
73
10
74
0
42
0.000000001
43
0.0000000001
44
0.0000000001
40
-0.87150007615642544
40
-0.87150007615642544
40
-0.87150007615642544
40
-0.87150007615642544
40
-0.87150007615642544
40
-0.87150007615642544
40
-0.80000000000000004
40
-0.60000000000000009
40
-0.40000000000000002
40
-0.20000000000000001
40
-0.1845229922154501
40
-0.1845229922154501
40
-0.1845229922154501
40
-0.1845229922154501
40
-0.1845229922154501
40
-0.1845229922154501
41
1
41
1
41
1
41
1
41
1
41
1
41
1
41
1
41
1
41
1
10
-111.3895830382545
20
49.232190619645579
30
0
10
-111.50890863834348
20
49.204182867764736
30
0
10
-111.95256843666226
20
49.083697066959516
30
0
10
-112.66166909988662
20
48.78344989970708
30
0
10
-113.52915514722642
20
48.155068336054477
30
0
10
-114.22936562529215
20
47.293621105266546
30
0
10
-114.69367722736025
20
46.395954655271474
30
0
10
-114.92085077126616
20
45.739045738454578
30
0
10
-115.01383738197114
20
45.385007595388281
30
0
10
-115.02038759899975
20
45.359509447530399
30
0
0
LINE
5
120
100
AcDbEntity
8
0
100
AcDbLine
10
-111.43373860911441
20
-29.217539851524165
30
0
11
-93.8366333402642
21
-29.217539851524165
31
0
0
SPLINE
5
121
100
AcDbEntity
8
0
100
AcDbSpline
70
4
71
5
72
15
73
9
74
0
42
0.000000001
43
0.0000000001
44
0.0000000001
40
0
40
0
40
0
40
0
40
0
40
0
40
0.20000000000000001
40
0.40000000000000002
40
0.60000000000000009
40
0.71204107986479037
40
0.71204107986479037
40
0.71204107986479037
40
0.71204107986479037
40
0.71204107986479037
40
0.71204107986479037
41
1
41
1
41
1
41
1
41
1
41
1
41
1
41
1
41
1
10
-47.633429637288941
20
-11.532140451758973
30
0
10
-46.819817529342558
20
-11.528645250734426
30
0
10
-45.114589222483858
20
-12.093486976862899
30
0
10
-42.323003547738416
20
-14.654492921755404
30
0
10
-38.696541194337343
20
-20.161927097302161
30
0
10
-35.049611090265543
20
-26.804762491893612
30
0
10
-32.604318926583005
20
-31.31451368324225
30
0
10
-31.222318464895544
20
-33.786129343222356
30
0
10
-30.741884766165526
20
-34.630373298119125
30
0
0
LINE
5
122
100
AcDbEntity
8
0
100
AcDbLine
10
-28.09030322051898
20
-7.1498609417394965
30
0
11
-28.321712533544403
21
-7.222991323814413
31
0
0
ARC
5
123
100
AcDbEntity
8
0
100
AcDbCircle
10
-35.280480894154294
20
-9.2572093316430522
30
0
40
7.2499999999999742
210
0
220
-0
230
1
100
AcDbArc
50
16.294931062379369
51
197.45295181995886
0
SPLINE
5
124
100
AcDbEntity
8
0
100
AcDbSpline
70
4
71
3
72
8
73
4
74
0
42
0.000000001
43
0.0000000001
44
0.0000000001
40
-0.62227758738196914
40
-0.62227758738196914
40
-0.62227758738196914
40
-0.62227758738196914
40
0
40
0
40
0
40
0
41
1
41
1
41
1
41
1
10
-16.152388065613028
20
-44.952205521129358
30
0
10
-15.423981801823423
20
-43.496969072922639
30
0
10
-13.855562683761065
20
-43.027565523297675
30
0
10
-9.7032564777525643
20
-41.784844588705823
30
0
0
SPLINE
5
125
100
AcDbEntity
8
0
100
AcDbSpline
70
4
71
3
72
8
73
4
74
0
42
0.000000001
43
0.0000000001
44
0.0000000001
40
-1
40
-1
40
-1
40
-1
40
0
40
0
40
0
40
0
41
1
41
1
41
1
41
1
10
-38.059561337200158
20
4.0418429249620269
30
0
10
-32.470191092293916
20
5.5351024493050041
30
0
10
-32.470191092293916
20
5.5351024493050041
30
0
10
-30.075056505345046
20
3.2916578326957637
30
0
0
SPLINE
5
126
100
AcDbEntity
8
0
100
AcDbSpline
70
4
71
5
72
15
73
9
74
0
42
0.000000001
43
0.0000000001
44
0.0000000001
40
0.26608528691014482
40
0.26608528691014482
40
0.26608528691014482
40
0.26608528691014482
40
0.26608528691014482
40
0.26608528691014482
40
0.40000000000000002
40
0.60000000000000009
40
0.80000000000000004
40
1
40
1
40
1
40
1
40
1
40
1
41
1
41
1
41
1
41
1
41
1
41
1
41
1
41
1
41
1
10
-115.01317915953464
20
-25.217539851524155
30
0
10
-114.9713599794819
20
-25.441423368091414
30
0
10
-114.85329552647173
20
-25.996160581335552
30
0
10
-114.60761295620256
20
-26.861802639202068
30
0
10
-114.12896905253851
20
-27.956221018303914
30
0
10
-113.38524386167684
20
-28.774949871841446
30
0
10
-112.52322779859958
20
-29.137028103367804
30
0
10
-111.81858221705127
20
-29.217539851524165
30
0
10
-111.43373860911441
20
-29.217539851524165
30
0
0
SPLINE
5
127
100
AcDbEntity
8
0
100
AcDbSpline
70
4
71
3
72
8
73
4
74
0
42
0.000000001
43
0.0000000001
44
0.0000000001
40
-1
40
-1
40
-1
40
-1
40
0
40
0
40
0
40
0
41
1
41
1
41
1
41
1
10
-30.075056505345046
20
3.2916578326957637
30
0
10
-27.67992191839614
20
1.0482132160865199
30
0
10
-27.67992191839614
20
1.0482132160865199
30
0
10
-27.882089999990267
20
-3.9936732708914287
30
0
0
SPLINE
5
128
100
AcDbEntity
8
0
100
AcDbSpline
70
4
71
3
72
8
73
4
74
0
42
0.000000001
43
0.0000000001
44
0.0000000001
40
-0.8561197289374608
40
-0.8561197289374608
40
-0.8561197289374608
40
-0.8561197289374608
40
-0.01997254568339709
40
-0.01997254568339709
40
-0.01997254568339709
40
-0.01997254568339709
41
1
41
1
41
1
41
1
10
-26.814449587252973
20
-35.932379663563538
30
0
10
-25.711351287202255
20
-36.213166522869365
30
0
10
-25.370245914773388
20
-36.645735977652038
30
0
10
-23.214166989816416
20
-39.557616910231495
30
0
0
SPLINE
5
129
100
AcDbEntity
8
0
100
AcDbSpline
70
0
71
3
72
8
73
4
74
0
42
0.000000001
43
0.0000000001
44
0.0000000001
40
-3.3318470490355709
40
-3.3318470490355709
40
-3.3318470490355709
40
-3.3318470490355709
40
-2.9040306454170808
40
-2.9040306454170808
40
-2.9040306454170808
40
-2.9040306454170808
10
-24.69068405469784
20
-38.403869742058674
30
0
10
-25.307673135075941
20
-37.944010736561239
30
0
10
-26.018100705269624
20
-37.090729750328912
30
0
10
-26.814449587252955
20
-35.932379663563545
30
0
0
SPLINE
5
130
100
AcDbEntity
8
0
100
AcDbSpline
70
0
71
3
72
10
73
6
74
0
42
0.000000001
43
0.0000000001
44
0.0000000001
40
-0.96243672704796224
40
-0.96243672704796224
40
-0.96243672704796224
40
-0.96243672704796224
40
-0.70683393170515407
40
-0.70683393170515407
40
0
40
0
40
0
40
0
10
-2.782197265414208
20
-54.187387014363708
30
0
10
-3.3287919319051973
20
-54.029504311612577
30
0
10
-3.8973912114033382
20
-53.759128155742459
30
0
10
-6.1167885649743248
20
-52.447189616168409
30
0
10
-7.8360241772299588
20
-50.928545219535209
30
0
10
-9.7493383701936409
20
-49.553591487303152
30
0
0
SPLINE
5
131
100
AcDbEntity
8
0
100
AcDbSpline
70
4
71
3
72
8
73
4
74
0
42
0.000000001
43
0.0000000001
44
0.0000000001
40
-1
40
-1
40
-1
40
-1
40
-0.7020148385547379
40
-0.7020148385547379
40
-0.7020148385547379
40
-0.7020148385547379
41
1
41
1
41
1
41
1
10
-84.246319750685629
20
54.737062400469199
30
0
10
-85.927528313361819
20
54.162769057106388
30
0
10
-87.107761671065788
20
53.759606608382519
30
0
10
-88.086338547563088
20
53.571827497507734
30
0
0
SPLINE
5
132
100
AcDbEntity
8
0
100
AcDbSpline
70
4
71
3
72
8
73
4
74
0
42
0.000000001
43
0.0000000001
44
0.0000000001
40
-1
40
-1
40
-1
40
-1
40
-0.51286733094421566
40
-0.51286733094421566
40
-0.51286733094421566
40
-0.51286733094421566
41
1
41
1
41
1
41
1
10
-0.14729690029948728
20
-51.072413545112823
30
0
10
-1.1351542768882794
20
-52.833627029342487
30
0
10
-1.6417940529729158
20
-53.736895888222335
30
0
10
-2.782197265414208
20
-54.187387014363708
30
0
0
SPLINE
5
133
100
AcDbEntity
8
0
100
AcDbSpline
70
4
71
3
72
8
73
4
74
0
42
0.000000001
43
0.0000000001
44
0.0000000001
40
-1
40
-1
40
-1
40
-1
40
-0.72804416621699386
40
-0.72804416621699386
40
-0.72804416621699386
40
-0.72804416621699386
41
1
41
1
41
1
41
1
10
-27.882089999990267
20
-3.9936732708914287
30
0
10
-27.937070789184535
20
-5.3648437142967884
30
0
10
-27.977099232011362
20
-6.3631163565072288
30
0
10
-28.090303220518997
20
-7.1498609417394965
30
0
0
LINE
5
134
100
AcDbEntity
8
0
100
AcDbLine
10
-88.175746873079703
20
-15.243279627853031
30
0
11
-69.801459142114453
21
-15.16587038705158
31
0
0
SPLINE
5
135
100
AcDbEntity
8
0
100
AcDbSpline
70
4
71
5
72
15
73
9
74
0
42
0.000000001
43
0.0000000001
44
0.0000000001
40
0.22737339763157505
40
0.22737339763157505
40
0.22737339763157505
40
0.22737339763157505
40
0.22737339763157505
40
0.22737339763157505
40
0.40000000000000002
40
0.60000000000000009
40
0.80000000000000004
40
1
40
1
40
1
40
1
40
1
40
1
41
1
41
1
41
1
41
1
41
1
41
1
41
1
41
1
41
1
10
-91.653668199476385
20
-27.476252018935639
30
0
10
-91.415751084870067
20
-26.975533043839675
30
0
10
-90.96844908239305
20
-25.732425801722059
30
0
10
-90.469695865132309
20
-23.379071741555443
30
0
10
-90.024308775847587
20
-19.795695828206167
30
0
10
-89.541863152173988
20
-16.816582153245257
30
0
10
-88.963008145699717
20
-15.53176596187226
30
0
10
-88.45803475692324
20
-15.244468881613265
30
0
10
-88.175746873079703
20
-15.243279627853026
30
0
0
LINE
5
136
100
AcDbEntity
8
0
100
AcDbLine
10
-9.7493383701936409
20
-49.553591487303152
30
0
11
-16.152388065613028
21
-44.952205521129358
31
0
0
SPLINE
5
137
100
AcDbEntity
8
0
100
AcDbSpline
70
4
71
3
72
8
73
4
74
0
42
0.000000001
43
0.0000000001
44
0.0000000001
40
-1
40
-1
40
-1
40
-1
40
0
40
0
40
0
40
0
41
1
41
1
41
1
41
1
10
-41.354687249707531
20
43.045026996013583
30
0
10
-43.893949496361763
20
46.20628807403542
30
0
10
-43.893949496361763
20
46.20628807403542
30
0
10
-43.565146319544098
20
50.843249912606709
30
0
0
LINE
5
138
100
AcDbEntity
8
0
100
AcDbLine
10
-65.977835335552882
20
-11.610946291747151
30
0
11
-47.633429637288941
21
-11.532140451758973
31
0
0
SPLINE
5
139
100
AcDbEntity
8
0
100
AcDbSpline
70
4
71
5
72
12
73
6
74
0
42
0.000000001
43
0.0000000001
44
0.0000000001
40
-0.18452299221544952
40
-0.18452299221544952
40
-0.18452299221544952
40
-0.18452299221544952
40
-0.18452299221544952
40
-0.18452299221544952
40
0
40
0
40
0
40
0
40
0
40
0
41
1
41
1
41
1
41
1
41
1
41
1
10
-115.02038759899975
20
45.359509447530399
30
0
10
-115.09848187036047
20
45.055510470196552
30
0
10
-115.15828132383454
20
44.741739481548677
30
0
10
-115.19876993023237
20
44.418396068741004
30
0
10
-115.21902197768496
20
44.085415225134248
30
0
10
-115.21902197768496
20
43.742791458118482
30
0
0
SPLINE
5
140
100
AcDbEntity
8
0
100
AcDbSpline
70
4
71
5
72
13
73
7
74
0
42
0.000000001
43
0.0000000001
44
0.0000000001
40
0
40
0
40
0
40
0
40
0
40
0
40
0.20000000000000001
40
0.22737339763155434
40
0.22737339763155434
40
0.22737339763155434
40
0.22737339763155434
40
0.22737339763155434
40
0.22737339763155434
41
1
41
1
41
1
41
1
41
1
41
1
41
1
10
-93.8366333402642
20
-29.217539851524165
30
0
10
-93.333301003520702
20
-29.217539851524165
30
0
10
-92.823759419050575
20
-29.055427641331146
30
0
10
-92.385406894492831
20
-28.709206224720681
30
0
10
-92.011175915090291
20
-28.199467049010632
30
0
10
-91.69139471261019
20
-27.555651018967882
30
0
10
-91.653668199476527
20
-27.476252018935941
30
0
0
LINE
5
141
100
AcDbEntity
8
0
100
AcDbLine
10
-115.21902197768496
20
43.742791458118482
30
0
11
-115.21902197768496
21
-22.982920880345109
31
0
0
SPLINE
5
142
100
AcDbEntity
8
0
100
AcDbSpline
70
4
71
5
72
13
73
7
74
0
42
0.000000001
43
0.0000000001
44
0.0000000001
40
0
40
0
40
0
40
0
40
0
40
0
40
0.20000000000000001
40
0.26608528691014466
40
0.26608528691014466
40
0.26608528691014466
40
0.26608528691014466
40
0.26608528691014466
40
0.26608528691014466
41
1
41
1
41
1
41
1
41
1
41
1
41
1
10
-115.21902197768496
20
-22.982920880345109
30
0
10
-115.21902197768496
20
-23.315674949096277
30
0
10
-115.20360941784283
20
-23.761200486784674
30
0
10
-115.16770412574439
20
-24.210467398786399
30
0
10
-115.11148774163708
20
-24.660823224783819
30
0
10
-115.03381641774448
20
-25.107056051160328
30
0
10
-115.01317915953464
20
-25.217539851524155
30
0
0
SPLINE
5
143
100
AcDbEntity
8
0
100
AcDbSpline
70
4
71
3
72
8
73
4
74
0
42
0.000000001
43
0.0000000001
44
0.0000000001
40
-0.84848791367127385
40
-0.84848791367127385
40
-0.84848791367127385
40
-0.84848791367127385
40
0
40
0
40
0
40
0
41
1
41
1
41
1
41
1
10
-45.691656194122608
20
-8.9226624595498976
30
0
10
-47.315680370245722
20
-6.5824815704663129
30
0
10
-47.077252057636478
20
-5.988739756263703
30
0
10
-45.503593358937408
20
-2.0699645048002298
30
0
0
SPLINE
5
144
100
AcDbEntity
8
0
100
AcDbSpline
70
4
71
3
72
8
73
4
74
0
42
0.000000001
43
0.0000000001
44
0.0000000001
40
-1
40
-1
40
-1
40
-1
40
0
40
0
40
0
40
0
41
1
41
1
41
1
41
1
10
-45.503593358937408
20
-2.0699645048002298
30
0
10
-43.648938922089151
20
2.5485746531681439
30
0
10
-43.648938922089151
20
2.5485746531681439
30
0
10
-38.059561337200158
20
4.0418429249620269
30
0
0
SPLINE
5
145
100
AcDbEntity
8
0
100
AcDbSpline
70
4
71
3
72
8
73
4
74
0
42
0.000000001
43
0.0000000001
44
0.0000000001
40
-1
40
-1
40
-1
40
-1
40
-0.7970545869007597
40
-0.7970545869007597
40
-0.7970545869007597
40
-0.7970545869007597
41
1
41
1
41
1
41
1
10
-9.7032564777525643
20
-41.784844588705823
30
0
10
-8.3490516379295343
20
-41.379548704348394
30
0
10
-7.2696764587453977
20
-41.056505760669296
30
0
10
-6.3888303317964024
20
-40.831074960915089
30
0
0
SPLINE
5
146
100
AcDbEntity
8
0
100
AcDbSpline
70
4
71
5
72
16
73
10
74
0
42
0.000000001
43
0.0000000001
44
0.0000000001
40
0
40
0
40
0
40
0
40
0
40
0
40
0.20000000000000001
40
0.40000000000000002
40
0.60000000000000009
40
0.80000000000000004
40
1
40
1
40
1
40
1
40
1
40
1
41
1
41
1
41
1
41
1
41
1
41
1
41
1
41
1
41
1
41
1
10
-69.801459142114453
20
-15.16587038705158
30
0
10
-69.651132529565047
20
-15.165237074396412
30
0
10
-69.351886070728696
20
-15.09181935153358
30
0
10
-68.907230818768127
20
-14.765463536706907
30
0
10
-68.319835174108931
20
-13.982917793374449
30
0
10
-67.579014003246428
20
-12.799048467319924
30
0
10
-66.964519302231224
20
-12.015335485808002
30
0
10
-66.481455007251384
20
-11.687325277527233
30
0
10
-66.147667811117429
20
-11.61241978081776
30
0
10
-65.977835335552896
20
-11.610946291747151
30
0
0
SPLINE
5
147
100
AcDbEntity
8
0
100
AcDbSpline
70
0
71
3
72
10
73
6
74
0
42
0.000000001
43
0.0000000001
44
0.0000000001
40
-0.62735392165873516
40
-0.62735392165873516
40
-0.62735392165873516
40
-0.62735392165873516
40
-0.45138375071572651
40
-0.45138375071572651
40
-0.20246655666966906
40
-0.20246655666966906
40
-0.20246655666966906
40
-0.20246655666966906
10
-42.196716668674803
20
-11.43164788095155
30
0
10
-42.642421568817532
20
-10.981532997864115
30
0
10
-43.094706480104257
20
-10.569667565651265
30
0
10
-44.201014806573681
20
-9.6931083394812596
30
0
10
-44.920587550843159
20
-9.2300235612989088
30
0
10
-45.691656194122565
20
-8.9226624595499047
30
0
0
SPLINE
5
148
100
AcDbEntity
8
0
100
AcDbSpline
70
0
71
3
72
14
73
10
74
0
42
0.000000001
43
0.0000000001
44
0.0000000001
40
-0.62476991008049032
40
-0.62476991008049032
40
-0.62476991008049032
40
-0.62476991008049032
40
-0.52183356803911851
40
-0.52183356803911851
40
-0.33887834962114122
40
-0.33887834962114122
40
-0.18586860289315574
40
-0.18586860289315574
40
0
40
0
40
0
40
0
10
-88.086338547563088
20
53.571827497507712
30
0
10
-87.990078348436938
20
53.909166668428838
30
0
10
-87.876004715503001
20
54.238910352742238
30
0
10
-87.505728195419238
20
55.114796909146833
30
0
10
-87.197524189276947
20
55.654559722683381
30
0
10
-86.461898150300982
20
56.499388131414783
30
0
10
-86.073367390356623
20
56.816028439893891
30
0
10
-85.073546068365914
20
57.344900682204141
30
0
10
-84.478297148301081
20
57.495740757311694
30
0
10
-83.861568738303717
20
57.554928189221314
30
0
0
SPLINE
5
149
100
AcDbEntity
8
0
100
AcDbSpline
70
4
71
3
72
8
73
4
74
0
42
0.000000001
43
0.0000000001
44
0.0000000001
40
-1
40
-1
40
-1
40
-1
40
0
40
0
40
0
40
0
41
1
41
1
41
1
41
1
10
-111.50019482884757
20
5.2873731900958401
30
0
10
-107.44095190108615
20
3.5350799346424919
30
0
10
-107.44095190108615
20
3.5350799346424919
30
0
10
-105.83743777958775
20
-2.7440980094239698
30
0
0
SPLINE
5
150
100
AcDbEntity
8
0
100
AcDbSpline
70
4
71
3
72
8
73
4
74
0
42
0.000000001
43
0.0000000001
44
0.0000000001
40
-1
40
-1
40
-1
40
-1
40
-0.98081681097683437
40
-0.98081681097683437
40
-0.98081681097683437
40
-0.98081681097683437
41
1
41
1
41
1
41
1
10
-105.83743777958775
20
-2.7440980094239698
30
0
10
-105.806677573702
20
-2.8645526938348165
30
0
10
-105.77650744666016
20
-2.9826966732658833
30
0
10
-105.74693754068731
20
-3.0985981806193426
30
0
0
LINE
5
151
100
AcDbEntity
8
0
100
AcDbLine
10
-112.21902197768495
20
-4.1698421594187582
30
0
11
-112.21902197768495
21
5.5960415694830932
31
0
0
LINE
5
152
100
AcDbEntity
8
0
100
AcDbLine
10
-83.861568738303717
20
57.554928189221314
30
0
11
-78.008353916185683
21
58.116661276461379
31
0
0
CIRCLE
5
153
100
AcDbEntity
8
0
100
AcDbCircle
10
-93.280481758421615
20
47.742791517723198
30
0
40
2.000000000000004
210
0
220
0
230
1
0
SPLINE
5
154
100
AcDbEntity
8
0
100
AcDbSpline
70
0
71
3
72
8
73
4
74
0
42
0.000000001
43
0.0000000001
44
0.0000000001
40
-0.18711515345294705
40
-0.18711515345294705
40
-0.18711515345294705
40
-0.18711515345294705
40
0
40
0
40
0
40
0
10
-23.214166989816345
20
-39.55761691023153
30
0
10
-23.707018950748715
20
-39.166597269080285
30
0
10
-24.195363783035813
20
-38.78292243870272
30
0
10
-24.690684054697822
20
-38.403869742058681
30
0
0
SPLINE
5
155
100
AcDbEntity
8
0
100
AcDbSpline
70
4
71
3
72
8
73
4
74
0
42
0.000000001
43
0.0000000001
44
0.0000000001
40
-0.70021980670740436
40
-0.70021980670740436
40
-0.70021980670740436
40
-0.70021980670740436
40
0
40
0
40
0
40
0
41
1
41
1
41
1
41
1
10
-101.53672577765929
20
-13.437130115300487
30
0
10
-100.12521791878713
20
-12.333711552731749
30
0
10
-98.89854530468358
20
-12.531326174336161
30
0
10
-94.80663849579625
20
-13.190524567111662
30
0
0
SPLINE
5
156
100
AcDbEntity
8
0
100
AcDbSpline
70
4
71
3
72
8
73
4
74
0
42
0.000000001
43
0.0000000001
44
0.0000000001
40
-1
40
-1
40
-1
40
-1
40
-0.65216412363200649
40
-0.65216412363200649
40
-0.65216412363200649
40
-0.65216412363200649
41
1
41
1
41
1
41
1
10
-94.80663849579625
20
-13.190524567111662
30
0
10
-92.77397648093482
20
-13.517985999933044
30
0
10
-91.448347239372637
20
-13.731544598292281
30
0
10
-90.491748230890124
20
-14.029797576250074
30
0
0
SPLINE
5
157
100
AcDbEntity
8
0
100
AcDbSpline
70
0
71
3
72
14
73
10
74
0
42
0.000000001
43
0.0000000001
44
0.0000000001
40
-1.0241588645393509
40
-1.0241588645393509
40
-1.0241588645393509
40
-1.0241588645393509
40
-0.7998042145293971
40
-0.7998042145293971
40
-0.5928152839558829
40
-0.5928152839558829
40
-0.27829955991983774
40
-0.27829955991983774
40
0
40
0
40
0
40
0
10
-98.586385191275227
20
-25.217539851524165
30
0
10
-99.085812559439148
20
-25.217539851524165
30
0
10
-99.568745278994655
20
-25.1457278315903
30
0
10
-100.47388989028363
20
-24.830130967233025
30
0
10
-100.87376499714209
20
-24.607960483757477
30
0
10
-101.79098008990704
20
-23.905913431197693
30
0
10
-102.25788659847218
20
-23.355358201431521
30
0
10
-102.91474350769698
20
-22.215140731084869
30
0
10
-103.20438408444447
20
-21.521956597829973
30
0
10
-103.32137130657202
20
-20.601697551335914
30
0
0
SPLINE
5
158
100
AcDbEntity
8
0
100
AcDbSpline
70
0
71
3
72
20
73
16
74
0
42
0.000000001
43
0.0000000001
44
0.0000000001
40
-0.86990355603983216
40
-0.86990355603983216
40
-0.86990355603983216
40
-0.86990355603983216
40
-0.84921169358964965
40
-0.84921169358964965
40
-0.52866335614552606
40
-0.52866335614552606
40
-0.21943086261617387
40
-0.21943086261617387
40
-0.11277002515612655
40
-0.11277002515612655
40
-0.062762828138360136
40
-0.062762828138360136
40
-0.030656809215887062
40
-0.030656809215887062
40
0
40
0
40
0
40
0
10
-90.491748230890124
20
-14.029797576250074
30
0
10
-90.528201002651201
20
-14.106809909931091
30
0
10
-90.563747092558501
20
-14.185977143266275
30
0
10
-91.135743901098152
20
-15.526031034918573
30
0
10
-91.444903868207859
20
-17.236176331680099
30
0
10
-91.972767949725551
20
-20.627510829155323
30
0
10
-92.190982030765099
20
-22.286891120359591
30
0
10
-92.648745417359464
20
-23.888766868062529
30
0
10
-92.790233966008316
20
-24.27895342555194
30
0
10
-93.051891928944301
20
-24.728987989474582
30
0
10
-93.153707409913068
20
-24.871654349774396
30
0
10
-93.355160587439173
20
-25.056770536748832
30
0
10
-93.443249358509647
20
-25.117538639299944
30
0
10
-93.636263258717463
20
-25.19827224773659
30
0
10
-93.734443976211253
20
-25.217539851524165
30
0
10
-93.8366333402642
20
-25.217539851524165
30
0
0
LINE
5
159
100
AcDbEntity
8
0
100
AcDbLine
10
-93.8366333402642
20
-25.217539851524165
30
0
11
-98.586385191275227
21
-25.217539851524165
31
0
0
SPLINE
5
160
100
AcDbEntity
8
0
100
AcDbSpline
70
4
71
3
72
8
73
4
74
0
42
0.000000001
43
0.0000000001
44
0.0000000001
40
-0.89503581301719459
40
-0.89503581301719459
40
-0.89503581301719459
40
-0.89503581301719459
40
0
40
0
40
0
40
0
41
1
41
1
41
1
41
1
10
1.8288744419447234
20
-26.217586567615029
30
0
10
-0.49257784517664049
20
-27.336829740852416
30
0
10
-0.95329939779364992
20
-26.986777248097106
30
0
10
-5.3426208021738297
20
-23.651806504097955
30
0
0
SPLINE
5
161
100
AcDbEntity
8
0
100
AcDbSpline
70
4
71
3
72
8
73
4
74
0
42
0.000000001
43
0.0000000001
44
0.0000000001
40
-0.19881854456791886
40
-0.19881854456791886
40
-0.19881854456791886
40
-0.19881854456791886
40
-0.065558090599015628
40
-0.065558090599015628
40
-0.065558090599015628
40
-0.065558090599015628
41
1
41
1
41
1
41
1
10
-105.1465284486511
20
-17.337087171904667
30
0
10
-104.90040492713861
20
-17.009485886264301
30
0
10
-104.60168775402275
20
-16.659123295615821
30
0
10
-104.24944156370698
20
-16.260947053108975
30
0
0
SPLINE
5
162
100
AcDbEntity
8
0
100
AcDbSpline
70
4
71
3
72
8
73
4
74
0
42
0.000000001
43
0.0000000001
44
0.0000000001
40
-1
40
-1
40
-1
40
-1
40
0
40
0
40
0
40
0
41
1
41
1
41
1
41
1
10
-10.453221572366473
20
-18.721401453520173
30
0
10
-10.659748147526837
20
-17.517079644429078
30
0
10
-10.659748147526837
20
-17.517079644429078
30
0
10
-6.5870570877060075
20
-12.373816089864619
30
0
0
LINE
5
163
100
AcDbEntity
8
0
100
AcDbLine
10
5.0452569330431452
20
-29.178962381349045
30
0
11
7.3275978898851868
21
-31.276309119447919
31
0
0
SPLINE
5
164
100
AcDbEntity
8
0
100
AcDbSpline
70
4
71
3
72
8
73
4
74
0
42
0.000000001
43
0.0000000001
44
0.0000000001
40
-1
40
-1
40
-1
40
-1
40
0
40
0
40
0
40
0
41
1
41
1
41
1
41
1
10
-3.0787291136535622
20
-33.468073273930152
30
0
10
-3.7292238117532683
20
-36.905009861995651
30
0
10
-3.7292238117532683
20
-36.905009861995651
30
0
10
-10.401979331485158
20
-38.90206223828352
30
0
0
SPLINE
5
165
100
AcDbEntity
8
0
100
AcDbSpline
70
4
71
3
72
8
73
4
74
0
42
0.000000001
43
0.0000000001
44
0.0000000001
40
-1
40
-1
40
-1
40
-1
40
-0.97026488340138717
40
-0.97026488340138717
40
-0.97026488340138717
40
-0.97026488340138717
41
1
41
1
41
1
41
1
10
4.7706235358755755
20
-29.318457890047853
30
0
10
4.8648919425523296
20
-29.270517547635812
30
0
10
4.9563572671650213
20
-29.224002716895168
30
0
10
5.0452569330431452
20
-29.178962381349045
30
0
0
ARC
5
166
100
AcDbEntity
8
0
100
AcDbCircle
10
-107.92717815954563
20
-10.013007110085422
30
0
40
7.2500000000000071
210
0
220
0
230
1
100
AcDbArc
50
300.48242311532414
51
331.81676779684653
0
CIRCLE
5
167
100
AcDbEntity
8
0
100
AcDbCircle
10
-36.280480909055456
20
-51.257209957491781
30
0
40
2.0000000000000018
210
0
220
0
230
1
0
SPLINE
5
168
100
AcDbEntity
8
0
100
AcDbSpline
70
4
71
3
72
8
73
4
74
0
42
0.000000001
43
0.0000000001
44
0.0000000001
40
-1
40
-1
40
-1
40
-1
40
0
40
0
40
0
40
0
41
1
41
1
41
1
41
1
10
-5.3426208021738297
20
-23.651806504097955
30
0
10
-10.246694293472078
20
-19.925731306328114
30
0
10
-10.246694293472078
20
-19.925731306328114
30
0
10
-10.453221572366473
20
-18.721401453520173
30
0
0
SPLINE
5
169
100
AcDbEntity
8
0
100
AcDbSpline
70
4
71
3
72
8
73
4
74
0
42
0.000000001
43
0.0000000001
44
0.0000000001
40
-1
40
-1
40
-1
40
-1
40
0
40
0
40
0
40
0
41
1
41
1
41
1
41
1
10
-78.189105582255223
20
57.617214665557
30
0
10
-78.604391302200526
20
56.664317939905075
30
0
10
-78.604391302200526
20
56.664317939905075
30
0
10
-84.246319750685629
20
54.737062400469199
30
0
0
ARC
5
170
100
AcDbEntity
8
0
100
AcDbCircle
10
-108.28145306214039
20
-21.232244122239145
30
0
40
4.9999999999999964
210
0
220
-0
230
1
100
AcDbArc
50
7.2448217788398157
51
51.171975744488385
0
ARC
5
171
100
AcDbEntity
8
0
100
AcDbCircle
10
-107.92717815954563
20
-10.013007110085422
30
0
40
7.25
210
0
220
-0
230
1
100
AcDbArc
50
72.498976028159959
51
126.29753161356987
0
SPLINE
5
172
100
AcDbEntity
8
0
100
AcDbSpline
70
4
71
3
72
8
73
4
74
0
42
0.000000001
43
0.0000000001
44
0.0000000001
40
-0.18803204540800275
40
-0.18803204540800275
40
-0.18803204540800275
40
-0.18803204540800275
40
0
40
0
40
0
40
0
41
1
41
1
41
1
41
1
10
-78.008353916185655
20
58.116661276461379
30
0
10
-78.047617318660343
20
57.941876057609683
30
0
10
-78.11102017062511
20
57.796390787976783
30
0
10
-78.189105582255223
20
57.617214665557
30
0
0
SPLINE
5
173
100
AcDbEntity
8
0
100
AcDbSpline
70
4
71
3
72
8
73
4
74
0
42
0.000000001
43
0.0000000001
44
0.0000000001
40
-1
40
-1
40
-1
40
-1
40
-0.84900987202344447
40
-0.84900987202344447
40
-0.84900987202344447
40
-0.84900987202344447
41
1
41
1
41
1
41
1
10
-6.5870570877060075
20
-12.373816089864619
30
0
10
-5.9721209433747013
20
-11.597234067543777
30
0
10
-5.4500340861733676
20
-10.937908264157441
30
0
10
-4.9994067917361029
20
-10.378307647303764
30
0
0
SPLINE
5
174
100
AcDbEntity
8
0
100
AcDbSpline
70
4
71
3
72
8
73
4
74
0
42
0.000000001
43
0.0000000001
44
0.0000000001
40
-0.062773878280593678
40
-0.062773878280593678
40
-0.062773878280593678
40
-0.062773878280593678
40
0
40
0
40
0
40
0
41
1
41
1
41
1
41
1
10
-112.21902197768495
20
5.5960415694830932
30
0
10
-111.9938279822881
20
5.5004646608048926
30
0
10
-111.75500925030622
20
5.3973714336255716
30
0
10
-111.50019482884757
20
5.2873731900958401
30
0
0
SPLINE
5
175
100
AcDbEntity
8
0
100
AcDbSpline
70
0
71
3
72
12
73
8
74
0
42
0.000000001
43
0.0000000001
44
0.0000000001
40
-1.191899602214231
40
-1.191899602214231
40
-1.191899602214231
40
-1.191899602214231
40
-0.90739589565669465
40
-0.90739589565669465
40
-0.5681325081408648
40
-0.5681325081408648
40
-0.039814463693726522
40
-0.039814463693726522
40
-0.039814463693726522
40
-0.039814463693726522
10
-4.9994067917361384
20
-10.378307647303785
30
0
10
-4.9161385478208253
20
-11.979043460779831
30
0
10
-4.6694100416409157
20
-13.568813541441546
30
0
10
-3.834214037207051
20
-16.955041367397857
30
0
10
-3.1738491643804778
20
-18.792039246821087
30
0
10
-1.0094046785036248
20
-23.14136508608248
30
0
10
0.50227706465088673
20
-24.946953734685287
30
0
10
1.8288744419446701
20
-26.217586567615008
30
0
0
LINE
5
176
100
AcDbEntity
8
0
100
AcDbLine
10
9.4137098044497414
20
-41.764469404585675
30
0
11
7.7914342075492371
21
-43.854245947468101
31
0
0
SPLINE
5
177
100
AcDbEntity
8
0
100
AcDbSpline
70
4
71
3
72
8
73
4
74
0
42
0.000000001
43
0.0000000001
44
0.0000000001
40
-1
40
-1
40
-1
40
-1
40
0
40
0
40
0
40
0
41
1
41
1
41
1
41
1
10
-10.401979331485158
20
-38.90206223828352
30
0
10
-17.074734851217102
20
-40.899114614571403
30
0
10
-17.074734851217102
20
-40.899114614571403
30
0
10
-19.758778582904437
20
-37.273374269578696
30
0
0
SPLINE
5
178
100
AcDbEntity
8
0
100
AcDbSpline
70
0
71
3
72
16
73
12
74
0
42
0.000000001
43
0.0000000001
44
0.0000000001
40
-1.1888676610730142
40
-1.1888676610730142
40
-1.1888676610730142
40
-1.1888676610730142
40
-0.94782392467769605
40
-0.94782392467769605
40
-0.72206509388958462
40
-0.72206509388958462
40
-0.46744862322475161
40
-0.46744862322475161
40
-0.25691807218029461
40
-0.25691807218029461
40
0
40
0
40
0
40
0
10
7.3275978898851868
20
-31.276309119447919
30
0
10
7.921947202406816
20
-31.822483689978984
30
0
10
8.4605082843762069
20
-32.415158554428871
30
0
10
9.3809121782876836
20
-33.670582388634521
30
0
10
9.7690465098099466
20
-34.32517540394182
30
0
10
10.419018614644671
20
-35.783476229079156
30
0
10
10.666416808754207
20
-36.614791264696073
30
0
10
10.812278573660237
20
-38.156278653290443
30
0
10
10.762366195770667
20
-38.845615756424138
30
0
10
10.349126765322172
20
-40.349547714554035
30
0
10
9.938857872869864
20
-41.087986249059519
30
0
10
9.4137098044497414
20
-41.764469404585675
30
0
0
SPLINE
5
179
100
AcDbEntity
8
0
100
AcDbSpline
70
4
71
3
72
8
73
4
74
0
42
0.000000001
43
0.0000000001
44
0.0000000001
40
-1
40
-1
40
-1
40
-1
40
0
40
0
40
0
40
0
41
1
41
1
41
1
41
1
10
-19.758778582904437
20
-37.273374269578696
30
0
10
-22.442821610857706
20
-33.64764196830285
30
0
10
-22.442821610857706
20
-33.64764196830285
30
0
10
-17.339601856371036
20
-28.113310107455479
30
0
0
SPLINE
5
180
100
AcDbEntity
8
0
100
AcDbSpline
70
4
71
3
72
8
73
4
74
0
42
0.000000001
43
0.0000000001
44
0.0000000001
40
-0.066299317921122897
40
-0.066299317921122897
40
-0.066299317921122897
40
-0.066299317921122897
40
0
40
0
40
0
40
0
41
1
41
1
41
1
41
1
10
0.82958425970328875
20
-35.008045334973538
30
0
10
0.86646671361494398
20
-34.808274490668104
30
0
10
0.90673450523558685
20
-34.595515357866361
30
0
10
0.94986159338443343
20
-34.367648829667999
30
0
0
SPLINE
5
181
100
AcDbEntity
8
0
100
AcDbSpline
70
4
71
3
72
8
73
4
74
0
42
0.000000001
43
0.0000000001
44
0.0000000001
40
-1
40
-1
40
-1
40
-1
40
0
40
0
40
0
40
0
41
1
41
1
41
1
41
1
10
0.94986159338443343
20
-34.367648829667999
30
0
10
1.6003555877500908
20
-30.930704197885657
30
0
10
1.6003555877500908
20
-30.930704197885657
30
0
10
4.7706235358755755
20
-29.318457890047853
30
0
0
SPLINE
5
182
100
AcDbEntity
8
0
100
AcDbSpline
70
4
71
3
72
8
73
4
74
0
42
0.000000001
43
0.0000000001
44
0.0000000001
40
-1
40
-1
40
-1
40
-1
40
0
40
0
40
0
40
0
41
1
41
1
41
1
41
1
10
-7.3323086105861357
20
-26.305053444377947
30
0
10
-2.4282384374123112
20
-30.031137037731682
30
0
10
-2.4282384374123112
20
-30.031137037731682
30
0
10
-3.0787291136535622
20
-33.468073273930152
30
0
0
ARC
5
183
100
AcDbEntity
8
0
100
AcDbCircle
10
0.71951964228746945
20
-42.25720982338138
30
0
40
7.2499999999999654
210
0
220
0
230
1
100
AcDbArc
50
-12.725528884564113
51
89.130140646524012
0
SPLINE
5
184
100
AcDbEntity
8
0
100
AcDbSpline
70
4
71
3
72
8
73
4
74
0
42
0.000000001
43
0.0000000001
44
0.0000000001
40
-1
40
-1
40
-1
40
-1
40
0
40
0
40
0
40
0
41
1
41
1
41
1
41
1
10
-17.339601856371036
20
-28.113310107455479
30
0
10
-12.236382101884331
20
-22.578978246608091
30
0
10
-12.236382101884331
20
-22.578978246608091
30
0
10
-7.3323086105861357
20
-26.305053444377947
30
0
0
SPLINE
5
185
100
AcDbEntity
8
0
100
AcDbSpline
70
4
71
3
72
8
73
4
74
0
42
0.000000001
43
0.0000000001
44
0.0000000001
40
-1
40
-1
40
-1
40
-1
40
-0.91735273825022356
40
-0.91735273825022356
40
-0.91735273825022356
40
-0.91735273825022356
41
1
41
1
41
1
41
1
10
-57.17028108184153
20
44.056619883211674
30
0
10
-57.850244469229708
20
43.860308544343482
30
0
10
-58.474010744560147
20
43.680221800083174
30
0
10
-59.048459726822699
20
43.518617323464149
30
0
0
SPLINE
5
186
100
AcDbEntity
8
0
100
AcDbSpline
70
4
71
3
72
8
73
4
74
0
42
0.000000001
43
0.0000000001
44
0.0000000001
40
-1
40
-1
40
-1
40
-1
40
0
40
0
40
0
40
0
41
1
41
1
41
1
41
1
10
-69.357134972495601
20
48.055843035956407
30
0
10
-73.316694056373933
20
54.430357695182693
30
0
10
-73.316694056373933
20
54.430357695182693
30
0
10
-72.901416907945986
20
55.383259749888225
30
0
0
SPLINE
5
187
100
AcDbEntity
8
0
100
AcDbSpline
70
4
71
3
72
8
73
4
74
0
42
0.000000001
43
0.0000000001
44
0.0000000001
40
-0.26504211452890952
40
-0.26504211452890952
40
-0.26504211452890952
40
-0.26504211452890952
40
0
40
0
40
0
40
0
41
1
41
1
41
1
41
1
10
-53.161672367924702
20
60.501197562577786
30
0
10
-52.570769906306239
20
60.118830593118005
30
0
10
-51.998945720968585
20
59.529978312859946
30
0
10
-51.220909051600579
20
58.72877283986795
30
0
0
SPLINE
5
188
100
AcDbEntity
8
0
100
AcDbSpline
70
4
71
3
72
8
73
4
74
0
42
0.000000001
43
0.0000000001
44
0.0000000001
40
-1
40
-1
40
-1
40
-1
40
0
40
0
40
0
40
0
41
1
41
1
41
1
41
1
10
-51.220909051600579
20
58.72877283986795
30
0
10
-48.28538814108078
20
55.705836374030895
30
0
10
-48.28538814108078
20
55.705836374030895
30
0
10
-48.614191141964966
20
51.068872524530406
30
0
0
SPLINE
5
189
100
AcDbEntity
8
0
100
AcDbSpline
70
4
71
3
72
8
73
4
74
0
42
0.000000001
43
0.0000000001
44
0.0000000001
40
-1
40
-1
40
-1
40
-1
40
0
40
0
40
0
40
0
41
1
41
1
41
1
41
1
10
-48.614191141964966
20
51.068872524530406
30
0
10
-48.94299431878261
20
46.431910685959117
30
0
10
-48.94299431878261
20
46.431910685959117
30
0
10
-57.17028108184153
20
44.056619883211674
30
0
0
ARC
5
190
100
AcDbEntity
8
0
100
AcDbCircle
10
-72.111087772887259
20
18.752355019067721
30
0
40
28
210
0
220
-0
230
1
100
AcDbArc
50
62.191204308078412
51
82.354853763171107
0
SPLINE
5
191
100
AcDbEntity
8
0
100
AcDbSpline
70
4
71
5
72
16
73
10
74
0
42
0.000000001
43
0.0000000001
44
0.0000000001
40
0
40
0
40
0
40
0
40
0
40
0
40
0.20000000000000001
40
0.40000000000000002
40
0.60000000000000009
40
0.80000000000000004
40
1
40
1
40
1
40
1
40
1
40
1
41
1
41
1
41
1
41
1
41
1
41
1
41
1
41
1
41
1
41
1
10
-40.395871000652981
20
-54.096851553535352
30
0
10
-40.194157365492899
20
-54.389187845775382
30
0
10
-39.783339612664321
20
-54.978856085047703
30
0
10
-39.144956494592194
20
-55.878320746500698
30
0
10
-38.251263139551519
20
-57.093727415976446
30
0
10
-37.056436778546733
20
-58.562394208609618
30
0
10
-36.017520750213464
20
-59.611792109047684
30
0
10
-35.17330522851077
20
-60.275963044114349
30
0
10
-34.577385155440169
20
-60.654034790686168
30
0
10
-34.271140442343999
20
-60.826878202228784
30
0
0
ARC
5
192
100
AcDbEntity
8
0
100
AcDbCircle
10
-36.280480909055456
20
-51.257209957491781
30
0
40
4.9999999999999964
210
0
220
0
230
1
100
AcDbArc
50
100.61043710457633
51
214.60588713378635
0
SPLINE
5
193
100
AcDbEntity
8
0
100
AcDbSpline
70
4
71
3
72
8
73
4
74
0
42
0.000000001
43
0.0000000001
44
0.0000000001
40
-1
40
-1
40
-1
40
-1
40
0
40
0
40
0
40
0
41
1
41
1
41
1
41
1
10
-30.956814560463322
20
-24.632118697403396
30
0
10
-33.987520953502056
20
-18.07689215592054
30
0
10
-33.987520953502056
20
-18.07689215592054
30
0
10
-29.808235160349472
20
-15.095960047857124
30
0
0
SPLINE
5
194
100
AcDbEntity
8
0
100
AcDbSpline
70
4
71
3
72
8
73
4
74
0
42
0.000000001
43
0.0000000001
44
0.0000000001
40
-1
40
-1
40
-1
40
-1
40
0
40
0
40
0
40
0
41
1
41
1
41
1
41
1
10
-18.596649037972348
20
5.7784747830274954
30
0
10
-24.475176178945812
20
4.5588483466723115
30
0
10
-24.475176178945812
20
4.5588483466723115
30
0
10
-26.870306744036263
20
6.8022933151485763
30
0
0
SPLINE
5
195
100
AcDbEntity
8
0
100
AcDbSpline
70
4
71
3
72
8
73
4
74
0
42
0.000000001
43
0.0000000001
44
0.0000000001
40
-1
40
-1
40
-1
40
-1
40
0
40
0
40
0
40
0
41
1
41
1
41
1
41
1
10
-20.78277875677518
20
21.664582160713412
30
0
10
-13.301539515611971
20
25.036078570874668
30
0
10
-13.301539515611971
20
25.036078570874668
30
0
10
-11.202212552047417
20
21.324613094195172
30
0
0
SPLINE
5
196
100
AcDbEntity
8
0
100
AcDbSpline
70
4
71
5
72
13
73
7
74
0
42
0.000000001
43
0.0000000001
44
0.0000000001
40
-0.23048492457131964
40
-0.23048492457131964
40
-0.23048492457131964
40
-0.23048492457131964
40
-0.23048492457131964
40
-0.23048492457131964
40
-0.20000000000000001
40
0
40
0
40
0
40
0
40
0
40
0
41
1
41
1
41
1
41
1
41
1
41
1
41
1
10
-0.28048037261211078
20
-55.959575811425744
30
0
10
-0.20463440724194371
20
-55.940747179535634
30
0
10
0.36574407251324104
20
-55.785686318007023
30
0
10
0.9123025091424708
20
-55.532804889000076
30
0
10
1.4302538634302131
20
-55.169044906900893
30
0
10
1.9161884441415289
20
-54.684128571811598
30
0
10
2.3137193949106738
20
-54.172038728646648
30
0
0
LINE
5
197
100
AcDbEntity
8
0
100
AcDbLine
10
-34.271140442343999
20
-60.826878202228784
30
0
11
-32.699644644878717
21
-61.713824762424395
31
0
0
SPLINE
5
198
100
AcDbEntity
8
0
100
AcDbSpline
70
4
71
3
72
8
73
4
74
0
42
0.000000001
43
0.0000000001
44
0.0000000001
40
-1
40
-1
40
-1
40
-1
40
0
40
0
40
0
40
0
41
1
41
1
41
1
41
1
10
-72.901416907945986
20
55.383259749888225
30
0
10
-72.486131715801193
20
56.336162508327817
30
0
10
-72.486131715801193
20
56.336162508327817
30
0
10
-63.321280926927564
20
59.04393691248103
30
0
0
LINE
5
199
100
AcDbEntity
8
0
100
AcDbLine
10
-60.885601196400344
20
59.759932032727995
30
0
11
-53.161672367924702
21
60.501197562577786
31
0
0
LINE
5
200
100
AcDbEntity
8
0
100
AcDbLine
10
2.3137193949106738
20
-54.172038728646648
30
0
11
10.993551541043747
21
-42.990886987350905
31
0
0
SPLINE
5
201
100
AcDbEntity
8
0
100
AcDbSpline
70
0
71
3
72
8
73
4
74
0
42
0.000000001
43
0.0000000001
44
0.0000000001
40
0
40
0
40
0
40
0
40
0.14534287605048793
40
0.14534287605048793
40
0.14534287605048793
40
0.14534287605048793
10
0.52719232358228396
20
9.4975301729413673
30
0
10
0.61338877250731727
20
10.484281581656791
30
0
10
0.68993289864266671
20
11.470018326031477
30
0
10
0.75570746907695607
20
12.455894504722469
30
0
0
LINE
5
202
100
AcDbEntity
8
0
100
AcDbLine
10
8.6808696168455235
20
-29.803673511766966
30
0
11
3.4787639559263894
21
-25.023222411125616
31
0
0
LINE
5
203
100
AcDbEntity
8
0
100
AcDbLine
10
0.50831488259353463
20
30.077446683703364
30
0
11
-2.4916851621099312
21
55.077447056232451
31
0
0
SPLINE
5
204
100
AcDbEntity
8
0
100
AcDbSpline
70
0
71
3
72
10
73
6
74
0
42
0.000000001
43
0.0000000001
44
0.0000000001
40
-1.4359824060947792
40
-1.4359824060947792
40
-1.4359824060947792
40
-1.4359824060947792
40
-0.71493912986906005
40
-0.71493912986906005
40
-0.46317452329339992
40
-0.46317452329339992
40
-0.46317452329339992
40
-0.46317452329339992
10
-3.4631924713541729
20
29.600865801229638
30
0
10
-3.1695596891461975
20
27.153925949496788
30
0
10
-3.0302410963266091
20
24.748975767209465
30
0
10
-2.9726617672088018
20
21.482107821048334
30
0
10
-2.969403322026043
20
20.624142605976981
30
0
10
-2.9764054386432903
20
19.763374248174344
30
0
0
SPLINE
5
205
100
AcDbEntity
8
0
100
AcDbSpline
70
0
71
3
72
12
73
8
74
0
42
0.000000001
43
0.0000000001
44
0.0000000001
40
-0.77827058045334052
40
-0.77827058045334052
40
-0.77827058045334052
40
-0.77827058045334052
40
-0.66848514738858067
40
-0.66848514738858067
40
-0.42821280194501232
40
-0.42821280194501232
40
0
40
0
40
0
40
0
10
-101.17446104728742
20
45.602347069038878
30
0
10
-100.9042001095011
20
45.592423850077573
30
0
10
-100.63791172705368
20
45.557598747297675
30
0
10
-99.791961037485564
20
45.378321373911362
30
0
10
-99.225896066807479
20
45.154950284745723
30
0
10
-97.623758538158995
20
44.388972690391043
30
0
10
-96.623885705930263
20
43.760448952389481
30
0
10
-95.320751641324819
20
43.178002496868153
30
0
0
SPLINE
5
206
100
AcDbEntity
8
0
100
AcDbSpline
70
4
71
3
72
8
73
4
74
0
42
0.000000001
43
0.0000000001
44
0.0000000001
40
-1
40
-1
40
-1
40
-1
40
-0.90227236548157042
40
-0.90227236548157042
40
-0.90227236548157042
40
-0.90227236548157042
41
1
41
1
41
1
41
1
10
-63.321280926927564
20
59.04393691248103
30
0
10
-62.425621721423028
20
59.308561103285122
30
0
10
-61.617493171407062
20
59.547324197885551
30
0
10
-60.885601196400344
20
59.759932032727995
30
0
0
SPLINE
5
207
100
AcDbEntity
8
0
100
AcDbSpline
70
4
71
3
72
8
73
4
74
0
42
0.000000001
43
0.0000000001
44
0.0000000001
40
-1
40
-1
40
-1
40
-1
40
-0.2563282431739986
40
-0.2563282431739986
40
-0.2563282431739986
40
-0.2563282431739986
41
1
41
1
41
1
41
1
10
-42.893181068600761
20
33.240589501326298
30
0
10
-43.036054065736103
20
30.867779965552945
30
0
10
-43.072676450088814
20
30.259561865861659
30
0
10
-45.736415197804313
20
28.1532404325363
30
0
0
SPLINE
5
208
100
AcDbEntity
8
0
100
AcDbSpline
70
4
71
5
72
14
73
8
74
0
42
0.000000001
43
0.0000000001
44
0.0000000001
40
0
40
0
40
0
40
0
40
0
40
0
40
0.20000000000000001
40
0.40000000000000002
40
0.44898385350180597
40
0.44898385350180597
40
0.44898385350180597
40
0.44898385350180597
40
0.44898385350180597
40
0.44898385350180597
41
1
41
1
41
1
41
1
41
1
41
1
41
1
41
1
10
10.993551541043747
20
-42.990886987350905
30
0
10
11.416577357237703
20
-42.445955269580637
30
0
10
12.126655585895367
20
-41.350577610936121
30
0
10
12.618704700912193
20
-40.108700107816517
30
0
10
12.810632854429347
20
-38.858530975539701
30
0
10
12.761604869514489
20
-37.613800675387438
30
0
10
12.667805552889
20
-36.928058327077238
30
0
10
12.646826675904812
20
-36.793346137133732
30
0
0
SPLINE
5
209
100
AcDbEntity
8
0
100
AcDbSpline
70
4
71
3
72
8
73
4
74
0
42
0.000000001
43
0.0000000001
44
0.0000000001
40
-1
40
-1
40
-1
40
-1
40
-0.61052872628930965
40
-0.61052872628930965
40
-0.61052872628930965
40
-0.61052872628930965
41
1
41
1
41
1
41
1
10
-103.26366323387654
20
34.049334461734261
30
0
10
-106.241485926462
20
34.212403866149131
30
0
10
-108.05953222208161
20
34.311962421923297
30
0
10
-109.25262039415426
20
34.793164208049156
30
0
0
ARC
5
210
100
AcDbEntity
8
0
100
AcDbCircle
10
-107.33869664172911
20
41.785974506484465
30
0
40
7.2500000000000044
210
0
220
0
230
1
100
AcDbArc
50
-105.3069163710297
51
31.762283436903871
0
SPLINE
5
211
100
AcDbEntity
8
0
100
AcDbSpline
70
4
71
3
72
8
73
4
74
0
42
0.000000001
43
0.0000000001
44
0.0000000001
40
-1
40
-1
40
-1
40
-1
40
0
40
0
40
0
40
0
41
1
41
1
41
1
41
1
10
-14.47788844361904
20
-19.625889393159586
30
0
10
-14.271361164724592
20
-20.830219245967527
30
0
10
-14.271361164724592
20
-20.830219245967527
30
0
10
-19.374580919211279
20
-26.36455110681489
30
0
0
SPLINE
5
212
100
AcDbEntity
8
0
100
AcDbSpline
70
4
71
5
72
15
73
9
74
0
42
0.000000001
43
0.0000000001
44
0.0000000001
40
-0.61085775741384585
40
-0.61085775741384585
40
-0.61085775741384585
40
-0.61085775741384585
40
-0.61085775741384585
40
-0.61085775741384585
40
-0.60000000000000009
40
-0.40000000000000002
40
-0.20000000000000001
40
0
40
0
40
0
40
0
40
0
40
0
41
1
41
1
41
1
41
1
41
1
41
1
41
1
41
1
41
1
10
-19.768639327725097
20
-49.242282172232478
30
0
10
-19.736569865645048
20
-49.239079080308635
30
0
10
-19.11297079739672
20
-49.18036605201052
30
0
10
-17.867669590365907
20
-49.197123726262134
30
0
10
-15.952724665106466
20
-49.549460704717049
30
0
10
-14.011305009764978
20
-50.260758432517505
30
0
10
-12.15221869180338
20
-51.223089711166168
30
0
10
-10.944451729436189
20
-51.979848047286751
30
0
10
-10.348484818473125
20
-52.387043848097747
30
0
0
SPLINE
5
213
100
AcDbEntity
8
0
100
AcDbSpline
70
4
71
5
72
16
73
10
74
0
42
0.000000001
43
0.0000000001
44
0.0000000001
40
0
40
0
40
0
40
0
40
0
40
0
40
0.20000000000000001
40
0.40000000000000002
40
0.60000000000000009
40
0.80000000000000004
40
1
40
1
40
1
40
1
40
1
40
1
41
1
41
1
41
1
41
1
41
1
41
1
41
1
41
1
41
1
41
1
10
3.4787639559263894
20
-25.023222411125616
30
0
10
2.8520543370586005
20
-24.447310485728543
30
0
10
1.72991045022858
20
-23.264310543305335
30
0
10
0.44016623067070881
20
-21.396361574575401
30
0
10
-0.60124649027471833
20
-18.740391405684647
30
0
10
-1.15154332177962
20
-15.206846285254292
30
0
10
-1.2244394142756398
20
-12.230899182445619
30
0
10
-1.1414496036024069
20
-9.9094285981070449
30
0
10
-1.0291121862830543
20
-8.3185827487809778
30
0
10
-0.95868488517078632
20
-7.5123518720890816
30
0
0
SPLINE
5
214
100
AcDbEntity
8
0
100
AcDbSpline
70
4
71
3
72
8
73
4
74
0
42
0.000000001
43
0.0000000001
44
0.0000000001
40
-1
40
-1
40
-1
40
-1
40
0
40
0
40
0
40
0
41
1
41
1
41
1
41
1
10
-7.4047798995529668
20
23.744458972619249
30
0
10
-9.5041105331089248
20
27.455920075573314
30
0
10
-9.5041105331089248
20
27.455920075573314
30
0
10
-9.4719303686196987
20
27.683798993175316
30
0
0
SPLINE
5
215
100
AcDbEntity
8
0
100
AcDbSpline
70
4
71
5
72
16
73
10
74
0
42
0.000000001
43
0.0000000001
44
0.0000000001
40
-0.44069834196105329
40
-0.44069834196105329
40
-0.44069834196105329
40
-0.44069834196105329
40
-0.44069834196105329
40
-0.44069834196105329
40
-0.40000000000000002
40
-0.30000000000000004
40
-0.20000000000000001
40
-0.10000000000000001
40
0
40
0
40
0
40
0
40
0
40
0
41
1
41
1
41
1
41
1
41
1
41
1
41
1
41
1
41
1
41
1
10
-30.1450042680972
20
-61.209035803269231
30
0
10
-30.048077016242463
20
-61.085884544010696
30
0
10
-29.713303420831014
20
-60.654046170153777
30
0
10
-29.142025984016353
20
-59.879649229971733
30
0
10
-28.333191583877539
20
-58.700760872621068
30
0
10
-27.274112806183606
20
-57.036061556104087
30
0
10
-26.283310958115411
20
-55.389476505035248
30
0
10
-25.516675958900059
20
-54.082991664228004
30
0
10
-24.9942110798907
20
-53.180655216388217
30
0
10
-24.730134756296387
20
-52.721649935780015
30
0
0
SPLINE
5
216
100
AcDbEntity
8
0
100
AcDbSpline
70
4
71
5
72
14
73
8
74
0
42
0.000000001
43
0.0000000001
44
0.0000000001
40
0.44898385350180597
40
0.44898385350180597
40
0.44898385350180597
40
0.44898385350180597
40
0.44898385350180597
40
0.44898385350180597
40
0.60000000000000009
40
0.80000000000000004
40
1
40
1
40
1
40
1
40
1
40
1
41
1
41
1
41
1
41
1
41
1
41
1
41
1
41
1
10
12.646826675904812
20
-36.793346137133717
30
0
10
12.582149258071826
20
-36.378031408764045
30
0
10
12.37602621424907
20
-35.417050211059646
30
0
10
11.862043684655994
20
-33.929986692906404
30
0
10
11.085542533610084
20
-32.49862868859109
30
0
10
10.053833498967251
20
-31.159923191195873
30
0
10
9.1623043477963151
20
-30.246085746249356
30
0
10
8.6808696168455057
20
-29.803673511766966
30
0
0
SPLINE
5
217
100
AcDbEntity
8
0
100
AcDbSpline
70
4
71
3
72
8
73
4
74
0
42
0.000000001
43
0.0000000001
44
0.0000000001
40
-0.08893944467810827
40
-0.08893944467810827
40
-0.08893944467810827
40
-0.08893944467810827
40
0
40
0
40
0
40
0
41
1
41
1
41
1
41
1
10
-68.386041192307289
20
46.503463609041368
30
0
10
-68.684134002855174
20
46.972375292258981
30
0
10
-69.004973986405304
20
47.488897242072369
30
0
10
-69.357134972495601
20
48.055843035956407
30
0
0
SPLINE
5
218
100
AcDbEntity
8
0
100
AcDbSpline
70
4
71
5
72
15
73
9
74
0
42
0.000000001
43
0.0000000001
44
0.0000000001
40
-1
40
-1
40
-1
40
-1
40
-1
40
-1
40
-0.80000000000000004
40
-0.60000000000000009
40
-0.40000000000000002
40
-0.23048492457144731
40
-0.23048492457144731
40
-0.23048492457144731
40
-0.23048492457144731
40
-0.23048492457144731
40
-0.23048492457144731
41
1
41
1
41
1
41
1
41
1
41
1
41
1
41
1
41
1
10
-10.348484818473125
20
-52.387043848097747
30
0
10
-9.8986260372006285
20
-52.694410923890729
30
0
10
-8.9626389937935613
20
-53.303936504253421
30
0
10
-7.4499666558482502
20
-54.202552635951314
30
0
10
-5.3453121003780346
20
-55.278623789875063
30
0
10
-3.1852987666173682
20
-56.014790878611734
30
0
10
-1.6488933483861956
20
-56.17924054633886
30
0
10
-0.70223095003752789
20
-56.064274674879059
30
0
10
-0.28048037261367398
20
-55.959575811426149
30
0
0
ARC
5
219
100
AcDbEntity
8
0
100
AcDbCircle
10
-93.280481758421615
20
47.742791517723198
30
0
40
5.0000000000000666
210
0
220
0
230
1
100
AcDbArc
50
245.91735285829591
51
265.95089106213408
0
SPLINE
5
220
100
AcDbEntity
8
0
100
AcDbSpline
70
4
71
3
72
8
73
4
74
0
42
0.000000001
43
0.0000000001
44
0.0000000001
40
-1
40
-1
40
-1
40
-1
40
0
40
0
40
0
40
0
41
1
41
1
41
1
41
1
10
-10.910505753670101
20
12.305624242515663
30
0
10
-12.718125918857304
20
6.9981008675156611
30
0
10
-12.718125918857304
20
6.9981008675156611
30
0
10
-18.596649037972348
20
5.7784747830274954
30
0
0
SPLINE
5
221
100
AcDbEntity
8
0
100
AcDbSpline
70
4
71
3
72
8
73
4
74
0
42
0.000000001
43
0.0000000001
44
0.0000000001
40
-1
40
-1
40
-1
40
-1
40
0
40
0
40
0
40
0
41
1
41
1
41
1
41
1
10
-28.764729664461814
20
13.669411841154965
30
0
10
-28.264017997938407
20
18.293085750552148
30
0
10
-28.264017997938407
20
18.293085750552148
30
0
10
-20.78277875677518
20
21.664582160713412
30
0
0
SPLINE
5
222
100
AcDbEntity
8
0
100
AcDbSpline
70
4
71
3
72
8
73
4
74
0
42
0.000000001
43
0.0000000001
44
0.0000000001
40
-1
40
-1
40
-1
40
-1
40
0
40
0
40
0
40
0
41
1
41
1
41
1
41
1
10
-26.201950398702802
20
-31.54311375140724
30
0
10
-27.926100123707656
20
-31.187344535152203
30
0
10
-27.926100123707656
20
-31.187344535152203
30
0
10
-30.956814560463322
20
-24.632118697403396
30
0
0
SPLINE
5
223
100
AcDbEntity
8
0
100
AcDbSpline
70
4
71
5
72
13
73
7
74
0
42
0.000000001
43
0.0000000001
44
0.0000000001
40
-1
40
-1
40
-1
40
-1
40
-1
40
-1
40
-0.80000000000000004
40
-0.61085775741392812
40
-0.61085775741392812
40
-0.61085775741392812
40
-0.61085775741392812
40
-0.61085775741392812
40
-0.61085775741392812
41
1
41
1
41
1
41
1
41
1
41
1
41
1
10
-24.730134756296387
20
-52.721649935780015
30
0
10
-24.321879235579633
20
-52.012039027479631
30
0
10
-23.470270633506694
20
-50.824309814062538
30
0
10
-22.507354460751934
20
-50.011707089861027
30
0
10
-21.450625776089929
20
-49.525112602589473
30
0
10
-20.32728967744001
20
-49.29808006553575
30
0
10
-19.768639327726287
20
-49.24228217223262
30
0
0
LINE
5
224
100
AcDbEntity
8
0
100
AcDbLine
10
-0.95868488517078632
20
-7.5123518720890816
30
0
11
0.52719232358228396
21
9.4975301729413673
31
0
0
SPLINE
5
225
100
AcDbEntity
8
0
100
AcDbSpline
70
4
71
3
72
8
73
4
74
0
42
0.000000001
43
0.0000000001
44
0.0000000001
40
-1
40
-1
40
-1
40
-1
40
0
40
0
40
0
40
0
41
1
41
1
41
1
41
1
10
-26.870306744036263
20
6.8022933151485763
30
0
10
-29.265441330985205
20
9.0457379317578148
30
0
10
-29.265441330985205
20
9.0457379317578148
30
0
10
-28.764729664461814
20
13.669411841154965
30
0
0
SPLINE
5
226
100
AcDbEntity
8
0
100
AcDbSpline
70
0
71
3
72
14
73
10
74
0
42
0.000000001
43
0.0000000001
44
0.0000000001
40
0
40
0
40
0
40
0
40
0.078128894677385471
40
0.078128894677385471
40
0.15625778935477022
40
0.15625778935477022
40
0.22029223592665695
40
0.22029223592665695
40
0.28432668249854187
40
0.28432668249854187
40
0.28432668249854187
40
0.28432668249854187
10
-30.1450042680972
20
-61.209035803269231
30
0
10
-30.30607335585448
20
-61.413682696741972
30
0
10
-30.505574624308807
20
-61.584912679889008
30
0
10
-30.958982866246956
20
-61.841262780919934
30
0
10
-31.208555009811256
20
-61.923932052116363
30
0
10
-31.678726015051879
20
-61.983087771286478
30
0
10
-31.893411063453598
20
-61.975659416583127
30
0
10
-32.312271646727538
20
-61.89321991342949
30
0
10
-32.51375927522902
20
-61.81873779462434
30
0
10
-32.699644644878717
20
-61.713824762424409
30
0
0
SPLINE
5
227
100
AcDbEntity
8
0
100
AcDbSpline
70
0
71
3
72
11
73
7
74
0
42
0.000000001
43
0.0000000001
44
0.0000000001
40
0.14534287605048807
40
0.14534287605048807
40
0.14534287605048807
40
0.14534287605048807
40
0.67801271907320482
40
0.67801271907320482
40
0.67801271907320482
40
1
40
1
40
1
40
1
10
0.75570746907695607
20
12.455894504722483
30
0
10
0.99676593069673913
20
16.069050674555999
30
0
10
1.0931717046674727
20
19.684079674538232
30
0
10
0.9899280694283874
20
23.357792973298036
30
0
10
0.92751954786651325
20
25.578472389387755
30
0
10
0.77838472516960522
20
27.826864662236662
30
0
10
0.50831488259353463
20
30.077446683703364
30
0
0
LINE
5
228
100
AcDbEntity
8
0
100
AcDbLine
10
-3.7687284588039738
20
32.146999029978161
30
0
11
-3.4631924713541729
21
29.600865801229638
31
0
0
SPLINE
5
229
100
AcDbEntity
8
0
100
AcDbSpline
70
0
71
3
72
20
73
16
74
0
42
0.000000001
43
0.0000000001
44
0.0000000001
40
-1
40
-1
40
-1
40
-1
40
-0.99032961220498295
40
-0.99032961220498295
40
-0.99032961220498295
40
-0.80778318786144321
40
-0.80778318786144321
40
-0.80778318786144321
40
-0.61976440982799463
40
-0.61976440982799463
40
-0.61976440982799463
40
-0.36291265934012851
40
-0.36291265934012851
40
-0.36291265934012851
40
-0.11856548987200374
40
-0.11856548987200374
40
-0.11856548987200374
40
-0.11856548987200374
10
-2.4916851621099312
20
55.077447056232451
30
0
10
-2.4981187987784459
20
55.13106069513676
30
0
10
-2.505129490303073
20
55.184835339903479
30
0
10
-2.5127432100150493
20
55.238756502289057
30
0
10
-2.6564662270060069
20
56.256617998495855
30
0
10
-3.0527934992571737
20
57.350700489890642
30
0
10
-3.6942871764877161
20
58.236735841769686
30
0
10
-4.3550114702821752
20
59.149332649698501
30
0
10
-5.2112010538057341
20
59.792289495907063
30
0
10
-5.9935301598861734
20
60.205126290421298
30
0
10
-7.0622670299802159
20
60.769101093607809
30
0
10
-8.0165321173721793
20
60.990213732006552
30
0
10
-8.8787041864181226
20
61.142118868353052
30
0
10
-9.69890223554847
20
61.286628648891572
30
0
10
-10.449578302671725
20
61.357548074984678
30
0
10
-11.171926613520036
20
61.388463132867471
30
0
0
SPLINE
5
230
100
AcDbEntity
8
0
100
AcDbSpline
70
4
71
3
72
8
73
4
74
0
42
0.000000001
43
0.0000000001
44
0.0000000001
40
-1
40
-1
40
-1
40
-1
40
0
40
0
40
0
40
0
41
1
41
1
41
1
41
1
10
-93.913478398218743
20
41.462968797052973
30
0
10
-95.61785529746021
20
33.630644178204697
30
0
10
-95.61785529746021
20
33.630644178204697
30
0
10
-103.26366323387654
20
34.049334461734261
30
0
0
SPLINE
5
231
100
AcDbEntity
8
0
100
AcDbSpline
70
4
71
3
72
8
73
4
74
0
42
0.000000001
43
0.0000000001
44
0.0000000001
40
-0.6676092353663331
40
-0.6676092353663331
40
-0.6676092353663331
40
-0.6676092353663331
40
0
40
0
40
0
40
0
41
1
41
1
41
1
41
1
10
-2.9764054386432903
20
19.763374248174355
30
0
10
-5.5373941793552817
20
20.443049638843934
30
0
10
-6.0032498306237336
20
21.266650343644692
30
0
10
-7.4047798995529668
20
23.744458972619249
30
0
0
SPLINE
5
232
100
AcDbEntity
8
0
100
AcDbSpline
70
4
71
3
72
8
73
4
74
0
42
0.000000001
43
0.0000000001
44
0.0000000001
40
-0.05830132951359665
40
-0.05830132951359665
40
-0.05830132951359665
40
-0.05830132951359665
40
0
40
0
40
0
40
0
41
1
41
1
41
1
41
1
10
-93.63353912237649
20
42.755272044301762
30
0
10
-93.720534952443799
20
42.349616409290682
30
0
10
-93.81411002108193
20
41.919603817571186
30
0
10
-93.913478398218743
20
41.462968797052973
30
0
0
SPLINE
5
233
100
AcDbEntity
8
0
100
AcDbSpline
70
4
71
3
72
8
73
4
74
0
42
0.000000001
43
0.0000000001
44
0.0000000001
40
-1
40
-1
40
-1
40
-1
40
0
40
0
40
0
40
0
41
1
41
1
41
1
41
1
10
-11.202212552047417
20
21.324613094195172
30
0
10
-9.1028855884829163
20
17.613147617515665
30
0
10
-9.1028855884829163
20
17.613147617515665
30
0
10
-10.910505753670101
20
12.305624242515663
30
0
0
SPLINE
5
234
100
AcDbEntity
8
0
100
AcDbSpline
70
4
71
3
72
8
73
4
74
0
42
0.000000001
43
0.0000000001
44
0.0000000001
40
-1
40
-1
40
-1
40
-1
40
-0.083883070770714718
40
-0.083883070770714718
40
-0.083883070770714718
40
-0.083883070770714718
41
1
41
1
41
1
41
1
10
-9.4719303686196987
20
27.683798993175316
30
0
10
-9.4424495751457016
20
27.89256272740495
30
0
10
-9.439976635660372
20
27.910074470497698
30
0
10
-3.7687284588039738
20
32.146999029978161
30
0
0
SPLINE
5
235
100
AcDbEntity
8
0
100
AcDbSpline
70
4
71
3
72
8
73
4
74
0
42
0.000000001
43
0.0000000001
44
0.0000000001
40
-1
40
-1
40
-1
40
-1
40
0
40
0
40
0
40
0
41
1
41
1
41
1
41
1
10
-20.156681841121138
20
-15.268301783789511
30
0
10
-14.684415722513453
20
-18.421559540351645
30
0
10
-14.684415722513453
20
-18.421559540351645
30
0
10
-14.47788844361904
20
-19.625889393159586
30
0
0
SPLINE
5
236
100
AcDbEntity
8
0
100
AcDbSpline
70
0
71
3
72
8
73
4
74
0
42
0.000000001
43
0.0000000001
44
0.0000000001
40
-0.053322112338127538
40
-0.053322112338127538
40
-0.053322112338127538
40
-0.053322112338127538
40
0
40
0
40
0
40
0
10
-3.0851479553054695
20
15.57910104373275
30
0
10
-3.0928083320101329
20
15.40030082881588
30
0
10
-3.1008151114744109
20
15.22208236820823
30
0
10
-3.1091540394323935
20
15.044537717503555
30
0
0
SPLINE
5
237
100
AcDbEntity
8
0
100
AcDbSpline
70
4
71
3
72
8
73
4
74
0
42
0.000000001
43
0.0000000001
44
0.0000000001
40
-1
40
-1
40
-1
40
-1
40
0
40
0
40
0
40
0
41
1
41
1
41
1
41
1
10
-30.118289722784617
20
38.469167477530981
30
0
10
-22.527672476782765
20
40.558412803533407
30
0
10
-22.527672476782765
20
40.558412803533407
30
0
10
-18.509623621291471
20
34.509425381481044
30
0
0
SPLINE
5
238
100
AcDbEntity
8
0
100
AcDbSpline
70
4
71
3
72
8
73
4
74
0
42
0.000000001
43
0.0000000001
44
0.0000000001
40
-1
40
-1
40
-1
40
-1
40
-0.059280398430064038
40
-0.059280398430064038
40
-0.059280398430064038
40
-0.059280398430064038
41
1
41
1
41
1
41
1
10
-101.64648228890498
20
-1.7217274145411836
30
0
10
-103.15494011640911
20
4.1852259260698697
30
0
10
-103.24436209743851
20
4.5353924736090914
30
0
10
-97.925571371321837
20
7.9074282537017728
30
0
0
SPLINE
5
239
100
AcDbEntity
8
0
100
AcDbSpline
70
4
71
3
72
8
73
4
74
0
42
0.000000001
43
0.0000000001
44
0.0000000001
40
-1
40
-1
40
-1
40
-1
40
0
40
0
40
0
40
0
41
1
41
1
41
1
41
1
10
-19.374580919211279
20
-26.36455110681489
30
0
10
-24.477800673697967
20
-31.89888296766226
30
0
10
-24.477800673697967
20
-31.89888296766226
30
0
10
-26.201950398702802
20
-31.54311375140724
30
0
0
SPLINE
5
240
100
AcDbEntity
8
0
100
AcDbSpline
70
4
71
3
72
8
73
4
74
0
42
0.000000001
43
0.0000000001
44
0.0000000001
40
-1
40
-1
40
-1
40
-1
40
-0.68127969791542276
40
-0.68127969791542276
40
-0.68127969791542276
40
-0.68127969791542276
41
1
41
1
41
1
41
1
10
-103.39904096518941
20
29.522793678971087
30
0
10
-100.96216663786697
20
29.38934730347675
30
0
10
-99.301973632290895
20
29.298432997092053
30
0
10
-98.106209922306661
20
29.156855220267389
30
0
0
SPLINE
5
241
100
AcDbEntity
8
0
100
AcDbSpline
70
4
71
3
72
8
73
4
74
0
42
0.000000001
43
0.0000000001
44
0.0000000001
40
-0.50340071123661545
40
-0.50340071123661545
40
-0.50340071123661545
40
-0.50340071123661545
40
-0.47111461624937812
40
-0.47111461624937812
40
-0.47111461624937812
40
-0.47111461624937812
41
1
41
1
41
1
41
1
10
-65.07367207790378
20
-8.348840163728191
30
0
10
-65.063619286931029
20
-8.4341719476099808
30
0
10
-65.05704006196396
20
-8.5200896008745985
30
0
10
-65.053895536472396
20
-8.6069494512643807
30
0
0
SPLINE
5
242
100
AcDbEntity
8
0
100
AcDbSpline
70
4
71
3
72
8
73
4
74
0
42
0.000000001
43
0.0000000001
44
0.0000000001
40
-1
40
-1
40
-1
40
-1
40
0
40
0
40
0
40
0
41
1
41
1
41
1
41
1
10
-9.063654465374622
20
-10.374156673018343
30
0
10
-13.13634552519547
20
-15.517420227582823
30
0
10
-13.13634552519547
20
-15.517420227582823
30
0
10
-18.608612347537186
20
-12.364154427303845
30
0
0
SPLINE
5
243
100
AcDbEntity
8
0
100
AcDbSpline
70
4
71
3
72
8
73
4
74
0
42
0.000000001
43
0.0000000001
44
0.0000000001
40
-1
40
-1
40
-1
40
-1
40
-0.34545708857105223
40
-0.34545708857105223
40
-0.34545708857105223
40
-0.34545708857105223
41
1
41
1
41
1
41
1
10
-7.0858608385258393
20
10.872936525573564
30
0
10
-5.9026932403675758
20
14.346938558235308
30
0
10
-5.4939596066162011
20
15.547057186128551
30
0
10
-3.0851479553053984
20
15.57910104373275
30
0
0
SPLINE
5
244
100
AcDbEntity
8
0
100
AcDbSpline
70
4
71
3
72
8
73
4
74
0
42
0.000000001
43
0.0000000001
44
0.0000000001
40
-1
40
-1
40
-1
40
-1
40
0
40
0
40
0
40
0
41
1
41
1
41
1
41
1
10
-18.509623621291471
20
34.509425381481044
30
0
10
-14.491570743941704
20
28.460438311295718
30
0
10
-14.491570743941704
20
28.460438311295718
30
0
10
-14.52375090843093
20
28.232559393693712
30
0
0
SPLINE
5
245
100
AcDbEntity
8
0
100
AcDbSpline
70
4
71
3
72
8
73
4
74
0
42
0.000000001
43
0.0000000001
44
0.0000000001
40
-0.10974204283472393
40
-0.10974204283472393
40
-0.10974204283472393
40
-0.10974204283472393
40
0
40
0
40
0
40
0
41
1
41
1
41
1
41
1
10
-7.613477889035476
20
9.3046614713956686
30
0
10
-7.4608349569245824
20
9.7719397914420743
30
0
10
-7.2842327681227204
20
10.290478068008015
30
0
10
-7.0858608385258393
20
10.872936525573564
30
0
0
SPLINE
5
246
100
AcDbEntity
8
0
100
AcDbSpline
70
0
71
3
72
10
73
6
74
0
42
0.000000001
43
0.0000000001
44
0.0000000001
40
-0.92509241124246877
40
-0.92509241124246877
40
-0.92509241124246877
40
-0.92509241124246877
40
-0.4407628290293657
40
-0.4407628290293657
40
-0.35949554385971416
40
-0.35949554385971416
40
-0.35949554385971416
40
-0.35949554385971416
10
-11.472664777930479
20
-1.5487418811381355
30
0
10
-9.2136188281471121
20
-3.2290951346328702
30
0
10
-7.684324459693439
20
-4.2594777627430558
30
0
10
-6.426897962938849
20
-5.6664502953301712
30
0
10
-6.2573083662912055
20
-5.8753612793087182
30
0
10
-6.1012973031632178
20
-6.0929697290764429
30
0
0
SPLINE
5
247
100
AcDbEntity
8
0
100
AcDbSpline
70
4
71
3
72
8
73
4
74
0
42
0.000000001
43
0.0000000001
44
0.0000000001
40
-1
40
-1
40
-1
40
-1
40
0
40
0
40
0
40
0
41
1
41
1
41
1
41
1
10
-23.878706362692323
20
-4.1690098318967568
30
0
10
-23.676538984832209
20
0.87288469879805652
30
0
10
-23.676538984832209
20
0.87288469879805652
30
0
10
-17.798015865717201
20
2.0925107832862224
30
0
0
CIRCLE
5
248
100
AcDbEntity
8
0
100
AcDbCircle
10
-8.2804804918229102
20
2.7427908471709204
30
0
40
2.0000000000000107
210
0
220
0
230
1
0
SPLINE
5
249
100
AcDbEntity
8
0
100
AcDbSpline
70
4
71
3
72
8
73
4
74
0
42
0.000000001
43
0.0000000001
44
0.0000000001
40
-1
40
-1
40
-1
40
-1
40
0
40
0
40
0
40
0
41
1
41
1
41
1
41
1
10
-22.037166292224928
20
24.63318441779748
30
0
10
-29.518400807795686
20
21.261680315786368
30
0
10
-29.518400807795686
20
21.261680315786368
30
0
10
-33.805774257654605
20
25.630133247639954
30
0
0
SPLINE
5
250
100
AcDbEntity
8
0
100
AcDbSpline
70
4
71
3
72
8
73
4
74
0
42
0.000000001
43
0.0000000001
44
0.0000000001
40
-1
40
-1
40
-1
40
-1
40
-0.67722472336559703
40
-0.67722472336559703
40
-0.67722472336559703
40
-0.67722472336559703
41
1
41
1
41
1
41
1
10
-17.798015865717201
20
2.0925107832862224
30
0
10
-15.900574166891044
20
2.4861785264103564
30
0
10
-14.615579737301161
20
2.7527800548455561
30
0
10
-13.628853559603549
20
2.789686502176548
30
0
0
SPLINE
5
251
100
AcDbEntity
8
0
100
AcDbSpline
70
0
71
3
72
14
73
10
74
0
42
0.000000001
43
0.0000000001
44
0.0000000001
40
-1.6540333848573807
40
-1.6540333848573807
40
-1.6540333848573807
40
-1.6540333848573807
40
-1.4037293676498279
40
-1.4037293676498279
40
-1.1712147372768715
40
-1.1712147372768715
40
-0.72600253718010754
40
-0.72600253718010754
40
-0.4497025018620211
40
-0.4497025018620211
40
-0.4497025018620211
40
-0.4497025018620211
10
-3.109154039432358
20
15.044537717503545
30
0
10
-3.1326377396752392
20
14.544544747437573
30
0
10
-3.2139419029229366
20
14.055943427345259
30
0
10
-3.5165726994455682
20
13.138203925882713
30
0
10
-3.7205459015928177
20
12.728325121248002
30
0
10
-4.4758975876217733
20
11.601955824263923
30
0
10
-5.1588085245469806
20
10.970225896838524
30
0
10
-6.468340246493689
20
10.012565091688952
30
0
10
-7.0143896790978033
20
9.6636987506273933
30
0
10
-7.6134778890354404
20
9.3046614713956775
30
0
0
SPLINE
5
252
100
AcDbEntity
8
0
100
AcDbSpline
70
4
71
3
72
8
73
4
74
0
42
0.000000001
43
0.0000000001
44
0.0000000001
40
-1
40
-1
40
-1
40
-1
40
0
40
0
40
0
40
0
41
1
41
1
41
1
41
1
10
-14.52375090843093
20
28.232559393693712
30
0
10
-14.55593142478719
20
28.004684497950151
30
0
10
-14.55593142478719
20
28.004684497950151
30
0
10
-22.037166292224928
20
24.63318441779748
30
0
0
LINE
5
253
100
AcDbEntity
8
0
100
AcDbLine
10
-5.5072087696542482
20
46.634334953730232
30
0
11
-4.2318004940823073
21
36.005932657297784
31
0
0
SPLINE
5
254
100
AcDbEntity
8
0
100
AcDbSpline
70
4
71
3
72
8
73
4
74
0
42
0.000000001
43
0.0000000001
44
0.0000000001
40
-1
40
-1
40
-1
40
-1
40
0
40
0
40
0
40
0
41
1
41
1
41
1
41
1
10
-94.199238091577001
20
-8.9423231419923326
30
0
10
-100.04296816740656
20
-8.0009053586076622
30
0
10
-100.04296816740656
20
-8.0009053586076622
30
0
10
-101.64648228890498
20
-1.7217274145411836
30
0
0
LINE
5
255
100
AcDbEntity
8
0
100
AcDbLine
10
-112.21902197768495
20
11.063935347806183
30
0
11
-112.21902197768495
21
28.545440265570573
31
0
0
LINE
5
256
100
AcDbEntity
8
0
100
AcDbLine
10
-70.154413120487106
20
-12.167330727974285
30
0
11
-84.541912638315821
21
-12.227943984445142
31
0
0
SPLINE
5
257
100
AcDbEntity
8
0
100
AcDbSpline
70
0
71
3
72
20
73
16
74
0
42
0.000000001
43
0.0000000001
44
0.0000000001
40
-0.43515131672200708
40
-0.43515131672200708
40
-0.43515131672200708
40
-0.43515131672200708
40
-0.40912622506964952
40
-0.40912622506964952
40
-0.37874369487480297
40
-0.37874369487480297
40
-0.30948355030273689
40
-0.30948355030273689
40
-0.16343270839484544
40
-0.16343270839484544
40
-0.072131826790470963
40
-0.072131826790470963
40
-0.028543956941739605
40
-0.028543956941739605
40
0
40
0
40
0
40
0
10
-65.99072293422266
20
-8.6109739735747794
30
0
10
-66.089489028771553
20
-8.6226900941540308
30
0
10
-66.185266107441009
20
-8.6524980488375451
30
0
10
-66.382264031885001
20
-8.7391905332194284
30
0
10
-66.484539448344464
20
-8.8010616258428378
30
0
10
-66.794881769038454
20
-9.0192862963319982
30
0
10
-67.013413801949483
20
-9.2249143918894312
30
0
10
-67.683860260951391
20
-9.9306513411411768
30
0
10
-68.151305839159164
20
-10.531633292387802
30
0
10
-68.893158561263817
20
-11.371873470641241
30
0
10
-69.185269165831826
20
-11.675673436894565
30
0
10
-69.603728047369728
20
-11.984385042792754
30
0
10
-69.740351631632748
20
-12.065096678916657
30
0
10
-69.966149570376189
20
-12.146741130447246
30
0
10
-70.059267441696477
20
-12.166929887687656
30
0
10
-70.154413120487106
20
-12.167330727974285
30
0
0
ARC
5
258
100
AcDbEntity
8
0
100
AcDbCircle
10
-72.111087772887259
20
18.752355019067721
30
0
40
27.999999999999972
210
0
220
-0
230
1
100
AcDbArc
50
19.617902577344754
51
51.730432827853967
0
SPLINE
5
259
100
AcDbEntity
8
0
100
AcDbSpline
70
4
71
3
72
8
73
4
74
0
42
0.000000001
43
0.0000000001
44
0.0000000001
40
-1
40
-1
40
-1
40
-1
40
0
40
0
40
0
40
0
41
1
41
1
41
1
41
1
10
-33.805774257654605
20
25.630133247639954
30
0
10
-38.093148059380511
20
29.998590201351945
30
0
10
-38.093148059380511
20
29.998590201351945
30
0
10
-37.901029349079174
20
33.189253989577537
30
0
0
ARC
5
260
100
AcDbEntity
8
0
100
AcDbCircle
10
-8.2804804918229102
20
2.7427908471709204
30
0
40
5.3485786592906805
210
0
220
0
230
1
100
AcDbArc
50
179.49763148153224
51
233.35690678434602
0
SPLINE
5
261
100
AcDbEntity
8
0
100
AcDbSpline
70
4
71
3
72
8
73
4
74
0
42
0.000000001
43
0.0000000001
44
0.0000000001
40
-0.39678298647988453
40
-0.39678298647988453
40
-0.39678298647988453
40
-0.39678298647988453
40
0
40
0
40
0
40
0
41
1
41
1
41
1
41
1
10
-6.1012973031632178
20
-6.0929697290764384
30
0
10
-6.4728966187290204
20
-7.1023763647078315
30
0
10
-7.4476799436489749
20
-8.333397199585109
30
0
10
-9.063654465374622
20
-10.374156673018343
30
0
0
CIRCLE
5
262
100
AcDbEntity
8
0
100
AcDbCircle
10
-108.28145306214039
20
-21.232244122239145
30
0
40
2.000000000000004
210
0
220
0
230
1
0
SPLINE
5
263
100
AcDbEntity
8
0
100
AcDbSpline
70
4
71
3
72
8
73
4
74
0
42
0.000000001
43
0.0000000001
44
0.0000000001
40
-0.98551909510566882
40
-0.98551909510566882
40
-0.98551909510566882
40
-0.98551909510566882
40
0
40
0
40
0
40
0
41
1
41
1
41
1
41
1
10
-4.2318004940823073
20
36.005932657297784
30
0
10
-11.292642360288419
20
30.734367334833191
30
0
10
-11.349984772415631
20
30.820693694263422
30
0
10
-15.309848644569808
20
36.78208630475001
30
0
0
ARC
5
264
100
AcDbEntity
8
0
100
AcDbCircle
10
-72.111087772887259
20
18.752355019067721
30
0
40
27.999999999999975
210
0
220
0
230
1
100
AcDbArc
50
202.78777065789123
51
240.60635073046973
0
SPLINE
5
265
100
AcDbEntity
8
0
100
AcDbSpline
70
4
71
3
72
8
73
4
74
0
42
0.000000001
43
0.0000000001
44
0.0000000001
40
-0.78287683858888024
40
-0.78287683858888024
40
-0.78287683858888024
40
-0.78287683858888024
40
0
40
0
40
0
40
0
41
1
41
1
41
1
41
1
10
-112.21902197768495
20
28.545440265570573
30
0
10
-110.68440665158394
20
29.921745869533538
30
0
10
-109.38476691090878
20
29.850576604488587
30
0
10
-103.39904096518941
20
29.522793678971087
30
0
0
SPLINE
5
266
100
AcDbEntity
8
0
100
AcDbSpline
70
4
71
3
72
8
73
4
74
0
42
0.000000001
43
0.0000000001
44
0.0000000001
40
-1
40
-1
40
-1
40
-1
40
0
40
0
40
0
40
0
41
1
41
1
41
1
41
1
10
-15.309848644569808
20
36.78208630475001
30
0
10
-19.32789750006112
20
42.831073726802359
30
0
10
-19.32789750006112
20
42.831073726802359
30
0
10
-17.826136803108081
20
47.883901023934278
30
0
0
SPLINE
5
267
100
AcDbEntity
8
0
100
AcDbSpline
70
4
71
3
72
8
73
4
74
0
42
0.000000001
43
0.0000000001
44
0.0000000001
40
-1
40
-1
40
-1
40
-1
40
-0.7761301960345246
40
-0.7761301960345246
40
-0.7761301960345246
40
-0.7761301960345246
41
1
41
1
41
1
41
1
10
-17.826136803108081
20
47.883901023934278
30
0
10
-17.489939731023476
20
49.015076322869795
30
0
10
-17.229007031560197
20
49.893015629382049
30
0
10
-16.985866626706958
20
50.587756911333479
30
0
0
SPLINE
5
268
100
AcDbEntity
8
0
100
AcDbSpline
70
4
71
3
72
8
73
4
74
0
42
0.000000001
43
0.0000000001
44
0.0000000001
40
-1
40
-1
40
-1
40
-1
40
0
40
0
40
0
40
0
41
1
41
1
41
1
41
1
10
-45.240324604953706
20
39.592514367573756
30
0
10
-42.701062358299453
20
36.431253289551918
30
0
10
-42.701062358299453
20
36.431253289551918
30
0
10
-42.893181068600761
20
33.240589501326298
30
0
0
ARC
5
269
100
AcDbEntity
8
0
100
AcDbCircle
10
-9.9556138211001866
20
52.359209843041754
30
0
40
7.2499999999999805
210
0
220
0
230
1
100
AcDbArc
50
194.14273479024135
51
307.8483129729799
0
SPLINE
5
270
100
AcDbEntity
8
0
100
AcDbSpline
70
4
71
3
72
8
73
4
74
0
42
0.000000001
43
0.0000000001
44
0.0000000001
40
-1
40
-1
40
-1
40
-1
40
0
40
0
40
0
40
0
41
1
41
1
41
1
41
1
10
-29.808235160349472
20
-15.095960047857124
30
0
10
-25.628948663462818
20
-12.115035983510548
30
0
10
-25.628948663462818
20
-12.115035983510548
30
0
10
-20.156681841121138
20
-15.268301783789511
30
0
0
SPLINE
5
271
100
AcDbEntity
8
0
100
AcDbSpline
70
4
71
3
72
8
73
4
74
0
42
0.000000001
43
0.0000000001
44
0.0000000001
40
-0.6089643837395835
40
-0.6089643837395835
40
-0.6089643837395835
40
-0.6089643837395835
40
-0.10591592475780023
40
-0.10591592475780023
40
-0.10591592475780023
40
-0.10591592475780023
41
1
41
1
41
1
41
1
10
-84.541912638315821
20
-12.227943984445142
30
0
10
-84.660479130199434
20
-11.034931168251161
30
0
10
-84.069399968479843
20
-9.7958689619348931
30
0
10
-82.567969521885075
20
-7.2217402315367885
30
0
0
SPLINE
5
272
100
AcDbEntity
8
0
100
AcDbSpline
70
4
71
3
72
8
73
4
74
0
42
0.000000001
43
0.0000000001
44
0.0000000001
40
-0.87403124081360539
40
-0.87403124081360539
40
-0.87403124081360539
40
-0.87403124081360539
40
0
40
0
40
0
40
0
41
1
41
1
41
1
41
1
10
-85.85368893197969
20
-5.6431550879603751
30
0
10
-88.448221242132163
20
-9.8688010020806729
30
0
10
-89.091621381500232
20
-9.7651504651569638
30
0
10
-94.199238091577001
20
-8.9423231419923326
30
0
0
LINE
5
273
100
AcDbEntity
8
0
100
AcDbLine
10
-65.053895536472396
20
-8.6069494512643807
30
0
11
-65.99072293422266
21
-8.6109739735747794
31
0
0
SPLINE
5
274
100
AcDbEntity
8
0
100
AcDbSpline
70
4
71
3
72
8
73
4
74
0
42
0.000000001
43
0.0000000001
44
0.0000000001
40
-1
40
-1
40
-1
40
-1
40
0
40
0
40
0
40
0
41
1
41
1
41
1
41
1
10
-37.901029349079174
20
33.189253989577537
30
0
10
-37.708910990644895
20
36.379921799661552
30
0
10
-37.708910990644895
20
36.379921799661552
30
0
10
-30.118289722784617
20
38.469167477530981
30
0
0
SPLINE
5
275
100
AcDbEntity
8
0
100
AcDbSpline
70
4
71
3
72
8
73
4
74
0
42
0.000000001
43
0.0000000001
44
0.0000000001
40
-1
40
-1
40
-1
40
-1
40
0
40
0
40
0
40
0
41
1
41
1
41
1
41
1
10
-18.608612347537186
20
-12.364154427303845
30
0
10
-24.080874444286433
20
-9.2108963188747062
30
0
10
-24.080874444286433
20
-9.2108963188747062
30
0
10
-23.878706362692323
20
-4.1690098318967568
30
0
0
SPLINE
5
276
100
AcDbEntity
8
0
100
AcDbSpline
70
4
71
3
72
8
73
4
74
0
42
0.000000001
43
0.0000000001
44
0.0000000001
40
-1
40
-1
40
-1
40
-1
40
-0.677855274059605
40
-0.677855274059605
40
-0.677855274059605
40
-0.677855274059605
41
1
41
1
41
1
41
1
10
-109.37680422497979
20
9.6444094531664533
30
0
10
-110.68446769876476
20
10.20889889247071
30
0
10
-111.57087428116503
20
10.59154103605405
30
0
10
-112.21902197768495
20
11.063935347806183
30
0
0
SPLINE
5
277
100
AcDbEntity
8
0
100
AcDbSpline
70
4
71
3
72
8
73
4
74
0
42
0.000000001
43
0.0000000001
44
0.0000000001
40
-0.94711215939541482
40
-0.94711215939541482
40
-0.94711215939541482
40
-0.94711215939541482
40
0
40
0
40
0
40
0
41
1
41
1
41
1
41
1
10
-54.768948748120422
20
40.735307824495379
30
0
10
-47.772483870155575
20
42.744928996754794
30
0
10
-47.645290421396105
20
42.586579364440723
30
0
10
-45.240324604953706
20
39.592514367573756
30
0
0
ARC
5
278
100
AcDbEntity
8
0
100
AcDbCircle
10
-72.111087772887259
20
18.752355019067721
30
0
40
27.999999999999989
210
0
220
0
230
1
100
AcDbArc
50
248.07083276874619
51
284.55660013550988
0
ARC
5
279
100
AcDbEntity
8
0
100
AcDbCircle
10
-72.111087772887259
20
18.752355019067721
30
0
40
27.999999999999986
210
0
220
0
230
1
100
AcDbArc
50
158.18633347270122
51
194.51988829039658
0
ARC
5
280
100
AcDbEntity
8
0
100
AcDbCircle
10
-72.111087772887259
20
18.752355019067721
30
0
40
28.000000000000011
210
0
220
0
230
1
100
AcDbArc
50
-21.567997951842337
51
12.156079079247487
0
SPLINE
5
281
100
AcDbEntity
8
0
100
AcDbSpline
70
4
71
3
72
8
73
4
74
0
42
0.000000001
43
0.0000000001
44
0.0000000001
40
-0.4561328675011953
40
-0.4561328675011953
40
-0.4561328675011953
40
-0.4561328675011953
40
0
40
0
40
0
40
0
41
1
41
1
41
1
41
1
10
-48.173977894049465
20
4.2260075549442515
30
0
10
-47.982814106641321
20
3.0578394000847409
30
0
10
-48.442910752822932
20
1.9120920078271997
30
0
10
-49.288883268329961
20
-0.19457582295968612
30
0
0
SPLINE
5
282
100
AcDbEntity
8
0
100
AcDbSpline
70
4
71
3
72
8
73
4
74
0
42
0.000000001
43
0.0000000001
44
0.0000000001
40
-0.83372799672281439
40
-0.83372799672281439
40
-0.83372799672281439
40
-0.83372799672281439
40
0
40
0
40
0
40
0
41
1
41
1
41
1
41
1
10
-44.738914938742205
20
24.648468513369867
30
0
10
-40.899954164133362
20
27.296032288103333
30
0
10
-40.305614343453684
20
26.690452773622066
30
0
10
-36.731111065900244
20
23.048351261969863
30
0
0
CIRCLE
5
283
100
AcDbEntity
8
0
100
AcDbCircle
10
-72.111087772887259
20
18.752355019067721
30
0
40
21.999999999999996
210
0
220
0
230
1
0
LINE
5
284
100
AcDbEntity
8
0
100
AcDbLine
10
-90.009266355743947
20
40.285009370451561
30
0
11
-89.926578800309244
21
40.665041507182679
31
0
0
SPLINE
5
285
100
AcDbEntity
8
0
100
AcDbSpline
70
4
71
3
72
8
73
4
74
0
42
0.000000001
43
0.0000000001
44
0.0000000001
40
-1
40
-1
40
-1
40
-1
40
0
40
0
40
0
40
0
41
1
41
1
41
1
41
1
10
-36.731111065900244
20
23.048351261969863
30
0
10
-32.443737967908405
20
18.679902351974714
30
0
10
-32.443737967908405
20
18.679902351974714
30
0
10
-32.944449634431805
20
14.056228442577536
30
0
0
SPLINE
5
286
100
AcDbEntity
8
0
100
AcDbSpline
70
4
71
3
72
8
73
4
74
0
42
0.000000001
43
0.0000000001
44
0.0000000001
40
-1
40
-1
40
-1
40
-1
40
-0.29960714674075528
40
-0.29960714674075528
40
-0.29960714674075528
40
-0.29960714674075528
41
1
41
1
41
1
41
1
10
-39.03453958957823
20
7.9392943051033491
30
0
10
-42.949294563330398
20
6.8934260061922261
30
0
10
-44.122183131205468
20
6.5800763892888572
30
0
10
-46.071593073692469
20
8.4594100658190445
30
0
0
SPLINE
5
287
100
AcDbEntity
8
0
100
AcDbSpline
70
4
71
3
72
8
73
4
74
0
42
0.000000001
43
0.0000000001
44
0.0000000001
40
-1
40
-1
40
-1
40
-1
40
0
40
0
40
0
40
0
41
1
41
1
41
1
41
1
10
-49.288883268329961
20
-0.19457582295968612
30
0
10
-51.14353770517824
20
-4.8131149809280398
30
0
10
-51.14353770517824
20
-4.8131149809280398
30
0
10
-56.190126311946315
20
-5.1801385935097581
30
0
0
SPLINE
5
288
100
AcDbEntity
8
0
100
AcDbSpline
70
4
71
3
72
8
73
4
74
0
42
0.000000001
43
0.0000000001
44
0.0000000001
40
-1
40
-1
40
-1
40
-1
40
-0.70689739085890047
40
-0.70689739085890047
40
-0.70689739085890047
40
-0.70689739085890047
41
1
41
1
41
1
41
1
10
-89.926578800309244
20
40.665041507182679
30
0
10
-89.427019023414204
20
42.960715316056238
30
0
10
-89.073881520549051
20
44.583521141812071
30
0
10
-88.682184694316661
20
45.77920701222218
30
0
0
SPLINE
5
289
100
AcDbEntity
8
0
100
AcDbSpline
70
4
71
3
72
8
73
4
74
0
42
0.000000001
43
0.0000000001
44
0.0000000001
40
-1
40
-1
40
-1
40
-1
40
0
40
0
40
0
40
0
41
1
41
1
41
1
41
1
10
-32.944449634431805
20
14.056228442577536
30
0
10
-33.445162004689209
20
9.4325625768972312
30
0
10
-33.445162004689209
20
9.4325625768972312
30
0
10
-39.03453958957823
20
7.9392943051033491
30
0
0
ARC
5
290
100
AcDbEntity
8
0
100
AcDbCircle
10
-72.111087772887259
20
18.752355019067721
30
0
40
27.999999999999957
210
0
220
0
230
1
100
AcDbArc
50
92.722400629363676
51
129.73373087133226
0
SPLINE
5
291
100
AcDbEntity
8
0
100
AcDbSpline
70
4
71
3
72
8
73
4
74
0
42
0.000000001
43
0.0000000001
44
0.0000000001
40
-1
40
-1
40
-1
40
-1
40
-0.040497932061356608
40
-0.040497932061356608
40
-0.040497932061356608
40
-0.040497932061356608
41
1
41
1
41
1
41
1
10
-82.580265056998755
20
50.424618347342431
30
0
10
-77.166830761478394
20
52.273823347643109
30
0
10
-76.9475978671598
20
52.348712326112796
30
0
10
-73.441003151754117
20
46.720753705532623
30
0
0
SPLINE
5
292
100
AcDbEntity
8
0
100
AcDbSpline
70
4
71
3
72
8
73
4
74
0
42
0.000000001
43
0.0000000001
44
0.0000000001
40
-0.65641727596743471
40
-0.65641727596743471
40
-0.65641727596743471
40
-0.65641727596743471
40
0
40
0
40
0
40
0
41
1
41
1
41
1
41
1
10
-88.47542641583513
20
46.36024200516286
30
0
10
-87.55616899614796
20
48.724873567168679
30
0
10
-86.283724360356544
20
49.159534516052759
30
0
10
-82.580265056998755
20
50.424618347342431
30
0
0
SPLINE
5
293
100
AcDbEntity
8
0
100
AcDbSpline
70
4
71
3
72
8
73
4
74
0
42
0.000000001
43
0.0000000001
44
0.0000000001
40
-1
40
-1
40
-1
40
-1
40
-0.88429444284185466
40
-0.88429444284185466
40
-0.88429444284185466
40
-0.88429444284185466
41
1
41
1
41
1
41
1
10
-56.190126311946315
20
-5.1801385935097581
30
0
10
-56.774044577014429
20
-5.2226061957964598
30
0
10
-57.290400253888009
20
-5.260160060499409
30
0
10
-57.753060959075661
20
-5.2860947232485964
30
0
0
ARC
5
294
100
AcDbEntity
8
0
100
AcDbCircle
10
-93.280481758421615
20
47.742791517723198
30
0
40
4.9999999999999938
210
0
220
0
230
1
100
AcDbArc
50
336.87634109889052
51
343.94798528018868
0
ARC
5
295
100
AcDbEntity
8
0
100
AcDbCircle
10
-72.111087772887259
20
18.752355019067721
30
0
40
28.000000000000004
210
0
220
0
230
1
100
AcDbArc
50
300.84962748027806
51
328.74833350762759
0
SPLINE
5
296
100
AcDbEntity
8
0
100
AcDbSpline
70
4
71
3
72
8
73
4
74
0
42
0.000000001
43
0.0000000001
44
0.0000000001
40
-0.9844048140468632
40
-0.9844048140468632
40
-0.9844048140468632
40
-0.9844048140468632
40
0
40
0
40
0
40
0
41
1
41
1
41
1
41
1
10
-99.216786563993395
20
11.732305657002954
30
0
10
-105.3185485449801
20
7.8925423726489399
30
0
10
-105.38086594550578
20
7.9194435368763081
30
0
10
-109.37680422497979
20
9.6444094531664533
30
0
0
CIRCLE
5
297
100
AcDbEntity
8
0
100
AcDbCircle
10
-107.3442675587969
20
41.798826228108595
30
0
40
5.25
210
0
220
-0
230
1
0
CIRCLE
5
298
100
AcDbEntity
8
0
100
AcDbCircle
10
-107.94941244060297
20
-9.9320601802617361
30
0
40
5.25
210
0
220
-0
230
1
0
CIRCLE
5
299
100
AcDbEntity
8
0
100
AcDbCircle
10
0.63181051992837434
20
-42.199600666849477
30
0
40
5.25
210
0
220
-0
230
1
0
CIRCLE
5
300
100
AcDbEntity
8
0
100
AcDbCircle
10
-35.278743290190619
20
-9.2467997151922514
30
0
40
5.25
210
0
220
-0
230
1
0
CIRCLE
5
301
100
AcDbEntity
8
0
100
AcDbCircle
10
-9.9866000656191964
20
52.386251700424971
30
0
40
5.25
210
0
220
-0
230
1
0
ENDSEC
0
SECTION
2
OBJECTS
0
DICTIONARY
5
C
100
AcDbDictionary
3
ACAD_GROUP
350
D
3
ACAD_MLINESTYLE
350
17
0
DICTIONARY
5
D
100
AcDbDictionary
0
DICTIONARY
5
1A
330
C
100
AcDbDictionary
0
DICTIONARY
5
17
100
AcDbDictionary
0
ENDSEC
0
EOF
