0
SECTION
2
HEADER
9
$INSUNITS
70
4
9
$ACADVER
1
AC1014
9
$HANDSEED
5
FFFF
0
ENDSEC
0
SECTION
2
TABLES
0
TABLE
2
VPORT
5
8
100
AcDbSymbolTable
0
ENDTAB
0
TABLE
2
LTYPE
5
5
100
AcDbSymbolTable
0
LTYPE
5
14
100
AcDbSymbolTableRecord
100
AcDbLinetypeTableRecord
2
BYBLOCK
70
0
0
LTYPE
5
15
100
AcDbSymbolTableRecord
100
AcDbLinetypeTableRecord
2
BYLAYER
70
0
0
ENDTAB
0
TABLE
2
LAYER
5
2
100
AcDbSymbolTable
70
2
0
LAYER
5
50
100
AcDbSymbolTableRecord
100
AcDbLayerTableRecord
2
0
70
0
6
CONTINUOUS
0
ENDTAB
0
TABLE
2
STYLE
5
3
100
AcDbSymbolTable
70
1
0
STYLE
5
11
100
AcDbSymbolTableRecord
100
AcDbTextStyleTableRecord
2
STANDARD
70
0
0
ENDTAB
0
TABLE
2
VIEW
5
6
100
AcDbSymbolTable
70
0
0
ENDTAB
0
TABLE
2
UCS
5
7
100
AcDbSymbolTable
70
0
0
ENDTAB
0
TABLE
2
APPID
5
9
100
AcDbSymbolTable
70
2
0
APPID
5
12
100
AcDbSymbolTableRecord
100
AcDbRegAppTableRecord
2
ACAD
70
0
0
ENDTAB
0
TABLE
2
DIMSTYLE
5
A
100
AcDbSymbolTable
70
1
0
ENDTAB
0
TABLE
2
BLOCK_RECORD
5
1
100
AcDbSymbolTable
70
1
0
BLOCK_RECORD
5
1F
100
AcDbSymbolTableRecord
100
AcDbBlockTableRecord
2
*MODEL_SPACE
0
BLOCK_RECORD
5
1B
100
AcDbSymbolTableRecord
100
AcDbBlockTableRecord
2
*PAPER_SPACE
0
ENDTAB
0
ENDSEC
0
SECTION
2
BLOCKS
0
BLOCK
5
20
100
AcDbEntity
100
AcDbBlockBegin
2
*MODEL_SPACE
0
ENDBLK
5
21
100
AcDbEntity
100
AcDbBlockEnd
0
BLOCK
5
1C
100
AcDbEntity
100
AcDbBlockBegin
2
*PAPER_SPACE
0
ENDBLK
5
1D
100
AcDbEntity
100
AcDbBlockEnd
0
ENDSEC
0
SECTION
2
ENTITIES
0
CIRCLE
5
100
100
AcDbEntity
8
0
100
AcDbCircle
10
16.950000134110446
20
54.400000789761549
30
0
40
2.0000000000000018
210
0
220
0
230
1
0
SPLINE
5
101
100
AcDbEntity
8
0
100
AcDbSpline
70
4
71
5
72
14
73
8
74
0
42
0.000000001
43
0.0000000001
44
0.0000000001
40
0.78286394046103225
40
0.78286394046103225
40
0.78286394046103225
40
0.78286394046103225
40
0.78286394046103225
40
0.78286394046103225
40
0.79999999999999982
40
0.8999999999999998
40
1
40
1
40
1
40
1
40
1
40
1
41
1
41
1
41
1
41
1
41
1
41
1
41
1
41
1
10
27.49823190188371
20
-12.755097529601073
30
0
10
27.535874984713438
20
-12.746170991107435
30
0
10
27.795243889411569
20
-12.688327617522862
30
0
10
28.302062515645513
20
-12.619824363070213
30
0
10
28.856887506159552
20
-12.603764529816079
30
0
10
29.457262808274329
20
-12.604142753820184
30
0
10
30.047366779384909
20
-12.604263301391965
30
0
10
30.351695812835004
20
-12.604263301391965
30
0
0
LINE
5
102
100
AcDbEntity
8
0
100
AcDbLine
10
-1.2032567165823522
20
-22.560330579485772
30
0
11
18.049999774247404
21
-22.560330579485772
31
0
0
SPLINE
5
103
100
AcDbEntity
8
0
100
AcDbSpline
70
4
71
5
72
15
73
9
74
0
42
0.000000001
43
0.0000000001
44
0.0000000001
40
0.26608528691014482
40
0.26608528691014482
40
0.26608528691014482
40
0.26608528691014482
40
0.26608528691014482
40
0.26608528691014482
40
0.40000000000000002
40
0.60000000000000009
40
0.80000000000000004
40
1
40
1
40
1
40
1
40
1
40
1
41
1
41
1
41
1
41
1
41
1
41
1
41
1
41
1
41
1
10
-4.7826972670025656
20
-18.560330579485761
30
0
10
-4.7408780869498237
20
-18.78421409605302
30
0
10
-4.6228136339396482
20
-19.338951309297158
30
0
10
-4.3771310636704719
20
-20.204593367163675
30
0
10
-3.8984871600064244
20
-21.299011746265528
30
0
10
-3.1547619691447712
20
-22.117740599803067
30
0
10
-2.2927459060674988
20
-22.479818831329425
30
0
10
-1.588100324519202
20
-22.560330579485772
30
0
10
-1.203256716582352
20
-22.560330579485772
30
0
0
CIRCLE
5
104
100
AcDbEntity
8
0
100
AcDbCircle
10
101.95000140070916
20
9.4000001192092881
30
0
40
2.0000000000000107
210
0
220
0
230
1
0
SPLINE
5
105
100
AcDbEntity
8
0
100
AcDbSpline
70
4
71
5
72
16
73
10
74
0
42
0.000000001
43
0.0000000001
44
0.0000000001
40
0
40
0
40
0
40
0
40
0
40
0
40
0.10000000000000001
40
0.20000000000000001
40
0.30000000000000004
40
0.40000000000000002
40
0.42923658134149584
40
0.42923658134149584
40
0.42923658134149584
40
0.42923658134149584
40
0.42923658134149584
40
0.42923658134149584
41
1
41
1
41
1
41
1
41
1
41
1
41
1
41
1
41
1
41
1
10
18.049999774247397
20
-22.560330579485772
30
0
10
18.619717957222743
20
-22.560330579485772
30
0
10
19.683048699581359
20
-22.468216270644888
30
0
10
21.049742863439377
20
-22.053723028580258
30
0
10
22.443450592942213
20
-21.000477628432979
30
0
10
23.45851685099187
20
-19.401132858173291
30
0
10
24.039877115651841
20
-18.073864154864324
30
0
10
24.389784455872761
20
-17.173093094743436
30
0
10
24.576404661782412
20
-16.683919526083201
30
0
10
24.618154805362114
20
-16.574334880026772
30
0
0
CIRCLE
5
106
100
AcDbEntity
8
0
100
AcDbCircle
10
59.552859486244927
20
-12.604263301391965
30
0
40
2.0000000000000018
210
0
220
0
230
1
0
LINE
5
107
100
AcDbEntity
8
0
100
AcDbLine
10
30.351695812835004
20
-12.604263301391965
30
0
11
42.311727924017219
21
-12.60426330139197
31
0
0
SPLINE
5
108
100
AcDbEntity
8
0
100
AcDbSpline
70
0
71
3
72
12
73
8
74
0
42
0.000000001
43
0.0000000001
44
0.0000000001
40
0.44337904176387999
40
0.44337904176387999
40
0.44337904176387999
40
0.44337904176387999
40
0.53432795348615725
40
0.53432795348615725
40
0.99607788951289844
40
0.99607788951289844
40
1.2332527483444451
40
1.2332527483444451
40
1.2332527483444451
40
1.2332527483444451
10
47.01672127223064
20
-13.282558455821739
30
0
10
47.341516337337097
20
-13.382754020484068
30
0
10
47.663755159827225
20
-13.495577630241741
30
0
10
49.594576786057978
20
-14.263790614322877
30
0
10
50.711564683180008
20
-15.10110200552765
30
0
10
51.936859724135829
20
-16.2966253375821
30
0
10
52.305998647459184
20
-16.724791334463735
30
0
10
52.639604510141012
20
-17.168491434889106
30
0
0
SPLINE
5
109
100
AcDbEntity
8
0
100
AcDbSpline
70
0
71
3
72
14
73
10
74
0
42
0.000000001
43
0.0000000001
44
0.0000000001
40
0
40
0
40
0
40
0
40
0.55191327279139102
40
0.55191327279139102
40
0.81549283151372065
40
0.81549283151372065
40
0.93398904783712999
40
0.93398904783712999
40
1.0511542680362436
40
1.0511542680362436
40
1.0511542680362436
40
1.0511542680362436
10
99.881997074058987
20
-45.729834576059361
30
0
10
101.40100181850121
20
-46.767698158702373
30
0
10
103.27509629787937
20
-47.843018732289892
30
0
10
105.8086988774979
20
-48.886031959026624
30
0
10
106.7013585123598
20
-49.184813088160965
30
0
10
107.97358373814106
20
-49.403809104376478
30
0
10
108.37561476024297
20
-49.443876126321591
30
0
10
109.17241125085161
20
-49.440408222275849
30
0
10
109.56536292611587
20
-49.397852416033686
30
0
10
109.95000151991846
20
-49.302366539387776
30
0
0
SPLINE
5
110
100
AcDbEntity
8
0
100
AcDbSpline
70
0
71
3
72
10
73
6
74
0
42
0.000000001
43
0.0000000001
44
0.0000000001
40
0
40
0
40
0
40
0
40
0.21332473067263288
40
0.21332473067263288
40
0.4000142198712085
40
0.4000142198712085
40
0.4000142198712085
40
0.4000142198712085
10
81.689279861137223
20
-32.198805755439786
30
0
10
82.335837117710355
20
-32.494782011508548
30
0
10
82.945072203946467
20
-32.873012694201506
30
0
10
84.26097125439793
20
-33.8775295931461
30
0
10
84.917769082772196
20
-34.448676616509402
30
0
10
85.471891750570393
20
-34.958718639611781
30
0
0
SPLINE
5
111
100
AcDbEntity
8
0
100
AcDbSpline
70
4
71
5
72
14
73
8
74
0
42
0.000000001
43
0.0000000001
44
0.0000000001
40
-0.29134070401662293
40
-0.29134070401662293
40
-0.29134070401662293
40
-0.29134070401662293
40
-0.29134070401662293
40
-0.29134070401662293
40
-0.20000000000000001
40
-0.10000000000000001
40
0
40
0
40
0
40
0
40
0
40
0
41
1
41
1
41
1
41
1
41
1
41
1
41
1
41
1
10
55.703162951844611
20
-22.941636819363509
30
0
10
55.921756307870503
20
-23.38872856499993
30
0
10
56.392717692908548
20
-24.304933979659125
30
0
10
57.17682933491264
20
-25.60482609337248
30
0
10
58.145580332575605
20
-26.663367895133252
30
0
10
59.402950800539941
20
-27.361483484944308
30
0
10
60.417633333258777
20
-27.65333341980304
30
0
10
60.962857274071553
20
-27.752406972551128
30
0
0
SPLINE
5
112
100
AcDbEntity
8
0
100
AcDbSpline
70
0
71
3
72
14
73
10
74
0
42
0.000000001
43
0.0000000001
44
0.0000000001
40
0.96846350524240821
40
0.96846350524240821
40
0.96846350524240821
40
0.96846350524240821
40
1.067422267477308
40
1.067422267477308
40
1.3280441852475546
40
1.3280441852475546
40
1.5017216393733772
40
1.5017216393733772
40
1.6494483676284202
40
1.6494483676284202
40
1.6494483676284202
40
1.6494483676284202
10
24.618154805362114
20
-16.574334880026772
30
0
10
24.730268364936322
20
-16.28006224547606
30
0
10
24.839368437141125
20
-15.992406245023227
30
0
10
25.236762977414777
20
-14.989162435086525
30
0
10
25.521186218276934
20
-14.35503754964342
30
0
10
26.110561037943533
20
-13.533368750943847
30
0
10
26.368080458978753
20
-13.2795374493293
30
0
10
26.928544652890611
20
-12.929394081921973
30
0
10
27.20437268505254
20
-12.82478219444693
30
0
10
27.49823190188371
20
-12.755097529601073
30
0
0
CIRCLE
5
113
100
AcDbEntity
8
0
100
AcDbCircle
10
1.9490288303916943
20
-14.575034850200751
30
0
40
2.0000000000000018
210
0
220
0
230
1
0
LINE
5
114
100
AcDbEntity
8
0
100
AcDbLine
10
60.962857274071553
20
-27.752406972551128
30
0
11
76.572496606925455
21
-30.588860602075766
31
0
0
SPLINE
5
115
100
AcDbEntity
8
0
100
AcDbSpline
70
4
71
5
72
15
73
9
74
0
42
0.000000001
43
0.0000000001
44
0.0000000001
40
-0.53122757123177677
40
-0.53122757123177677
40
-0.53122757123177677
40
-0.53122757123177677
40
-0.53122757123177677
40
-0.53122757123177677
40
-0.5
40
-0.40000000000000002
40
-0.30000000000000004
40
-0.2913407040166241
40
-0.2913407040166241
40
-0.2913407040166241
40
-0.2913407040166241
40
-0.2913407040166241
40
-0.2913407040166241
41
1
41
1
41
1
41
1
41
1
41
1
41
1
41
1
41
1
10
52.639604510141012
20
-17.168491434889106
30
0
10
52.737631978626368
20
-17.298869232394637
30
0
10
53.142138917671872
20
-17.855865613822559
30
0
10
53.80075306777897
20
-18.902610747220486
30
0
10
54.395008820120481
20
-20.088452859393009
30
0
10
54.9410488602689
20
-21.317595917885477
30
0
10
55.42310288058416
20
-22.366292991615747
30
0
10
55.682439829659302
20
-22.899251556419969
30
0
10
55.703162951844604
20
-22.941636819363481
30
0
0
SPLINE
5
116
100
AcDbEntity
8
0
100
AcDbSpline
70
0
71
3
72
8
73
4
74
0
42
0.000000001
43
0.0000000001
44
0.0000000001
40
0.42785837538585508
40
0.42785837538585508
40
0.42785837538585508
40
0.42785837538585508
40
0.53949205568197889
40
0.53949205568197889
40
0.53949205568197889
40
0.53949205568197889
10
80.665905868629096
20
-31.760827855877693
30
0
10
81.010062676818222
20
-31.897915783347095
30
0
10
81.350937912227707
20
-32.04392205056886
30
0
10
81.689279861137209
20
-32.198805755439786
30
0
0
SPLINE
5
117
100
AcDbEntity
8
0
100
AcDbSpline
70
4
71
5
72
13
73
7
74
0
42
0.000000001
43
0.0000000001
44
0.0000000001
40
-1
40
-1
40
-1
40
-1
40
-1
40
-1
40
-0.8999999999999998
40
-0.80760799617796097
40
-0.80760799617796097
40
-0.80760799617796097
40
-0.80760799617796097
40
-0.80760799617796097
40
-0.80760799617796097
41
1
41
1
41
1
41
1
41
1
41
1
41
1
10
42.311727924017219
20
-12.604263301391965
30
0
10
42.80160455160803
20
-12.604263301391965
30
0
10
43.746846733776536
20
-12.637752097357687
30
0
10
44.697388547876074
20
-12.735674183133774
30
0
10
45.645573328115574
20
-12.902443198784447
30
0
10
46.57588663670478
20
-13.146566010201447
30
0
10
47.01672127223064
20
-13.282558455821739
30
0
0
SPLINE
5
118
100
AcDbEntity
8
0
100
AcDbSpline
70
0
71
3
72
10
73
6
74
0
42
0.000000001
43
0.0000000001
44
0.0000000001
40
-0.53948561234994485
40
-0.53948561234994485
40
-0.53948561234994485
40
-0.53948561234994485
40
-0.26978069817554573
40
-0.26978069817554573
40
-0.11163241270065688
40
-0.11163241270065688
40
-0.11163241270065688
40
-0.11163241270065688
10
76.572496606925455
20
-30.588860602075766
30
0
10
77.457038921139784
20
-30.749592263078366
30
0
10
78.32375662999678
20
-30.96205432824128
30
0
10
79.684194877434678
20
-31.390306363923571
30
0
10
80.178343366634394
20
-31.566617160869406
30
0
10
80.665905868629096
20
-31.760827855877693
30
0
0
SPLINE
5
119
100
AcDbEntity
8
0
100
AcDbSpline
70
0
71
3
72
8
73
4
74
0
42
0.000000001
43
0.0000000001
44
0.0000000001
40
-1.2706133356394429
40
-1.2706133356394429
40
-1.2706133356394429
40
-1.2706133356394429
40
-0.76261848223982831
40
-0.76261848223982831
40
-0.76261848223982831
40
-0.76261848223982831
10
85.694194277357951
20
-35.16205705690026
30
0
10
87.42019952268484
20
-36.731034756306208
30
0
10
89.31686775330887
20
-38.225622076293618
30
0
10
91.170572508459387
20
-39.603162637749342
30
0
0
SPLINE
5
120
100
AcDbEntity
8
0
100
AcDbSpline
70
0
71
3
72
10
73
6
74
0
42
0.000000001
43
0.0000000001
44
0.0000000001
40
0.69701308695150432
40
0.69701308695150432
40
0.69701308695150432
40
0.69701308695150432
40
0.83585578539342775
40
0.83585578539342775
40
1.5894000839504776
40
1.5894000839504776
40
1.5894000839504776
40
1.5894000839504776
10
91.170572508459387
20
-39.603162637749321
30
0
10
91.58722715894676
20
-39.912790519616756
30
0
10
92.011594043133471
20
-40.223906625293822
30
0
10
94.789144836223485
20
-42.237741688404981
30
0
10
98.017432948103206
20
-44.45586672907757
30
0
10
99.881997074059029
20
-45.729834576059361
30
0
0
SPLINE
5
121
100
AcDbEntity
8
0
100
AcDbSpline
70
0
71
3
72
10
73
6
74
0
42
0.000000001
43
0.0000000001
44
0.0000000001
40
-0.50201653707816263
40
-0.50201653707816263
40
-0.50201653707816263
40
-0.50201653707816263
40
-0.37956249519858998
40
-0.37956249519858998
40
-0.34354793774020559
40
-0.34354793774020559
40
-0.34354793774020559
40
-0.34354793774020559
10
121.22403343357588
20
-36.333677715312511
30
0
10
121.58091738032921
20
-35.87394836853489
30
0
10
121.89883362260949
20
-35.387261626604662
30
0
10
122.24026164558506
20
-34.715663118382416
30
0
10
122.31266605769792
20
-34.56125162591421
30
0
10
122.37974279477585
20
-34.404932748338325
30
0
0
LINE
5
122
100
AcDbEntity
8
0
100
AcDbLine
10
112.5442012874428
20
-47.514829456608268
30
0
11
121.22403343357588
21
-36.333677715312511
31
0
0
SPLINE
5
123
100
AcDbEntity
8
0
100
AcDbSpline
70
0
71
3
72
8
73
4
74
0
42
0.000000001
43
0.0000000001
44
0.0000000001
40
0
40
0
40
0
40
0
40
0.099596496296650225
40
0.099596496296650225
40
0.099596496296650225
40
0.099596496296650225
10
109.95000151992001
20
-49.302366539387364
30
0
10
110.27220986457152
20
-49.222378865899969
30
0
10
110.57734376278701
20
-49.108067269324508
30
0
10
110.86705629009897
20
-48.959355757931924
30
0
0
SPLINE
5
124
100
AcDbEntity
8
0
100
AcDbSpline
70
0
71
3
72
10
73
6
74
0
42
0.000000001
43
0.0000000001
44
0.0000000001
40
-0.22412674998016135
40
-0.22412674998016135
40
-0.22412674998016135
40
-0.22412674998016135
40
-0.16155381936618521
40
-0.16155381936618521
40
0
40
0
40
0
40
0
10
110.86705629009897
20
-48.959355757931924
30
0
10
111.0492488576993
20
-48.865835010507851
30
0
10
111.22533678663684
20
-48.758709623543339
30
0
10
111.83566241133646
20
-48.326203673203935
30
0
10
112.21398054638682
20
-47.940211900843046
30
0
10
112.54420128744277
20
-47.514829456608268
30
0
0
SPLINE
5
125
100
AcDbEntity
8
0
100
AcDbSpline
70
0
71
3
72
8
73
4
74
0
42
0.000000001
43
0.0000000001
44
0.0000000001
40
0
40
0
40
0
40
0
40
0.030070751561416018
40
0.030070751561416018
40
0.030070751561416018
40
0.030070751561416018
10
85.47189175062698
20
-34.958718639550284
30
0
10
85.54564188661351
20
-35.026601927400797
30
0
10
85.619742614205293
20
-35.094378815778732
30
0
10
85.694194277357951
20
-35.16205705690026
30
0
0
LINE
5
126
100
AcDbEntity
8
0
100
AcDbLine
10
122.877308568437
20
-30.136136865095331
30
0
11
122.87279963747685
21
-30.10748046492975
31
0
0
LINE
5
127
100
AcDbEntity
8
0
100
AcDbLine
10
118.91135150937764
20
-23.146464239728569
30
0
11
113.70924584845852
21
-18.366013139087226
31
0
0
SPLINE
5
128
100
AcDbEntity
8
0
100
AcDbSpline
70
4
71
5
72
12
73
6
74
0
42
0.000000001
43
0.0000000001
44
0.0000000001
40
0.89014651333658024
40
0.89014651333658024
40
0.89014651333658024
40
0.89014651333658024
40
0.89014651333658024
40
0.89014651333658024
40
1
40
1
40
1
40
1
40
1
40
1
41
1
41
1
41
1
41
1
41
1
41
1
10
109.12165204506748
20
-3.0368952801940479
30
0
10
109.142917877836
20
-2.6069674356304322
30
0
10
109.16865099123532
20
-2.1738709547275823
30
0
10
109.19873190348865
20
-1.7375546266650472
30
0
10
109.23311358444396
20
-1.2979789643522328
30
0
10
109.27179700736134
20
-0.8551426000506801
30
0
0
SPLINE
5
129
100
AcDbEntity
8
0
100
AcDbSpline
70
0
71
3
72
10
73
6
74
0
42
0.000000001
43
0.0000000001
44
0.0000000001
40
0.48582433754817811
40
0.48582433754817811
40
0.48582433754817811
40
0.48582433754817811
40
0.54160639714488679
40
0.54160639714488679
40
0.98971876272377435
40
0.98971876272377435
40
0.98971876272377435
40
0.98971876272377435
10
110.8226941804996
20
-14.629437605646631
30
0
10
110.73887615135773
20
-14.465795000361904
30
0
10
110.65814176496544
20
-14.299390639544413
30
0
10
109.95671765121853
20
-12.770073059275347
30
0
10
109.55292074518957
20
-11.271592473666004
30
0
10
109.3180541245998
20
-9.571894085811028
30
0
0
SPLINE
5
130
100
AcDbEntity
8
0
100
AcDbSpline
70
4
71
5
72
14
73
8
74
0
42
0.000000001
43
0.0000000001
44
0.0000000001
40
0.54055614181608258
40
0.54055614181608258
40
0.54055614181608258
40
0.54055614181608258
40
0.54055614181608258
40
0.54055614181608258
40
0.60000000000000009
40
0.80000000000000004
40
0.8901465133365275
40
0.8901465133365275
40
0.8901465133365275
40
0.8901465133365275
40
0.8901465133365275
40
0.8901465133365275
41
1
41
1
41
1
41
1
41
1
41
1
41
1
41
1
10
109.3180541245998
20
-9.571894085811028
30
0
10
109.28874426908041
20
-9.359782573117112
30
0
10
109.17150995099081
20
-8.4302215754193135
30
0
10
109.07346370335469
20
-7.1555616126869364
30
0
10
109.04007961152097
20
-5.8519794784571975
30
0
10
109.0577159277191
20
-4.5183605114419469
30
0
10
109.1042011590236
20
-3.3896969740770766
30
0
10
109.12165204506741
20
-3.0368952801950799
30
0
0
SPLINE
5
131
100
AcDbEntity
8
0
100
AcDbSpline
70
0
71
3
72
12
73
8
74
0
42
0.000000001
43
0.0000000001
44
0.0000000001
40
0.22865944344240785
40
0.22865944344240785
40
0.22865944344240785
40
0.22865944344240785
40
0.3313885762549808
40
0.3313885762549808
40
0.51416779891658437
40
0.51416779891658437
40
0.66667402751605764
40
0.66667402751605764
40
0.66667402751605764
40
0.66667402751605764
10
122.37974279477581
20
-34.404932748338325
30
0
10
122.51236380636581
20
-34.095866318189195
30
0
10
122.62522376045679
20
-33.776871709148324
30
0
10
122.87799816826328
20
-32.859555896359176
30
0
10
122.96378115969284
20
-32.261163325674943
30
0
10
122.99189812373569
20
-31.144971695228385
30
0
10
122.95541639422805
20
-30.637692609569992
30
0
10
122.877308568437
20
-30.136136865095331
30
0
0
SPLINE
5
132
100
AcDbEntity
8
0
100
AcDbSpline
70
4
71
5
72
13
73
7
74
0
42
0.000000001
43
0.0000000001
44
0.0000000001
40
0
40
0
40
0
40
0
40
0
40
0
40
0.20000000000000001
40
0.24395833588782245
40
0.24395833588782245
40
0.24395833588782245
40
0.24395833588782245
40
0.24395833588782245
40
0.24395833588782245
41
1
41
1
41
1
41
1
41
1
41
1
41
1
10
113.70924584845852
20
-18.366013139087226
30
0
10
113.08253622959073
20
-17.79010121369015
30
0
10
112.39814534144639
20
-17.068594470417761
30
0
10
111.81132831329361
20
-16.323914047595093
30
0
10
111.31386530733587
20
-15.557687818216797
30
0
10
110.8955588257764
20
-14.771695309726747
30
0
10
110.82269418049964
20
-14.629437605646633
30
0
0
LINE
5
133
100
AcDbEntity
8
0
100
AcDbLine
10
109.27179700736134
20
-0.8551426000506801
30
0
11
110.75767421611437
21
16.154739444979779
31
0
0
SPLINE
5
134
100
AcDbEntity
8
0
100
AcDbSpline
70
0
71
3
72
8
73
4
74
0
42
0.000000001
43
0.0000000001
44
0.0000000001
40
0
40
0
40
0
40
0
40
0.063565145175549884
40
0.063565145175549884
40
0.063565145175549884
40
0.063565145175549884
10
110.75767421611437
20
16.154739444979779
30
0
10
110.77611284896048
20
16.36581945074057
30
0
10
110.79411623765394
20
16.576926732193645
30
0
10
110.81167227388887
20
16.788069678643257
30
0
0
SPLINE
5
135
100
AcDbEntity
8
0
100
AcDbSpline
70
0
71
3
72
10
73
6
74
0
42
0.000000001
43
0.0000000001
44
0.0000000001
40
0.41113146384051891
40
0.41113146384051891
40
0.41113146384051891
40
0.41113146384051891
40
0.87567025062645065
40
0.87567025062645065
40
1.7439688784429419
40
1.7439688784429419
40
1.7439688784429419
40
1.7439688784429419
10
111.1944053641144
20
23.209375413654186
30
0
10
111.24718036317972
20
24.75129236634071
30
0
10
111.269864982385
20
26.293741417353431
30
0
10
111.2377261000865
20
30.735652839239091
30
0
10
111.09799137720572
20
33.717540174741828
30
0
10
110.74601011506132
20
36.67430396192308
30
0
0
LINE
5
136
100
AcDbEntity
8
0
100
AcDbLine
10
110.74601011506132
20
36.67430396192308
30
0
11
110.73879677512566
21
36.734655955741779
31
0
0
SPLINE
5
137
100
AcDbEntity
8
0
100
AcDbSpline
70
0
71
3
72
8
73
4
74
0
42
0.000000001
43
0.0000000001
44
0.0000000001
40
1.1617850948689783
40
1.1617850948689783
40
1.1617850948689783
40
1.1617850948689783
40
1.2026561548999708
40
1.2026561548999708
40
1.2026561548999708
40
1.2026561548999708
10
99.350116324752207
20
68.031034680731452
30
0
10
99.245681310158631
20
68.037069396804782
30
0
10
99.148138586647931
20
68.041838419141257
30
0
10
99.058555279012083
20
68.045672404905901
30
0
0
LINE
5
138
100
AcDbEntity
8
0
100
AcDbLine
10
98.022335027421917
20
68.066255363326476
30
0
11
67.058173770916312
21
68.066255363326476
31
0
0
SPLINE
5
139
100
AcDbEntity
8
0
100
AcDbSpline
70
0
71
3
72
20
73
16
74
0
42
0.000000001
43
0.0000000001
44
0.0000000001
40
-1
40
-1
40
-1
40
-1
40
-0.99032961220498295
40
-0.99032961220498295
40
-0.99032961220498295
40
-0.80778318786144321
40
-0.80778318786144321
40
-0.80778318786144321
40
-0.61976440982799463
40
-0.61976440982799463
40
-0.61976440982799463
40
-0.36291265934012851
40
-0.36291265934012851
40
-0.36291265934012851
40
-0.15125806560064206
40
-0.15125806560064206
40
-0.15125806560064206
40
-0.15125806560064206
10
107.73879673042219
20
61.734656328270887
30
0
10
107.73236309375369
20
61.788269967175196
30
0
10
107.72535240222906
20
61.842044611941915
30
0
10
107.71773868251708
20
61.895965774327486
30
0
10
107.57401566552613
20
62.913827270534298
30
0
10
107.17768839327496
20
64.007909761929071
30
0
10
106.53619471604442
20
64.893945113808101
30
0
10
105.87547042224996
20
65.806541921736937
30
0
10
105.0192808387264
20
66.449498767945485
30
0
10
104.23695173264596
20
66.862335562459734
30
0
10
103.16821486255192
20
67.426310365646245
30
0
10
102.21394977515996
20
67.647423004044981
30
0
10
101.35177770611401
20
67.799328140391481
30
0
10
100.6413185456806
20
67.924503148384588
30
0
10
99.983022428123917
20
67.994462572710077
30
0
10
99.350116324752207
20
68.031034680731452
30
0
0
SPLINE
5
140
100
AcDbEntity
8
0
100
AcDbSpline
70
0
71
3
72
8
73
4
74
0
42
0.000000001
43
0.0000000001
44
0.0000000001
40
0.14534287605048807
40
0.14534287605048807
40
0.14534287605048807
40
0.14534287605048807
40
0.34645100138415785
40
0.34645100138415785
40
0.34645100138415785
40
0.34645100138415785
10
110.98618936160904
20
19.113103776760887
30
0
10
111.07720036203871
20
20.477241569374797
30
0
10
111.14759227112404
20
21.841646319046568
30
0
10
111.1944053641144
20
23.209375413654186
30
0
0
SPLINE
5
141
100
AcDbEntity
8
0
100
AcDbSpline
70
0
71
3
72
10
73
6
74
0
42
0.000000001
43
0.0000000001
44
0.0000000001
40
0
40
0
40
0
40
0
40
0.015471371811003609
40
0.015471371811003609
40
0.1073768815474392
40
0.1073768815474392
40
0.1073768815474392
40
0.1073768815474392
10
67.058173770916312
20
68.066255363326476
30
0
10
67.011026148310933
20
68.087152597899973
30
0
10
66.905148487428704
20
68.145079286372464
30
0
10
65.762433082760722
20
68.9207620319104
30
0
10
64.431545816166363
20
70.316406642960217
30
0
10
62.371689315053437
20
71.017990077768545
30
0
0
SPLINE
5
142
100
AcDbEntity
8
0
100
AcDbSpline
70
0
71
3
72
8
73
4
74
0
42
0.000000001
43
0.0000000001
44
0.0000000001
40
0.031101603399335737
40
0.031101603399335737
40
0.031101603399335737
40
0.031101603399335737
40
0.14534287605048793
40
0.14534287605048793
40
0.14534287605048793
40
0.14534287605048793
10
110.81167227388887
20
16.788069678643257
30
0
10
110.87613653814
20
17.563368528141428
30
0
10
110.93448974729915
20
18.338193080133482
30
0
10
110.98618936160904
20
19.113103776760887
30
0
0
SPLINE
5
143
100
AcDbEntity
8
0
100
AcDbSpline
70
4
71
5
72
14
73
8
74
0
42
0.000000001
43
0.0000000001
44
0.0000000001
40
0.45106811446090339
40
0.45106811446090339
40
0.45106811446090339
40
0.45106811446090339
40
0.45106811446090339
40
0.45106811446090339
40
0.60000000000000009
40
0.80000000000000004
40
1
40
1
40
1
40
1
40
1
40
1
41
1
41
1
41
1
41
1
41
1
41
1
41
1
41
1
10
122.87279963747685
20
-30.107480464929747
30
0
10
122.80770983907532
20
-29.698000609310391
30
0
10
122.60066430355222
20
-28.742968535672095
30
0
10
122.0866475750354
20
-27.261950303022772
30
0
10
121.31212190735808
20
-25.836355660033611
30
0
10
120.28431539149938
20
-24.502713919157483
30
0
10
119.39278624032845
20
-23.588876474210959
30
0
10
118.91135150937764
20
-23.146464239728569
30
0
0
SPLINE
5
144
100
AcDbEntity
8
0
100
AcDbSpline
70
0
71
3
72
10
73
6
74
0
42
0.000000001
43
0.0000000001
44
0.0000000001
40
0
40
0
40
0
40
0
40
0.052209890751163328
40
0.052209890751163328
40
0.10373649473469654
40
0.10373649473469654
40
0.10373649473469654
40
0.10373649473469654
10
99.058555279012083
20
68.045672404905915
30
0
10
98.884681476546845
20
68.053113854670215
30
0
10
98.711238266285321
20
68.058289778349277
30
0
10
98.36545470434038
20
68.064845580200881
30
0
10
98.194145936417726
20
68.066255363326476
30
0
10
98.022335027421917
20
68.066255363326476
30
0
0
SPLINE
5
145
100
AcDbEntity
8
0
100
AcDbSpline
70
0
71
3
72
10
73
6
74
0
42
0.000000001
43
0.0000000001
44
0.0000000001
40
0
40
0
40
0
40
0
40
0.063673664319790713
40
0.063673664319790713
40
0.12953857472270294
40
0.12953857472270294
40
0.12953857472270294
40
0.12953857472270294
10
62.371689315042147
20
71.017990077772396
30
0
10
62.170777673396941
20
71.086420223057559
30
0
10
61.967261942626322
20
71.146772383641732
30
0
10
61.548420071383475
20
71.25176263826171
30
0
10
61.332401339726744
20
71.295920777715082
30
0
10
61.113756369979029
20
71.329938205334656
30
0
0
LINE
5
146
100
AcDbEntity
8
0
100
AcDbLine
10
110.73879677512566
20
36.734655955741779
30
0
11
107.73879673042219
21
61.734656328270887
31
0
0
SPLINE
5
147
100
AcDbEntity
8
0
100
AcDbSpline
70
0
71
3
72
8
73
4
74
0
42
0.000000001
43
0.0000000001
44
0.0000000001
40
0.95083620476514119
40
0.95083620476514119
40
0.95083620476514119
40
0.95083620476514119
40
1
40
1
40
1
40
1
10
60.096665064951793
20
71.417000952054778
30
0
10
59.803923288538286
20
71.422382278970829
30
0
10
59.511127766212411
20
71.411174407320104
30
0
10
59.223563264411254
20
71.383576839097088
30
0
0
SPLINE
5
148
100
AcDbEntity
8
0
100
AcDbSpline
70
0
71
3
72
8
73
4
74
0
42
0.000000001
43
0.0000000001
44
0.0000000001
40
0.03362386851367636
40
0.03362386851367636
40
0.03362386851367636
40
0.03362386851367636
40
0.13979111546090434
40
0.13979111546090434
40
0.13979111546090434
40
0.13979111546090434
10
21.628583456224796
20
67.726953889447174
30
0
10
20.496716454664778
20
67.516789368064437
30
0
10
19.407127438051585
20
67.15431672005154
30
0
10
18.417340166086895
20
66.66993341577853
30
0
0
LINE
5
149
100
AcDbEntity
8
0
100
AcDbLine
10
59.223563264411254
20
71.383576839097088
30
0
11
22.714887226523466
21
67.879838820749683
31
0
0
SPLINE
5
150
100
AcDbEntity
8
0
100
AcDbSpline
70
4
71
3
72
8
73
4
74
0
42
0.000000001
43
0.0000000001
44
0.0000000001
40
0.25216119539782306
40
0.25216119539782306
40
0.25216119539782306
40
0.25216119539782306
40
1
40
1
40
1
40
1
41
1
41
1
41
1
41
1
10
-1.9885400851528772
20
12.953209283539486
30
0
10
0.64197658369716537
20
12.837705364944487
30
0
10
1.0617334011096575
20
12.390979450657365
30
0
10
2.7263702487826746
20
10.619390790545156
30
0
0
SPLINE
5
151
100
AcDbEntity
8
0
100
AcDbSpline
70
4
71
5
72
12
73
6
74
0
42
0.000000001
43
0.0000000001
44
0.0000000001
40
-1
40
-1
40
-1
40
-1
40
-1
40
-1
40
-0.87150007615642555
40
-0.87150007615642555
40
-0.87150007615642555
40
-0.87150007615642555
40
-0.87150007615642555
40
-0.87150007615642555
41
1
41
1
41
1
41
1
41
1
41
1
10
-0.0047847353822354222
20
56.016718719568814
30
0
10
-0.25231533244662346
20
56.016718719568814
30
0
10
-0.4914405469885233
20
56.003825973035291
30
0
10
-0.72216466774433052
20
55.978047801057414
30
0
10
-0.94464919897939525
20
55.939735418262231
30
0
10
-1.1591011457224383
20
55.889399891683986
30
0
0
LINE
5
152
100
AcDbEntity
8
0
100
AcDbLine
10
6.3549452286880772
20
56.016718719568814
30
0
11
-0.0047847353822354222
21
56.016718719568814
31
0
0
SPLINE
5
153
100
AcDbEntity
8
0
100
AcDbSpline
70
4
71
5
72
12
73
6
74
0
42
0.000000001
43
0.0000000001
44
0.0000000001
40
-0.18452299221544952
40
-0.18452299221544952
40
-0.18452299221544952
40
-0.18452299221544952
40
-0.18452299221544952
40
-0.18452299221544952
40
0
40
0
40
0
40
0
40
0
40
0
41
1
41
1
41
1
41
1
41
1
41
1
10
-4.78990570646768
20
52.016718719568829
30
0
10
-4.8679999778283998
20
51.712719742234974
30
0
10
-4.9277994313024642
20
51.398948753587099
30
0
10
-4.9682880377003071
20
51.075605340779418
30
0
10
-4.9885400851528781
20
50.74262449717267
30
0
10
-4.9885400851528781
20
50.400000730156904
30
0
0
SPLINE
5
154
100
AcDbEntity
8
0
100
AcDbSpline
70
0
71
3
72
11
73
7
74
0
42
0.000000001
43
0.0000000001
44
0.0000000001
40
0.13979111546090414
40
0.13979111546090414
40
0.13979111546090414
40
0.13979111546090414
40
0.17112855423075315
40
0.17112855423075315
40
0.17112855423075315
40
0.25423906196567408
40
0.25423906196567408
40
0.25423906196567408
40
0.25423906196567408
10
18.417340166086905
20
66.669933415778559
30
0
10
18.12518416767632
20
66.526957756380114
30
0
10
17.841723458221249
20
66.373360555377715
30
0
10
17.568437371219726
20
66.209923541858643
30
0
10
16.843651098340288
20
65.77646970167703
30
0
10
16.192540510852254
20
65.287569577003381
30
0
10
15.60177652776723
20
64.770051113467815
30
0
0
SPLINE
5
155
100
AcDbEntity
8
0
100
AcDbSpline
70
0
71
3
72
11
73
7
74
0
42
0.000000001
43
0.0000000001
44
0.0000000001
40
0.80466223765500355
40
0.80466223765500355
40
0.80466223765500355
40
0.80466223765500355
40
0.82115989298640035
40
0.82115989298640035
40
0.82115989298640035
40
1
40
1
40
1
40
1
10
8.315122878612339
20
56.511521884458617
30
0
10
8.2673710929941908
20
56.483077986987205
30
0
10
8.2201260588455867
20
56.456363537452233
30
0
10
8.173365726098595
20
56.431325281366433
30
0
10
7.6664680643109859
20
56.159902202882215
30
0
10
7.1902855796637724
20
56.016718719568814
30
0
10
6.3549452286880781
20
56.016718719568814
30
0
0
SPLINE
5
156
100
AcDbEntity
8
0
100
AcDbSpline
70
0
71
3
72
14
73
10
74
0
42
0.000000001
43
0.0000000001
44
0.0000000001
40
0.26602499799792761
40
0.26602499799792761
40
0.26602499799792761
40
0.26602499799792761
40
0.32305661999835161
40
0.32305661999835161
40
0.67154477362910359
40
0.67154477362910359
40
0.9132617821765332
40
0.9132617821765332
40
0.94646252526735042
40
0.94646252526735042
40
0.94646252526735042
40
0.94646252526735042
10
15.60177652776723
20
64.770051113467815
30
0
10
15.373974349024859
20
64.570492851778994
30
0
10
15.141425723176386
20
64.354626990922398
30
0
10
13.457681231635574
20
62.692699189795142
30
0
10
12.296662921697251
20
61.038280157986676
30
0
10
10.426826468075729
20
58.517411489408282
30
0
10
9.5803480943456698
20
57.41874780340423
30
0
10
8.5423627554082078
20
56.654428145618319
30
0
10
8.4248186198400372
20
56.57686340784128
30
0
10
8.315122878612339
20
56.511521884458617
30
0
0
SPLINE
5
157
100
AcDbEntity
8
0
100
AcDbSpline
70
4
71
5
72
16
73
10
74
0
42
0.000000001
43
0.0000000001
44
0.0000000001
40
-0.87150007615642544
40
-0.87150007615642544
40
-0.87150007615642544
40
-0.87150007615642544
40
-0.87150007615642544
40
-0.87150007615642544
40
-0.80000000000000004
40
-0.60000000000000009
40
-0.40000000000000002
40
-0.20000000000000001
40
-0.1845229922154501
40
-0.1845229922154501
40
-0.1845229922154501
40
-0.1845229922154501
40
-0.1845229922154501
40
-0.1845229922154501
41
1
41
1
41
1
41
1
41
1
41
1
41
1
41
1
41
1
41
1
10
-1.1591011457224403
20
55.889399891684008
30
0
10
-1.2784267458114078
20
55.861392139803158
30
0
10
-1.722086544130184
20
55.740906338997945
30
0
10
-2.4311872073545473
20
55.440659171745494
30
0
10
-3.2986732546943545
20
54.812277608092899
30
0
10
-3.998883732760079
20
53.950830377304953
30
0
10
-4.4631953348281792
20
53.053163927309882
30
0
10
-4.690368878734084
20
52.396255010493
30
0
10
-4.7833554894390762
20
52.042216867426703
30
0
10
-4.7899057064676835
20
52.016718719568829
30
0
0
SPLINE
5
158
100
AcDbEntity
8
0
100
AcDbSpline
70
0
71
3
72
8
73
4
74
0
42
0.000000001
43
0.0000000001
44
0.0000000001
40
0
40
0
40
0
40
0
40
0.03362386851358256
40
0.03362386851358256
40
0.03362386851358256
40
0.03362386851358256
10
22.714887226523466
20
67.879838820749683
30
0
10
22.349763582500373
20
67.844797900842508
30
0
10
21.987053213423593
20
67.793514381844176
30
0
10
21.628583456227798
20
67.726953889447699
30
0
0
SPLINE
5
159
100
AcDbEntity
8
0
100
AcDbSpline
70
0
71
3
72
10
73
6
74
0
42
0.000000001
43
0.0000000001
44
0.0000000001
40
0
40
0
40
0
40
0
40
0.094555947227626641
40
0.094555947227626641
40
0.1019275817451271
40
0.1019275817451271
40
0.1019275817451271
40
0.1019275817451271
10
61.113756369979029
20
71.329938205334656
30
0
10
60.802316703195977
20
71.378392904909362
30
0
10
60.485541500842373
20
71.40649896389759
30
0
10
60.145846188844658
20
71.415979753853009
30
0
10
60.121262229596979
20
71.416548794573913
30
0
10
60.096665064951793
20
71.417000952054778
30
0
0
SPLINE
5
160
100
AcDbEntity
8
0
100
AcDbSpline
70
4
71
5
72
13
73
7
74
0
42
0.000000001
43
0.0000000001
44
0.0000000001
40
0
40
0
40
0
40
0
40
0
40
0
40
0.20000000000000001
40
0.26608528691014466
40
0.26608528691014466
40
0.26608528691014466
40
0.26608528691014466
40
0.26608528691014466
40
0.26608528691014466
41
1
41
1
41
1
41
1
41
1
41
1
41
1
10
-4.9885400851528781
20
-16.325711608306715
30
0
10
-4.9885400851528781
20
-16.658465677057897
30
0
10
-4.9731275253107556
20
-17.103991214746287
30
0
10
-4.937222233212327
20
-17.553258126748009
30
0
10
-4.8810058491050103
20
-18.003613952745429
30
0
10
-4.8033345252124082
20
-18.449846779121934
30
0
10
-4.7826972670025656
20
-18.560330579485761
30
0
0
LINE
5
161
100
AcDbEntity
8
0
100
AcDbLine
10
-4.9885400851528781
20
50.400000730156904
30
0
11
-4.9885400851528781
21
-16.325711608306715
31
0
0
SPLINE
5
162
100
AcDbEntity
8
0
100
AcDbSpline
70
4
71
3
72
8
73
4
74
0
42
0.000000001
43
0.0000000001
44
0.0000000001
40
0.67274224239964964
40
0.67274224239964964
40
0.67274224239964964
40
0.67274224239964964
40
1
40
1
40
1
40
1
41
1
41
1
41
1
41
1
10
65.809436119259615
20
-13.622307253292295
30
0
10
66.084017273322075
20
-12.888107347109079
30
0
10
66.609397041152889
20
-12.028033163056355
30
0
10
67.390349588382293
20
-10.7495729596583
30
0
0
LINE
5
163
100
AcDbEntity
8
0
100
AcDbLine
10
-1.9885400851528763
20
1.707854729298679
30
0
11
-1.9885400851528772
21
12.953209283539486
31
0
0
SPLINE
5
164
100
AcDbEntity
8
0
100
AcDbSpline
70
4
71
3
72
8
73
4
74
0
42
0.000000001
43
0.0000000001
44
0.0000000001
40
0
40
0
40
0
40
0
40
1
40
1
40
1
40
1
41
1
41
1
41
1
41
1
10
84.640919694888623
20
-15.643274576581314
30
0
10
85.281747827518032
20
-20.648355053977959
30
0
10
85.281747827518032
20
-20.648355053977959
30
0
10
83.091256532657184
20
-23.09201242041269
30
0
0
SPLINE
5
165
100
AcDbEntity
8
0
100
AcDbSpline
70
4
71
3
72
8
73
4
74
0
42
0.000000001
43
0.0000000001
44
0.0000000001
40
0
40
0
40
0
40
0
40
1
40
1
40
1
40
1
41
1
41
1
41
1
41
1
10
83.091256532657184
20
-23.09201242041269
30
0
10
80.90076523779635
20
-25.535669786847428
30
0
10
80.90076523779635
20
-25.535669786847428
30
0
10
75.202518091189916
20
-24.535238281008411
30
0
0
SPLINE
5
166
100
AcDbEntity
8
0
100
AcDbSpline
70
4
71
3
72
8
73
4
74
0
42
0.000000001
43
0.0000000001
44
0.0000000001
40
0
40
0
40
0
40
0
40
0.8561027289178843
40
0.8561027289178843
40
0.8561027289178843
40
0.8561027289178843
41
1
41
1
41
1
41
1
10
2.7263702487826746
20
10.619390790545156
30
0
10
4.6319950160187577
20
8.5913308970112272
30
0
10
4.9062092197305205
20
8.2994986127406083
30
0
10
3.6861371115345101
20
3.6125309117550191
30
0
0
ARC
5
167
100
AcDbEntity
8
0
100
AcDbCircle
10
112.95
20
-33.600000000000001
30
0
40
7.2499999999999822
210
0
220
0
230
1
100
AcDbArc
50
232.37793201037763
51
291.14259746042779
0
SPLINE
5
168
100
AcDbEntity
8
0
100
AcDbSpline
70
4
71
3
72
8
73
4
74
0
42
0.000000001
43
0.0000000001
44
0.0000000001
40
0
40
0
40
0
40
0
40
0.23205342987267241
40
0.23205342987267241
40
0.23205342987267241
40
0.23205342987267241
41
1
41
1
41
1
41
1
10
107.4578449662408
20
-41.491139681256612
30
0
10
107.86808360653224
20
-40.590700290408464
30
0
10
108.18312496327776
20
-39.899210948599098
30
0
10
108.5242354976539
20
-39.342395716926262
30
0
0
SPLINE
5
169
100
AcDbEntity
8
0
100
AcDbSpline
70
4
71
3
72
8
73
4
74
0
42
0.000000001
43
0.0000000001
44
0.0000000001
40
0
40
0
40
0
40
0
40
1
40
1
40
1
40
1
41
1
41
1
41
1
41
1
10
79.576903861351823
20
-8.0328540952173881
30
0
10
84.000091562259257
20
-10.638194099184668
30
0
10
84.000091562259257
20
-10.638194099184668
30
0
10
84.640919694888623
20
-15.643274576581314
30
0
0
SPLINE
5
170
100
AcDbEntity
8
0
100
AcDbSpline
70
4
71
3
72
8
73
4
74
0
42
0.000000001
43
0.0000000001
44
0.0000000001
40
0
40
0
40
0
40
0
40
0.087121517378101199
40
0.087121517378101199
40
0.087121517378101199
40
0.087121517378101199
41
1
41
1
41
1
41
1
10
75.202518091189916
20
-24.535238281008411
30
0
10
74.70607744992445
20
-24.448078466729161
30
0
10
74.252887470614141
20
-24.368512147724321
30
0
10
73.837692155734658
20
-24.292942194825095
30
0
0
ARC
5
171
100
AcDbEntity
8
0
100
AcDbCircle
10
2.9499999999999948
20
-3.600000000000001
30
0
40
7.2500000000000044
210
0
220
-0
230
1
100
AcDbArc
50
84.172364118130957
51
132.93576036190953
0
ARC
5
172
100
AcDbEntity
8
0
100
AcDbCircle
10
67.565704076027984
20
-20.656368872586555
30
0
40
7.2499999999999751
210
0
220
0
230
1
100
AcDbArc
50
-30.105668018043701
51
104.01901249397947
0
SPLINE
5
173
100
AcDbEntity
8
0
100
AcDbSpline
70
4
71
3
72
8
73
4
74
0
42
0.000000001
43
0.0000000001
44
0.0000000001
40
0
40
0
40
0
40
0
40
1
40
1
40
1
40
1
41
1
41
1
41
1
41
1
10
67.390349588382293
20
-10.7495729596583
30
0
10
69.776702636071093
20
-6.8429880928166646
30
0
10
69.776702636071093
20
-6.8429880928166646
30
0
10
72.46520939825777
20
-6.1352551292546558
30
0
0
SPLINE
5
174
100
AcDbEntity
8
0
100
AcDbSpline
70
4
71
3
72
8
73
4
74
0
42
0.000000001
43
0.0000000001
44
0.0000000001
40
0
40
0
40
0
40
0
40
1
40
1
40
1
40
1
41
1
41
1
41
1
41
1
10
72.46520939825777
20
-6.1352551292546558
30
0
10
75.153716160444446
20
-5.4275140912500923
30
0
10
75.153716160444446
20
-5.4275140912500923
30
0
10
79.576903861351823
20
-8.0328540952173881
30
0
0
SPLINE
5
175
100
AcDbEntity
8
0
100
AcDbSpline
70
0
71
3
72
10
73
6
74
0
42
0.000000001
43
0.0000000001
44
0.0000000001
40
-0.14040019920448246
40
-0.14040019920448246
40
-0.14040019920448246
40
-0.14040019920448246
40
-0.070190965522535634
40
-0.070190965522535634
40
0
40
0
40
0
40
0
10
110.9643595508488
20
-46.288411873843032
30
0
10
110.82095358346477
20
-46.473144004019389
30
0
10
110.66553835356331
20
-46.650633276687259
30
0
10
110.32896110165078
20
-46.975578323452396
30
0
10
110.14705300299758
20
-47.123782004609836
30
0
10
109.95000151991849
20
-47.249927238916953
30
0
0
ARC
5
176
100
AcDbEntity
8
0
100
AcDbCircle
10
101.95000140070916
20
9.4000001192092881
30
0
40
5.348578659290629
210
0
220
0
230
1
100
AcDbArc
50
120.52276780474696
51
228.4992509532878
0
SPLINE
5
177
100
AcDbEntity
8
0
100
AcDbSpline
70
4
71
3
72
8
73
4
74
0
42
0.000000001
43
0.0000000001
44
0.0000000001
40
0.2741185318708802
40
0.2741185318708802
40
0.2741185318708802
40
0.2741185318708802
40
1
40
1
40
1
40
1
41
1
41
1
41
1
41
1
10
108.78666635288289
20
-47.668259240582614
30
0
10
105.78991418092713
20
-45.803013303984471
30
0
10
105.77958353141159
20
-45.758401125069739
30
0
10
105.74189673422579
20
-45.595653358217874
30
0
0
SPLINE
5
178
100
AcDbEntity
8
0
100
AcDbSpline
70
4
71
3
72
8
73
4
74
0
42
0.000000001
43
0.0000000001
44
0.0000000001
40
0
40
0
40
0
40
0
40
0.74932511163151683
40
0.74932511163151683
40
0.74932511163151683
40
0.74932511163151683
41
1
41
1
41
1
41
1
10
2.7586518700798868
20
25.860377487424234
30
0
10
1.0780855089426029
20
19.644940489313985
30
0
10
0.6568097239686872
20
18.086886513651361
30
0
10
-1.9885400851528763
20
17.699192156395782
30
0
0
LINE
5
179
100
AcDbEntity
8
0
100
AcDbLine
10
115.56500487609992
20
-40.361970829423441
30
0
11
110.9643595508488
21
-46.288411873843032
31
0
0
SPLINE
5
180
100
AcDbEntity
8
0
100
AcDbSpline
70
4
71
3
72
8
73
4
74
0
42
0.000000001
43
0.0000000001
44
0.0000000001
40
0
40
0
40
0
40
0
40
0.25526330893339932
40
0.25526330893339932
40
0.25526330893339932
40
0.25526330893339932
41
1
41
1
41
1
41
1
10
107.46919359523858
20
-18.953820243593853
30
0
10
108.25509648829679
20
-17.790534490248703
30
0
10
108.84038720837266
20
-16.924192907537513
30
0
10
109.31167945880715
20
-16.275057643597691
30
0
0
SPLINE
5
181
100
AcDbEntity
8
0
100
AcDbSpline
70
4
71
3
72
8
73
4
74
0
42
0.000000001
43
0.0000000001
44
0.0000000001
40
0
40
0
40
0
40
0
40
1
40
1
40
1
40
1
41
1
41
1
41
1
41
1
10
3.9156548913201084
20
35.43264527408602
30
0
10
5.0014251804233067
20
34.155090825640372
30
0
10
5.0014251804233067
20
34.155090825640372
30
0
10
2.7586518700798868
20
25.860377487424234
30
0
0
SPLINE
5
182
100
AcDbEntity
8
0
100
AcDbSpline
70
4
71
3
72
8
73
4
74
0
42
0.000000001
43
0.0000000001
44
0.0000000001
40
0.78477965341516032
40
0.78477965341516032
40
0.78477965341516032
40
0.78477965341516032
40
0.86223988854960265
40
0.86223988854960265
40
0.86223988854960265
40
0.86223988854960265
41
1
41
1
41
1
41
1
10
120.95858605120866
20
-30.63298428549664
30
0
10
120.57846199875449
20
-30.734160144393911
30
0
10
120.16150363679176
20
-30.84407399506631
30
0
10
119.7038287137471
20
-30.964037613059524
30
0
0
SPLINE
5
183
100
AcDbEntity
8
0
100
AcDbSpline
70
4
71
3
72
8
73
4
74
0
42
0.000000001
43
0.0000000001
44
0.0000000001
40
0.94480325329020165
40
0.94480325329020165
40
0.94480325329020165
40
0.94480325329020165
40
1
40
1
40
1
40
1
41
1
41
1
41
1
41
1
10
107.00953657987078
20
-29.443872673496823
30
0
10
106.89668426299289
20
-29.191467400432941
30
0
10
106.7786516211042
20
-28.923948922508028
30
0
10
106.65372334479096
20
-28.640801635500605
30
0
0
SPLINE
5
184
100
AcDbEntity
8
0
100
AcDbSpline
70
0
71
3
72
12
73
8
74
0
42
0.000000001
43
0.0000000001
44
0.0000000001
40
-1.3659140627843742
40
-1.3659140627843742
40
-1.3659140627843742
40
-1.3659140627843742
40
-1.2779348447757697
40
-1.2779348447757697
40
-1.1897236612383293
40
-1.1897236612383293
40
-1.1727760581479552
40
-1.1727760581479552
40
-1.1727760581479552
40
-1.1727760581479552
10
109.9500015199184
20
-47.249927238916953
30
0
10
109.78991764579516
20
-47.352407146677763
30
0
10
109.62168925621397
20
-47.439153846903146
30
0
10
109.26652838280597
20
-47.576223714248584
30
0
10
109.08367541250357
20
-47.624860114343903
30
0
10
108.85909745280314
20
-47.659375787226793
30
0
10
108.82288698846146
20
-47.664183058008206
30
0
10
108.78666635288285
20
-47.668259240582614
30
0
0
SPLINE
5
185
100
AcDbEntity
8
0
100
AcDbSpline
70
4
71
5
72
14
73
8
74
0
42
0.000000001
43
0.0000000001
44
0.0000000001
40
0
40
0
40
0
40
0
40
0
40
0
40
0.20000000000000001
40
0.40000000000000002
40
0.51366367456889239
40
0.51366367456889239
40
0.51366367456889239
40
0.51366367456889239
40
0.51366367456889239
40
0.51366367456889239
41
1
41
1
41
1
41
1
41
1
41
1
41
1
41
1
10
117.55807978241732
20
-24.619099847409526
30
0
10
117.94341979953896
20
-24.973206286040522
30
0
10
118.66244461417564
20
-25.702443507058646
30
0
10
119.45320953071688
20
-26.692847243458239
30
0
10
120.08070454906343
20
-27.742096738167739
30
0
10
120.53166622053772
20
-28.830169944976003
30
0
10
120.73143239835731
20
-29.50494551032763
30
0
10
120.79332779638973
20
-29.750643441891089
30
0
0
SPLINE
5
186
100
AcDbEntity
8
0
100
AcDbSpline
70
4
71
3
72
8
73
4
74
0
42
0.000000001
43
0.0000000001
44
0.0000000001
40
0
40
0
40
0
40
0
40
1
40
1
40
1
40
1
41
1
41
1
41
1
41
1
10
73.768351755130354
20
44.657808924598683
30
0
10
71.214575141259104
20
49.138494730873106
30
0
10
71.214575141259104
20
49.138494730873106
30
0
10
72.756002372094059
20
53.755444829546605
30
0
0
SPLINE
5
187
100
AcDbEntity
8
0
100
AcDbSpline
70
4
71
3
72
8
73
4
74
0
42
0.000000001
43
0.0000000001
44
0.0000000001
40
0
40
0
40
0
40
0
40
1
40
1
40
1
40
1
41
1
41
1
41
1
41
1
10
88.613787660586851
20
-15.119687349713642
30
0
10
87.972959527957485
20
-10.114606872316994
30
0
10
87.972959527957485
20
-10.114606872316994
30
0
10
93.14957346279229
20
-6.4964087954330445
30
0
0
SPLINE
5
188
100
AcDbEntity
8
0
100
AcDbSpline
70
4
71
3
72
8
73
4
74
0
42
0.000000001
43
0.0000000001
44
0.0000000001
40
0
40
0
40
0
40
0
40
1
40
1
40
1
40
1
41
1
41
1
41
1
41
1
10
83.913573910383406
20
11.947765780372618
30
0
10
85.600155394860153
20
12.452450737241103
30
0
10
85.600155394860153
20
12.452450737241103
30
0
10
91.166304661421051
20
7.383953588091531
30
0
0
ARC
5
189
100
AcDbEntity
8
0
100
AcDbCircle
10
38.119394119644852
20
25.409564291106133
30
0
40
28
210
0
220
0
230
1
100
AcDbArc
50
323.86172810567325
51
335.67376793436574
0
SPLINE
5
190
100
AcDbEntity
8
0
100
AcDbSpline
70
4
71
5
72
15
73
9
74
0
42
0.000000001
43
0.0000000001
44
0.0000000001
40
0
40
0
40
0
40
0
40
0
40
0
40
0.20000000000000001
40
0.40000000000000002
40
0.60000000000000009
40
0.71630622135635369
40
0.71630622135635369
40
0.71630622135635369
40
0.71630622135635369
40
0.71630622135635369
40
0.71630622135635369
41
1
41
1
41
1
41
1
41
1
41
1
41
1
41
1
41
1
10
56.113363271726257
20
-8.9752323301392032
30
0
10
55.850438393955812
20
-9.2244253320611573
30
0
10
55.308318138770275
20
-9.6792684698260807
30
0
10
54.446370892212109
20
-10.231011929617386
30
0
10
53.342619418383478
20
-10.680343613312097
30
0
10
52.182336372470118
20
-10.923384051938307
30
0
10
51.328755859389979
20
-10.994234381606569
30
0
10
50.801281940465358
20
-10.996012487579277
30
0
10
50.606795045644766
20
-10.990887149883671
30
0
0
SPLINE
5
191
100
AcDbEntity
8
0
100
AcDbSpline
70
4
71
3
72
8
73
4
74
0
42
0.000000001
43
0.0000000001
44
0.0000000001
40
0.13233917774269419
40
0.13233917774269419
40
0.13233917774269419
40
0.13233917774269419
40
1
40
1
40
1
40
1
41
1
41
1
41
1
41
1
10
43.376376094924474
20
65.844343856230353
30
0
10
46.300847720237954
20
63.572479608519444
30
0
10
46.253291309511255
20
62.71168381940592
30
0
10
45.893938837039528
20
56.207217010739647
30
0
0
SPLINE
5
192
100
AcDbEntity
8
0
100
AcDbSpline
70
4
71
3
72
8
73
4
74
0
42
0.000000001
43
0.0000000001
44
0.0000000001
40
0
40
0
40
0
40
0
40
1
40
1
40
1
40
1
41
1
41
1
41
1
41
1
10
91.166304661421051
20
7.383953588091531
30
0
10
96.732453927981879
20
2.3154564389419652
30
0
10
96.732453927981879
20
2.3154564389419652
30
0
10
96.63167681057061
20
1.0977093864313872
30
0
0
SPLINE
5
193
100
AcDbEntity
8
0
100
AcDbSpline
70
4
71
3
72
8
73
4
74
0
42
0.000000001
43
0.0000000001
44
0.0000000001
40
0
40
0
40
0
40
0
40
0.3548043275509406
40
0.3548043275509406
40
0.3548043275509406
40
0.3548043275509406
41
1
41
1
41
1
41
1
10
56.683654921837714
20
65.682494593544035
30
0
10
58.8456032348777
20
66.481683816053192
30
0
10
60.240482930509657
20
66.997317243884055
30
0
10
61.313894410722284
20
67.147376391093616
30
0
0
SPLINE
5
194
100
AcDbEntity
8
0
100
AcDbSpline
70
4
71
3
72
8
73
4
74
0
42
0.000000001
43
0.0000000001
44
0.0000000001
40
0.83336213742164622
40
0.83336213742164622
40
0.83336213742164622
40
0.83336213742164622
40
1
40
1
40
1
40
1
41
1
41
1
41
1
41
1
10
29.70312469260266
20
52.114739986679339
30
0
10
29.298986377208792
20
52.795220135433937
30
0
10
28.852763550459368
20
53.611765310377102
30
0
10
28.317314666100408
20
54.591585652910894
30
0
0
SPLINE
5
195
100
AcDbEntity
8
0
100
AcDbSpline
70
4
71
3
72
8
73
4
74
0
42
0.000000001
43
0.0000000001
44
0.0000000001
40
0
40
0
40
0
40
0
40
0.94188018610564905
40
0.94188018610564905
40
0.94188018610564905
40
0.94188018610564905
41
1
41
1
41
1
41
1
10
28.317314666100408
20
54.591585652910894
30
0
10
25.290827049543498
20
60.129782988716727
30
0
10
25.114928152515649
20
60.451661987183947
30
0
10
30.214488081248177
20
64.581197326926173
30
0
0
SPLINE
5
196
100
AcDbEntity
8
0
100
AcDbSpline
70
4
71
3
72
8
73
4
74
0
42
0.000000001
43
0.0000000001
44
0.0000000001
40
0
40
0
40
0
40
0
40
1
40
1
40
1
40
1
41
1
41
1
41
1
41
1
10
80.754230254479296
20
59.655876017494208
30
0
10
87.211030906029592
20
60.939373255653386
30
0
10
87.211030906029592
20
60.939373255653386
30
0
10
88.713959194807302
20
58.276309061927805
30
0
0
ARC
5
197
100
AcDbEntity
8
0
100
AcDbCircle
10
38.119394119644852
20
25.409564291106133
30
0
40
27.999999999999993
210
0
220
-0
230
1
100
AcDbArc
50
74.468309894481393
51
107.49250572469457
0
SPLINE
5
198
100
AcDbEntity
8
0
100
AcDbSpline
70
4
71
5
72
15
73
9
74
0
42
0.000000001
43
0.0000000001
44
0.0000000001
40
-0.63450887224765207
40
-0.63450887224765207
40
-0.63450887224765207
40
-0.63450887224765207
40
-0.63450887224765207
40
-0.63450887224765207
40
-0.60000000000000009
40
-0.40000000000000002
40
-0.20000000000000001
40
-0.074302398979400802
40
-0.074302398979400802
40
-0.074302398979400802
40
-0.074302398979400802
40
-0.074302398979400802
40
-0.074302398979400802
41
1
41
1
41
1
41
1
41
1
41
1
41
1
41
1
41
1
10
62.413221028891201
20
66.530366894520739
30
0
10
62.461034899097825
20
66.497107927889061
30
0
10
62.784995999464755
20
66.267926947265835
30
0
10
63.374073922559916
20
65.806438767592965
30
0
10
64.122618026441941
20
65.172908154845715
30
0
10
64.896584306151624
20
64.613523121656797
30
0
10
65.6833374515233
20
64.272367213557203
30
0
10
66.199835847416594
20
64.149682729818636
30
0
10
66.403693653245384
20
64.116146920540231
30
0
0
SPLINE
5
199
100
AcDbEntity
8
0
100
AcDbSpline
70
4
71
3
72
8
73
4
74
0
42
0.000000001
43
0.0000000001
44
0.0000000001
40
0
40
0
40
0
40
0
40
0.21140451304480656
40
0.21140451304480656
40
0.21140451304480656
40
0.21140451304480656
41
1
41
1
41
1
41
1
10
45.893938837039528
20
56.207217010739647
30
0
10
45.806383040459131
20
54.6224081024925
30
0
10
45.737336934419083
20
53.372634949762428
30
0
10
45.616990967107412
20
52.387074211647722
30
0
0
SPLINE
5
200
100
AcDbEntity
8
0
100
AcDbSpline
70
4
71
3
72
8
73
4
74
0
42
0.000000001
43
0.0000000001
44
0.0000000001
40
0.013441794128064429
40
0.013441794128064429
40
0.013441794128064429
40
0.013441794128064429
40
1
40
1
40
1
40
1
41
1
41
1
41
1
41
1
10
63.633407821544296
20
13.875479809913568
30
0
10
67.273359719206113
20
18.750380344548716
30
0
10
67.351046741385474
20
18.707835373664469
30
0
10
73.130559612898068
20
15.542709462725334
30
0
0
LINE
5
201
100
AcDbEntity
8
0
100
AcDbLine
10
30.214488081248177
20
64.581197326926173
30
0
11
43.376376094924474
21
65.844343856230353
31
0
0
SPLINE
5
202
100
AcDbEntity
8
0
100
AcDbSpline
70
4
71
3
72
8
73
4
74
0
42
0.000000001
43
0.0000000001
44
0.0000000001
40
0
40
0
40
0
40
0
40
1
40
1
40
1
40
1
41
1
41
1
41
1
41
1
10
81.754476048139793
20
-4.751109964764904
30
0
10
77.331288347232373
20
-2.1457699607976255
30
0
10
77.331288347232373
20
-2.1457699607976255
30
0
10
79.779136349348278
20
4.6486554313532586
30
0
0
SPLINE
5
203
100
AcDbEntity
8
0
100
AcDbSpline
70
4
71
3
72
8
73
4
74
0
42
0.000000001
43
0.0000000001
44
0.0000000001
40
0
40
0
40
0
40
0
40
0.17065332447430687
40
0.17065332447430687
40
0.17065332447430687
40
0.17065332447430687
41
1
41
1
41
1
41
1
10
14.296852629967576
20
7.3796256868871097
30
0
10
15.235383115666625
20
7.3997448495872833
30
0
10
16.01375025386065
20
7.4164306102870325
30
0
10
16.676215934903734
20
7.404284250589046
30
0
0
SPLINE
5
204
100
AcDbEntity
8
0
100
AcDbSpline
70
4
71
3
72
8
73
4
74
0
42
0.000000001
43
0.0000000001
44
0.0000000001
40
0
40
0
40
0
40
0
40
1
40
1
40
1
40
1
41
1
41
1
41
1
41
1
10
96.63167681057061
20
1.0977093864313872
30
0
10
96.530899693159284
20
-0.12003766607919131
30
0
10
96.530899693159284
20
-0.12003766607919131
30
0
10
91.354281721103234
20
-3.7382357429631585
30
0
0
SPLINE
5
205
100
AcDbEntity
8
0
100
AcDbSpline
70
4
71
3
72
8
73
4
74
0
42
0.000000001
43
0.0000000001
44
0.0000000001
40
0.977486843055132
40
0.977486843055132
40
0.977486843055132
40
0.977486843055132
40
1
40
1
40
1
40
1
41
1
41
1
41
1
41
1
10
66.403693653245455
20
64.116146920540189
30
0
10
66.487293402526262
20
64.028219253843673
30
0
10
66.572747463556723
20
63.938240171773955
30
0
10
66.660169674543596
20
63.846188720944724
30
0
0
SPLINE
5
206
100
AcDbEntity
8
0
100
AcDbSpline
70
4
71
3
72
8
73
4
74
0
42
0.000000001
43
0.0000000001
44
0.0000000001
40
0
40
0
40
0
40
0
40
1
40
1
40
1
40
1
41
1
41
1
41
1
41
1
10
17.169480905520953
20
-12.314278808352153
30
0
10
11.430021804161912
20
-13.761428848025002
30
0
10
11.430021804161912
20
-13.761428848025002
30
0
10
8.1062259769320875
20
-10.652800765749614
30
0
0
SPLINE
5
207
100
AcDbEntity
8
0
100
AcDbSpline
70
4
71
5
72
12
73
6
74
0
42
0.000000001
43
0.0000000001
44
0.0000000001
40
-0.78779273791455784
40
-0.78779273791455784
40
-0.78779273791455784
40
-0.78779273791455784
40
-0.78779273791455784
40
-0.78779273791455784
40
-0.63450887224765418
40
-0.63450887224765418
40
-0.63450887224765418
40
-0.63450887224765418
40
-0.63450887224765418
40
-0.63450887224765418
41
1
41
1
41
1
41
1
41
1
41
1
10
61.31389441072222
20
67.147376391093644
30
0
10
61.543038134307444
20
67.053965206833624
30
0
10
61.766700328851428
20
66.942901163053605
30
0
10
61.985658199457617
20
66.816638770370943
30
0
10
62.200838114573628
20
66.678098844055569
30
0
10
62.413221028891158
20
66.530366894520768
30
0
0
SPLINE
5
208
100
AcDbEntity
8
0
100
AcDbSpline
70
4
71
3
72
8
73
4
74
0
42
0.000000001
43
0.0000000001
44
0.0000000001
40
0
40
0
40
0
40
0
40
0.073817302710968924
40
0.073817302710968924
40
0.073817302710968924
40
0.073817302710968924
41
1
41
1
41
1
41
1
10
63.814962205874949
20
-8.5166343203353883
30
0
10
63.638808060578484
20
-8.8050078780171255
30
0
10
63.475657139149106
20
-9.0720944774976324
30
0
10
63.322514546793784
20
-9.3194953149919453
30
0
0
SPLINE
5
209
100
AcDbEntity
8
0
100
AcDbSpline
70
4
71
3
72
8
73
4
74
0
42
0.000000001
43
0.0000000001
44
0.0000000001
40
0.68255034353119826
40
0.68255034353119826
40
0.68255034353119826
40
0.68255034353119826
40
1
40
1
40
1
40
1
41
1
41
1
41
1
41
1
10
49.906865762972423
20
50.807507362499678
30
0
10
49.954924202822852
20
51.929347472619355
30
0
10
50.044662990932345
20
53.553666249928362
30
0
10
50.176138696658668
20
55.933444961789434
30
0
0
ARC
5
210
100
AcDbEntity
8
0
100
AcDbCircle
10
38.119394119644852
20
25.409564291106133
30
0
40
28.000000000000007
210
0
220
0
230
1
100
AcDbArc
50
285.26282728951344
51
314.66973910365141
0
SPLINE
5
211
100
AcDbEntity
8
0
100
AcDbSpline
70
4
71
3
72
8
73
4
74
0
42
0.000000001
43
0.0000000001
44
0.0000000001
40
0
40
0
40
0
40
0
40
1
40
1
40
1
40
1
41
1
41
1
41
1
41
1
10
71.404607146569134
20
-1.962132913983659
30
0
10
68.716108458824976
20
-2.669873951988222
30
0
10
68.716108458824976
20
-2.669873951988222
30
0
10
64.204513686486123
20
2.9630590288670899
30
0
0
ARC
5
212
100
AcDbEntity
8
0
100
AcDbCircle
10
38.119394119644852
20
25.409564291106133
30
0
40
28.000000000000007
210
0
220
0
230
1
100
AcDbArc
50
220.01930759841827
51
239.2496907400056
0
SPLINE
5
213
100
AcDbEntity
8
0
100
AcDbSpline
70
4
71
3
72
8
73
4
74
0
42
0.000000001
43
0.0000000001
44
0.0000000001
40
0
40
0
40
0
40
0
40
1
40
1
40
1
40
1
41
1
41
1
41
1
41
1
10
61.689736630110005
20
1.0228754529190032
30
0
10
66.201315253563763
20
-4.6100575279362914
30
0
10
66.201315253563763
20
-4.6100575279362914
30
0
10
63.814962205874949
20
-8.5166343203353883
30
0
0
SPLINE
5
214
100
AcDbEntity
8
0
100
AcDbSpline
70
4
71
3
72
8
73
4
74
0
42
0.000000001
43
0.0000000001
44
0.0000000001
40
0.6544023494866259
40
0.6544023494866259
40
0.6544023494866259
40
0.6544023494866259
40
1
40
1
40
1
40
1
41
1
41
1
41
1
41
1
10
50.606795045644766
20
-10.990887149883676
30
0
10
49.916368984029098
20
-10.160751950358849
30
0
10
49.180448196343406
20
-8.8875314508096803
30
0
10
48.055878903059217
20
-6.9419080884424833
30
0
0
SPLINE
5
215
100
AcDbEntity
8
0
100
AcDbSpline
70
4
71
3
72
8
73
4
74
0
42
0.000000001
43
0.0000000001
44
0.0000000001
40
0.58596693427033864
40
0.58596693427033864
40
0.58596693427033864
40
0.58596693427033864
40
1
40
1
40
1
40
1
41
1
41
1
41
1
41
1
10
57.803931561836194
20
5.4967798126117451
30
0
10
58.727241227203407
20
4.7217000669716791
30
0
10
59.821793901361026
20
3.3550959640322482
30
0
10
61.689736630110005
20
1.0228754529190032
30
0
0
SPLINE
5
216
100
AcDbEntity
8
0
100
AcDbSpline
70
4
71
3
72
8
73
4
74
0
42
0.000000001
43
0.0000000001
44
0.0000000001
40
0
40
0
40
0
40
0
40
1
40
1
40
1
40
1
41
1
41
1
41
1
41
1
10
50.176138696658668
20
55.933444961789434
30
0
10
50.590301078148755
20
63.430015803260815
30
0
10
50.590301078148755
20
63.430015803260815
30
0
10
56.683654921837714
20
65.682494593544035
30
0
0
SPLINE
5
217
100
AcDbEntity
8
0
100
AcDbSpline
70
4
71
3
72
8
73
4
74
0
42
0.000000001
43
0.0000000001
44
0.0000000001
40
0.11415816061280068
40
0.11415816061280068
40
0.11415816061280068
40
0.11415816061280068
40
1
40
1
40
1
40
1
41
1
41
1
41
1
41
1
10
7.4099832232103928
20
2.1158594846866063
30
0
10
8.8688763579635221
20
7.2632671681759184
30
0
10
9.4250341899189909
20
7.275189420273767
30
0
10
14.296852629967576
20
7.3796256868871097
30
0
0
ARC
5
218
100
AcDbEntity
8
0
100
AcDbCircle
10
59.552859486244927
20
-12.604263301391965
30
0
40
5.0000000000000009
210
0
220
-0
230
1
100
AcDbArc
50
41.067948564724674
51
133.46404493429637
0
SPLINE
5
219
100
AcDbEntity
8
0
100
AcDbSpline
70
4
71
3
72
8
73
4
74
0
42
0.000000001
43
0.0000000001
44
0.0000000001
40
0
40
0
40
0
40
0
40
1
40
1
40
1
40
1
41
1
41
1
41
1
41
1
10
24.759133920657682
20
-6.9132438174057036
30
0
10
22.908931932437454
20
-10.86712069423675
30
0
10
22.908931932437454
20
-10.86712069423675
30
0
10
17.169480905520953
20
-12.314278808352153
30
0
0
SPLINE
5
220
100
AcDbEntity
8
0
100
AcDbSpline
70
4
71
3
72
8
73
4
74
0
42
0.000000001
43
0.0000000001
44
0.0000000001
40
0
40
0
40
0
40
0
40
0.54620041701212851
40
0.54620041701212851
40
0.54620041701212851
40
0.54620041701212851
41
1
41
1
41
1
41
1
10
64.204513686486123
20
2.9630590288670899
30
0
10
61.740287560972654
20
6.0397693720116337
30
0
10
60.622022772826853
20
7.4359792427050975
30
0
10
60.732085979334798
20
8.8969579898975795
30
0
0
LINE
5
221
100
AcDbEntity
8
0
100
AcDbLine
10
99.80622860636997
20
-42.411372076280465
30
0
11
92.84331778547957
21
-37.407656400313606
31
0
0
SPLINE
5
222
100
AcDbEntity
8
0
100
AcDbSpline
70
4
71
3
72
8
73
4
74
0
42
0.000000001
43
0.0000000001
44
0.0000000001
40
0
40
0
40
0
40
0
40
0.054920992573228321
40
0.054920992573228321
40
0.054920992573228321
40
0.054920992573228321
41
1
41
1
41
1
41
1
10
44.799948765424922
20
-8.9656782936223394
30
0
10
44.978661250797103
20
-9.2748689552953518
30
0
10
45.147558669087424
20
-9.5670785589349112
30
0
10
45.306603302527648
20
-9.8440710582746842
30
0
0
SPLINE
5
223
100
AcDbEntity
8
0
100
AcDbSpline
70
4
71
3
72
8
73
4
74
0
42
0.000000001
43
0.0000000001
44
0.0000000001
40
0
40
0
40
0
40
0
40
1
40
1
40
1
40
1
41
1
41
1
41
1
41
1
10
102.96849932033624
20
-30.401377311464948
30
0
10
105.23182208695813
20
-35.531159479535425
30
0
10
105.23182208695813
20
-35.531159479535425
30
0
10
103.46395922659642
20
-39.411470110333774
30
0
0
SPLINE
5
224
100
AcDbEntity
8
0
100
AcDbSpline
70
0
71
3
72
8
73
4
74
0
42
0.000000001
43
0.0000000001
44
0.0000000001
40
-0.57304592817493261
40
-0.57304592817493261
40
-0.57304592817493261
40
-0.57304592817493261
40
-0.48307394048533481
40
-0.48307394048533481
40
-0.48307394048533481
40
-0.48307394048533481
10
120.79332779638973
20
-29.750643441891111
30
0
10
120.86652572205813
20
-30.041207514554998
30
0
10
120.92265710075024
20
-30.335888291486679
30
0
10
120.95858605120868
20
-30.632984285496661
30
0
0
SPLINE
5
225
100
AcDbEntity
8
0
100
AcDbSpline
70
4
71
3
72
8
73
4
74
0
42
0.000000001
43
0.0000000001
44
0.0000000001
40
0
40
0
40
0
40
0
40
1
40
1
40
1
40
1
41
1
41
1
41
1
41
1
10
93.041125624962717
20
9.3034181444676758
30
0
10
87.474976358401832
20
14.371915293617249
30
0
10
87.474976358401832
20
14.371915293617249
30
0
10
89.832802400577094
20
18.217780352516172
30
0
0
SPLINE
5
226
100
AcDbEntity
8
0
100
AcDbSpline
70
4
71
3
72
8
73
4
74
0
42
0.000000001
43
0.0000000001
44
0.0000000001
40
0
40
0
40
0
40
0
40
0.64675465135075039
40
0.64675465135075039
40
0.64675465135075039
40
0.64675465135075039
41
1
41
1
41
1
41
1
10
99.012046696333144
20
20.655769460283906
30
0
10
103.42383068064541
20
19.74521391818168
30
0
10
104.98227285234896
20
19.423564408247277
30
0
10
105.78913282521044
20
18.399017614153959
30
0
0
SPLINE
5
227
100
AcDbEntity
8
0
100
AcDbSpline
70
4
71
3
72
8
73
4
74
0
42
0.000000001
43
0.0000000001
44
0.0000000001
40
0
40
0
40
0
40
0
40
1
40
1
40
1
40
1
41
1
41
1
41
1
41
1
10
89.832802400577094
20
18.217780352516172
30
0
10
92.190628442752399
20
22.06365348585765
30
0
10
92.190628442752399
20
22.06365348585765
30
0
10
99.012046696333144
20
20.655769460283906
30
0
0
SPLINE
5
228
100
AcDbEntity
8
0
100
AcDbSpline
70
4
71
5
72
13
73
7
74
0
42
0.000000001
43
0.0000000001
44
0.0000000001
40
-0.10660526476105819
40
-0.10660526476105819
40
-0.10660526476105819
40
-0.10660526476105819
40
-0.10660526476105819
40
-0.10660526476105819
40
-0.10000000000000001
40
0
40
0
40
0
40
0
40
0
40
0
41
1
41
1
41
1
41
1
41
1
41
1
41
1
10
45.306603302527655
20
-9.8440710582746842
30
0
10
45.269584648073206
20
-9.8381105695706434
30
0
10
44.671959421296961
20
-9.74341755235905
30
0
10
44.071820354433925
20
-9.6730157047825944
30
0
10
43.47150521038283
20
-9.6266877701575666
30
0
10
42.872488365100466
20
-9.6042633013919634
30
0
10
42.311727924017219
20
-9.6042633013919634
30
0
0
SPLINE
5
229
100
AcDbEntity
8
0
100
AcDbSpline
70
0
71
3
72
10
73
6
74
0
42
0.000000001
43
0.0000000001
44
0.0000000001
40
-0.077436563066929642
40
-0.077436563066929642
40
-0.077436563066929642
40
-0.077436563066929642
40
-0.03871827520287828
40
-0.03871827520287828
40
0
40
0
40
0
40
0
10
92.84331778547957
20
-37.407656400313591
30
0
10
92.738511529238949
20
-37.332340096431452
30
0
10
92.633962091903214
20
-37.256805837481203
30
0
10
92.42511389129092
20
-37.105117108378685
30
0
10
92.320943899740016
20
-37.029056166245688
30
0
10
92.216899690641412
20
-36.952691757399407
30
0
0
SPLINE
5
230
100
AcDbEntity
8
0
100
AcDbSpline
70
4
71
3
72
8
73
4
74
0
42
0.000000001
43
0.0000000001
44
0.0000000001
40
0
40
0
40
0
40
0
40
1
40
1
40
1
40
1
41
1
41
1
41
1
41
1
10
36.025137147891556
20
-4.1705656201807599
30
0
10
41.545964568444134
20
-3.3359427920150675
30
0
10
41.545964568444134
20
-3.3359427920150675
30
0
10
44.799948765424922
20
-8.9656782936223394
30
0
0
SPLINE
5
231
100
AcDbEntity
8
0
100
AcDbSpline
70
4
71
3
72
8
73
4
74
0
42
0.000000001
43
0.0000000001
44
0.0000000001
40
0.080530936982679491
40
0.080530936982679491
40
0.080530936982679491
40
0.080530936982679491
40
1
40
1
40
1
40
1
41
1
41
1
41
1
41
1
10
-1.9885400851528763
20
37.617140289417101
30
0
10
2.8369260742356106
20
36.701914485781913
30
0
10
2.9173227009463769
20
36.607317065751928
30
0
10
3.9156548913201084
20
35.43264527408602
30
0
0
SPLINE
5
232
100
AcDbEntity
8
0
100
AcDbSpline
70
4
71
3
72
8
73
4
74
0
42
0.000000001
43
0.0000000001
44
0.0000000001
40
0
40
0
40
0
40
0
40
0.26244290600297748
40
0.26244290600297748
40
0.26244290600297748
40
0.26244290600297748
41
1
41
1
41
1
41
1
10
18.144825118370889
20
-16.493376111106876
30
0
10
19.6511054438168
20
-16.113581849272805
30
0
10
20.762073183397579
20
-15.833461897197731
30
0
10
21.659263154793976
20
-15.735241247141873
30
0
0
SPLINE
5
233
100
AcDbEntity
8
0
100
AcDbSpline
70
4
71
3
72
8
73
4
74
0
42
0.000000001
43
0.0000000001
44
0.0000000001
40
0.50994802234374781
40
0.50994802234374781
40
0.50994802234374781
40
0.50994802234374781
40
1
40
1
40
1
40
1
41
1
41
1
41
1
41
1
10
98.405873582121203
20
5.3941978674587032
30
0
10
97.159814553954206
20
5.5529683999307577
30
0
10
95.768828080970735
20
6.8195910927818453
30
0
10
93.041125624962717
20
9.3034181444676758
30
0
0
SPLINE
5
234
100
AcDbEntity
8
0
100
AcDbSpline
70
4
71
5
72
13
73
7
74
0
42
0.000000001
43
0.0000000001
44
0.0000000001
40
-0.21958178186013289
40
-0.21958178186013289
40
-0.21958178186013289
40
-0.21958178186013289
40
-0.21958178186013289
40
-0.21958178186013289
40
-0.20000000000000001
40
0
40
0
40
0
40
0
40
0
40
0
41
1
41
1
41
1
41
1
41
1
41
1
41
1
10
109.31167945880709
20
-16.27505764359768
30
0
10
109.35762472444142
20
-16.343899245791945
30
0
10
109.87678618044106
20
-17.113464023201615
30
0
10
110.44048938707796
20
-17.855879366889368
30
0
10
111.05143837226386
20
-18.567993194969073
30
0
10
111.71241141707456
20
-19.247249755816114
30
0
10
112.35597412149821
20
-19.838648746768179
30
0
0
ARC
5
235
100
AcDbEntity
8
0
100
AcDbCircle
10
112.95
20
-33.600000000000001
30
0
40
7.2499999999999822
210
0
220
-0
230
1
100
AcDbArc
50
21.320282243939282
51
145.0222042327774
0
SPLINE
5
236
100
AcDbEntity
8
0
100
AcDbSpline
70
4
71
3
72
8
73
4
74
0
42
0.000000001
43
0.0000000001
44
0.0000000001
40
0
40
0
40
0
40
0
40
1
40
1
40
1
40
1
41
1
41
1
41
1
41
1
10
106.65372334479096
20
-28.640801635500605
30
0
10
104.39040057816908
20
-23.511019467430131
30
0
10
104.39040057816908
20
-23.511019467430131
30
0
10
107.46919359523858
20
-18.953820243593853
30
0
0
SPLINE
5
237
100
AcDbEntity
8
0
100
AcDbSpline
70
4
71
3
72
8
73
4
74
0
42
0.000000001
43
0.0000000001
44
0.0000000001
40
0
40
0
40
0
40
0
40
1
40
1
40
1
40
1
41
1
41
1
41
1
41
1
10
105.74189673422579
20
-45.595653358217874
30
0
10
105.68997806865778
20
-45.37144627483368
30
0
10
105.68997806865778
20
-45.37144627483368
30
0
10
107.4578449662408
20
-41.491139681256612
30
0
0
SPLINE
5
238
100
AcDbEntity
8
0
100
AcDbSpline
70
4
71
5
72
15
73
9
74
0
42
0.000000001
43
0.0000000001
44
0.0000000001
40
-0.68105428074043461
40
-0.68105428074043461
40
-0.68105428074043461
40
-0.68105428074043461
40
-0.68105428074043461
40
-0.68105428074043461
40
-0.60000000000000009
40
-0.40000000000000002
40
-0.20000000000000001
40
0
40
0
40
0
40
0
40
0
40
0
41
1
41
1
41
1
41
1
41
1
41
1
41
1
41
1
41
1
10
105.78913282521044
20
18.399017614153959
30
0
10
105.6714649032387
20
18.264012149387625
30
0
10
105.24593021811442
20
17.807655713852444
30
0
10
104.4211068926809
20
17.091942079037118
30
0
10
103.0839525961332
20
16.199080152769021
30
0
10
101.65269684727831
20
15.393936383497008
30
0
10
100.42041857073842
20
14.699921691467374
30
0
10
99.624848152908925
20
14.238107340289217
30
0
10
99.233561467430803
20
14.007412382455296
30
0
0
LINE
5
239
100
AcDbEntity
8
0
100
AcDbLine
10
112.35597412149821
20
-19.838648746768179
30
0
11
117.55807978241732
21
-24.619099847409526
31
0
0
LINE
5
240
100
AcDbEntity
8
0
100
AcDbLine
10
18.026752795983995
20
-18.600000298023225
30
0
11
14.873496168808614
21
-18.560330579485761
31
0
0
SPLINE
5
241
100
AcDbEntity
8
0
100
AcDbSpline
70
4
71
5
72
13
73
7
74
0
42
0.000000001
43
0.0000000001
44
0.0000000001
40
-1
40
-1
40
-1
40
-1
40
-1
40
-1
40
-0.8999999999999998
40
-0.8585512896161307
40
-0.8585512896161307
40
-0.8585512896161307
40
-0.8585512896161307
40
-0.8585512896161307
40
-0.8585512896161307
41
1
41
1
41
1
41
1
41
1
41
1
41
1
10
30.351695812835004
20
-9.6042633013919634
30
0
10
30.079273193305433
20
-9.6042633013919634
30
0
10
29.686025749979361
20
-9.6066356584001014
30
0
10
29.281597468264149
20
-9.6123736048009221
30
0
10
28.868421013609407
20
-9.6249940319326157
30
0
10
28.450774399619775
20
-9.6506477716194201
30
0
10
28.328123974230891
20
-9.659450922739536
30
0
0
SPLINE
5
242
100
AcDbEntity
8
0
100
AcDbSpline
70
4
71
3
72
8
73
4
74
0
42
0.000000001
43
0.0000000001
44
0.0000000001
40
0.49977592891804012
40
0.49977592891804012
40
0.49977592891804012
40
0.49977592891804012
40
1
40
1
40
1
40
1
41
1
41
1
41
1
41
1
10
12.990403644083532
20
-18.560330579485761
30
0
10
13.838957148988307
20
-17.579062832678368
30
0
10
15.273817598941708
20
-17.217275395418451
30
0
10
18.144825118370889
20
-16.493376111106876
30
0
0
LINE
5
243
100
AcDbEntity
8
0
100
AcDbLine
10
-1.9885400851528763
20
17.699192156395782
30
0
11
-1.9885400851528763
21
37.617140289417101
31
0
0
LINE
5
244
100
AcDbEntity
8
0
100
AcDbLine
10
14.873496168808614
20
-18.560330579485761
30
0
11
12.990403644083532
21
-18.560330579485761
31
0
0
SPLINE
5
245
100
AcDbEntity
8
0
100
AcDbSpline
70
4
71
5
72
14
73
8
74
0
42
0.000000001
43
0.0000000001
44
0.0000000001
40
-0.28169301738664226
40
-0.28169301738664226
40
-0.28169301738664226
40
-0.28169301738664226
40
-0.28169301738664226
40
-0.28169301738664226
40
-0.20000000000000001
40
-0.10000000000000001
40
0
40
0
40
0
40
0
40
0
40
0
41
1
41
1
41
1
41
1
41
1
41
1
41
1
41
1
10
21.659263154793976
20
-15.735241247141873
30
0
10
21.514325941209069
20
-16.015299386100217
30
0
10
21.182567968639265
20
-16.622907205781537
30
0
10
20.62286890143687
20
-17.488558848631811
30
0
10
19.947906272952309
20
-18.153946207456602
30
0
10
19.099698814291163
20
-18.514635886189865
30
0
10
18.400555681769752
20
-18.600000298023225
30
0
10
18.026752795983995
20
-18.600000298023225
30
0
0
SPLINE
5
246
100
AcDbEntity
8
0
100
AcDbSpline
70
4
71
3
72
8
73
4
74
0
42
0.000000001
43
0.0000000001
44
0.0000000001
40
0.93721989985620324
40
0.93721989985620324
40
0.93721989985620324
40
0.93721989985620324
40
1
40
1
40
1
40
1
41
1
41
1
41
1
41
1
10
28.328123974230891
20
-9.659450922739536
30
0
10
28.429088283811822
20
-9.4399313208038453
30
0
10
28.537951873012073
20
-9.2072901114612122
30
0
10
28.654107739118793
20
-8.9590653251775159
30
0
0
SPLINE
5
247
100
AcDbEntity
8
0
100
AcDbSpline
70
4
71
3
72
8
73
4
74
0
42
0.000000001
43
0.0000000001
44
0.0000000001
40
0
40
0
40
0
40
0
40
0.6342380824874847
40
0.6342380824874847
40
0.6342380824874847
40
0.6342380824874847
41
1
41
1
41
1
41
1
10
103.46395922659642
20
-39.411470110333774
30
0
10
102.34271327593972
20
-41.872510884267093
30
0
10
101.93260420702443
20
-42.772665876817427
30
0
10
99.80622860636997
20
-42.411372076280443
30
0
0
SPLINE
5
248
100
AcDbEntity
8
0
100
AcDbSpline
70
4
71
3
72
8
73
4
74
0
42
0.000000001
43
0.0000000001
44
0.0000000001
40
0
40
0
40
0
40
0
40
1
40
1
40
1
40
1
41
1
41
1
41
1
41
1
10
28.654107739118793
20
-8.9590653251775159
30
0
10
30.50430972733901
20
-5.0051884483464519
30
0
10
30.50430972733901
20
-5.0051884483464519
30
0
10
36.025137147891556
20
-4.1705656201807599
30
0
0
LINE
5
249
100
AcDbEntity
8
0
100
AcDbLine
10
42.311727924017219
20
-9.6042633013919634
30
0
11
30.351695812835004
21
-9.6042633013919634
31
0
0
SPLINE
5
250
100
AcDbEntity
8
0
100
AcDbSpline
70
4
71
5
72
15
73
9
74
0
42
0.000000001
43
0.0000000001
44
0.0000000001
40
-0.9599002708437202
40
-0.9599002708437202
40
-0.9599002708437202
40
-0.9599002708437202
40
-0.9599002708437202
40
-0.9599002708437202
40
-0.80000000000000004
40
-0.60000000000000009
40
-0.40000000000000002
40
-0.38525157514329611
40
-0.38525157514329611
40
-0.38525157514329611
40
-0.38525157514329611
40
-0.38525157514329611
40
-0.38525157514329611
41
1
41
1
41
1
41
1
41
1
41
1
41
1
41
1
41
1
10
106.85710303901692
20
35.467380552489828
30
0
10
106.92470967166868
20
34.83669091732245
30
0
10
107.05889904207716
20
33.416698847174338
30
0
10
107.20589454180008
20
31.206074361839736
30
0
10
107.26982947317401
20
28.935197193824614
30
0
10
107.26756742895761
20
26.6632766772636
30
0
10
107.23688703223692
20
25.023393123264693
30
0
10
107.2136385178776
20
24.17430690448148
30
0
10
107.21200726656788
20
24.115993703751265
30
0
0
SPLINE
5
251
100
AcDbEntity
8
0
100
AcDbSpline
70
4
71
3
72
8
73
4
74
0
42
0.000000001
43
0.0000000001
44
0.0000000001
40
0
40
0
40
0
40
0
40
1
40
1
40
1
40
1
41
1
41
1
41
1
41
1
10
86.589783296573216
20
-26.309976529197691
30
0
10
88.780270554212763
20
-23.866319162762963
30
0
10
88.780270554212763
20
-23.866319162762963
30
0
10
94.742725572574201
20
-24.568957153078721
30
0
0
SPLINE
5
252
100
AcDbEntity
8
0
100
AcDbSpline
70
0
71
3
72
10
73
6
74
0
42
0.000000001
43
0.0000000001
44
0.0000000001
40
-0.008546607306886762
40
-0.008546607306886762
40
-0.008546607306886762
40
-0.008546607306886762
40
-0.0042733102875169293
40
-0.0042733102875169293
40
0
40
0
40
0
40
0
10
85.539797837834271
20
-31.746660470020288
30
0
10
85.528376810265812
20
-31.738148062675627
30
0
10
85.517006640118893
20
-31.729562516387485
30
0
10
85.494373945142058
20
-31.712260301679414
30
0
10
85.483106816573056
20
-31.703540113136128
30
0
10
85.471891750570393
20
-31.69475806875035
30
0
0
SPLINE
5
253
100
AcDbEntity
8
0
100
AcDbSpline
70
4
71
3
72
8
73
4
74
0
42
0.000000001
43
0.0000000001
44
0.0000000001
40
0.19012486184036967
40
0.19012486184036967
40
0.19012486184036967
40
0.19012486184036967
40
1
40
1
40
1
40
1
41
1
41
1
41
1
41
1
10
84.893370703737929
20
-31.160386095925041
30
0
10
84.478472704941922
20
-28.665301881175061
30
0
10
84.815758856510286
20
-28.289033876453821
30
0
10
86.589783296573216
20
-26.309976529197691
30
0
0
SPLINE
5
254
100
AcDbEntity
8
0
100
AcDbSpline
70
0
71
3
72
8
73
4
74
0
42
0.000000001
43
0.0000000001
44
0.0000000001
40
-0.2215561104231992
40
-0.2215561104231992
40
-0.2215561104231992
40
-0.2215561104231992
40
-0.14575081131157305
40
-0.14575081131157305
40
-0.14575081131157305
40
-0.14575081131157305
10
85.471891750570393
20
-31.694758068750346
30
0
10
85.271649846030456
20
-31.537957092889052
30
0
10
85.075412852428073
20
-31.351430031811446
30
0
10
84.893370703737915
20
-31.160386095925041
30
0
0
SPLINE
5
255
100
AcDbEntity
8
0
100
AcDbSpline
70
4
71
3
72
8
73
4
74
0
42
0.000000001
43
0.0000000001
44
0.0000000001
40
0
40
0
40
0
40
0
40
1
40
1
40
1
40
1
41
1
41
1
41
1
41
1
10
94.742725572574201
20
-24.568957153078721
30
0
10
100.70517655371431
20
-25.271595143394478
30
0
10
100.70517655371431
20
-25.271595143394478
30
0
10
102.96849932033624
20
-30.401377311464948
30
0
0
SPLINE
5
256
100
AcDbEntity
8
0
100
AcDbSpline
70
4
71
3
72
8
73
4
74
0
42
0.000000001
43
0.0000000001
44
0.0000000001
40
0
40
0
40
0
40
0
40
0.77960636618733425
40
0.77960636618733425
40
0.77960636618733425
40
0.77960636618733425
41
1
41
1
41
1
41
1
10
98.252689784356008
20
36.324596644325254
30
0
10
104.16133178384796
20
36.927961545249943
30
0
10
105.46355886501408
20
37.060939328279765
30
0
10
106.85710303901686
20
35.467380552489828
30
0
0
SPLINE
5
257
100
AcDbEntity
8
0
100
AcDbSpline
70
0
71
3
72
10
73
6
74
0
42
0.000000001
43
0.0000000001
44
0.0000000001
40
-0.8319539783731742
40
-0.8319539783731742
40
-0.8319539783731742
40
-0.8319539783731742
40
-0.41596679417525051
40
-0.41596679417525051
40
0
40
0
40
0
40
0
10
92.216899690641412
20
-36.952691757399407
30
0
10
91.056442266138347
20
-36.100961075017551
30
0
10
90.031929644851544
20
-35.302218602806242
30
0
10
87.693159397499443
20
-33.442203144886186
30
0
10
86.640920765032519
20
-32.5893144835348
30
0
10
85.5397978378343
20
-31.746660470020288
30
0
0
SPLINE
5
258
100
AcDbEntity
8
0
100
AcDbSpline
70
4
71
3
72
8
73
4
74
0
42
0.000000001
43
0.0000000001
44
0.0000000001
40
0.21915218387686164
40
0.21915218387686164
40
0.21915218387686164
40
0.21915218387686164
40
1
40
1
40
1
40
1
41
1
41
1
41
1
41
1
10
107.21200726656788
20
24.11599370375129
30
0
10
105.95066102433789
20
22.24819766698576
30
0
10
104.7833492078972
20
22.489123886273362
30
0
10
99.456859661726213
20
23.588479662818919
30
0
0
SPLINE
5
259
100
AcDbEntity
8
0
100
AcDbSpline
70
4
71
3
72
8
73
4
74
0
42
0.000000001
43
0.0000000001
44
0.0000000001
40
0
40
0
40
0
40
0
40
1
40
1
40
1
40
1
41
1
41
1
41
1
41
1
10
99.456859661726213
20
23.588479662818919
30
0
10
92.635441408145454
20
24.996363688392648
30
0
10
92.635441408145454
20
24.996363688392648
30
0
10
91.611053031273727
20
30.230411133054091
30
0
0
SPLINE
5
260
100
AcDbEntity
8
0
100
AcDbSpline
70
4
71
3
72
8
73
4
74
0
42
0.000000001
43
0.0000000001
44
0.0000000001
40
0.27649399990900853
40
0.27649399990900853
40
0.27649399990900853
40
0.27649399990900853
40
1
40
1
40
1
40
1
41
1
41
1
41
1
41
1
10
106.07026524445413
20
42.066609879300231
30
0
10
105.11974396386977
20
40.063146039273349
30
0
10
103.60360182886778
20
39.908320865512323
30
0
10
98.120147809970447
20
39.34836233544668
30
0
0
SPLINE
5
261
100
AcDbEntity
8
0
100
AcDbSpline
70
4
71
3
72
8
73
4
74
0
42
0.000000001
43
0.0000000001
44
0.0000000001
40
0
40
0
40
0
40
0
40
1
40
1
40
1
40
1
41
1
41
1
41
1
41
1
10
105.12454100607638
20
-5.4390363207626429
30
0
10
100.61908281007217
20
-0.67030285111745469
30
0
10
100.61908281007217
20
-0.67030285111745469
30
0
10
100.71985992748344
20
0.54743612695058674
30
0
0
SPLINE
5
262
100
AcDbEntity
8
0
100
AcDbSpline
70
4
71
3
72
8
73
4
74
0
42
0.000000001
43
0.0000000001
44
0.0000000001
40
0
40
0
40
0
40
0
40
1
40
1
40
1
40
1
41
1
41
1
41
1
41
1
10
81.262790943769673
20
35.283235789222715
30
0
10
86.639013172773574
20
34.732009745521552
30
0
10
86.639013172773574
20
34.732009745521552
30
0
10
87.663401549645315
20
29.497962300860088
30
0
0
SPLINE
5
263
100
AcDbEntity
8
0
100
AcDbSpline
70
4
71
3
72
8
73
4
74
0
42
0.000000001
43
0.0000000001
44
0.0000000001
40
0.04616452162291116
40
0.04616452162291116
40
0.04616452162291116
40
0.04616452162291116
40
0.21887577157504592
40
0.21887577157504592
40
0.21887577157504592
40
0.21887577157504592
41
1
41
1
41
1
41
1
10
102.03600133403413
20
52.450219113323087
30
0
10
103.20679513879929
20
52.090791727612249
30
0
10
104.16356762447876
20
51.788971992131962
30
0
10
104.93749436710524
20
51.50636719054102
30
0
0
ARC
5
264
100
AcDbEntity
8
0
100
AcDbCircle
10
98.558245303408
20
58.81164293126222
30
0
40
7.2499999999999876
210
0
220
0
230
1
100
AcDbArc
50
229.72771459487745
51
298.66518918437708
0
SPLINE
5
265
100
AcDbEntity
8
0
100
AcDbSpline
70
4
71
3
72
8
73
4
74
0
42
0.000000001
43
0.0000000001
44
0.0000000001
40
0
40
0
40
0
40
0
40
1
40
1
40
1
40
1
41
1
41
1
41
1
41
1
10
91.611053031273727
20
30.230411133054091
30
0
10
90.586664654401986
20
35.464458577715547
30
0
10
90.586664654401986
20
35.464458577715547
30
0
10
90.630173788058812
20
35.507559952023826
30
0
0
LINE
5
266
100
AcDbEntity
8
0
100
AcDbLine
10
104.93749436710524
20
51.50636719054102
30
0
11
106.07026524445413
21
42.066609879300231
31
0
0
LINE
5
267
100
AcDbEntity
8
0
100
AcDbLine
10
105.42388116656376
20
-5.7558393986680869
30
0
11
105.12454100607638
21
-5.4390363207626429
31
0
0
SPLINE
5
268
100
AcDbEntity
8
0
100
AcDbSpline
70
4
71
5
72
15
73
9
74
0
42
0.000000001
43
0.0000000001
44
0.0000000001
40
0.3668536679500693
40
0.3668536679500693
40
0.3668536679500693
40
0.3668536679500693
40
0.3668536679500693
40
0.3668536679500693
40
0.40000000000000002
40
0.60000000000000009
40
0.80000000000000004
40
1
40
1
40
1
40
1
40
1
40
1
41
1
41
1
41
1
41
1
41
1
41
1
41
1
41
1
41
1
10
101.94762383406996
20
2.7302956618862142
30
0
10
102.00268550262896
20
2.6864415208004679
30
0
10
102.38834381575528
20
2.3770820854966557
30
0
10
103.08219751652351
20
1.7897184563656325
30
0
10
104.01041024138577
20
0.87874056818124757
30
0
10
104.73001868682609
20
-0.16861466096812217
30
0
10
105.10545968664771
20
-1.3672041367997982
30
0
10
105.19570976533873
20
-2.2742882499821682
30
0
10
105.2007867888818
20
-2.7548616278535336
30
0
0
SPLINE
5
269
100
AcDbEntity
8
0
100
AcDbSpline
70
4
71
3
72
8
73
4
74
0
42
0.000000001
43
0.0000000001
44
0.0000000001
40
0
40
0
40
0
40
0
40
1
40
1
40
1
40
1
41
1
41
1
41
1
41
1
10
86.32996388434178
20
20.418041722857161
30
0
10
83.972137842166461
20
16.572168589515691
30
0
10
83.972137842166461
20
16.572168589515691
30
0
10
82.285556357689728
20
16.067491707089744
30
0
0
SPLINE
5
270
100
AcDbEntity
8
0
100
AcDbSpline
70
4
71
5
72
13
73
7
74
0
42
0.000000001
43
0.0000000001
44
0.0000000001
40
-0.89537870350125104
40
-0.89537870350125104
40
-0.89537870350125104
40
-0.89537870350125104
40
-0.89537870350125104
40
-0.89537870350125104
40
-0.80000000000000004
40
-0.75392777264713284
40
-0.75392777264713284
40
-0.75392777264713284
40
-0.75392777264713284
40
-0.75392777264713284
40
-0.75392777264713284
41
1
41
1
41
1
41
1
41
1
41
1
41
1
10
105.2007867888818
20
-2.7548616278535363
30
0
10
105.20509519876492
20
-3.1626807118554305
30
0
10
105.22479764401581
20
-3.7660712940196106
30
0
10
105.26387201240777
20
-4.367253190454
30
0
10
105.32161280862019
20
-4.966011825914574
30
0
10
105.39733351563881
20
-5.5620179125220748
30
0
10
105.42388116656375
20
-5.7558393986680869
30
0
0
SPLINE
5
271
100
AcDbEntity
8
0
100
AcDbSpline
70
4
71
3
72
8
73
4
74
0
42
0.000000001
43
0.0000000001
44
0.0000000001
40
0
40
0
40
0
40
0
40
1
40
1
40
1
40
1
41
1
41
1
41
1
41
1
10
82.285556357689728
20
16.067491707089744
30
0
10
80.598974873213024
20
15.562806750221249
30
0
10
80.598974873213024
20
15.562806750221249
30
0
10
74.740716498680939
20
18.771057304623934
30
0
0
SPLINE
5
272
100
AcDbEntity
8
0
100
AcDbSpline
70
4
71
3
72
8
73
4
74
0
42
0.000000001
43
0.0000000001
44
0.0000000001
40
0
40
0
40
0
40
0
40
0.62848160908078476
40
0.62848160908078476
40
0.62848160908078476
40
0.62848160908078476
41
1
41
1
41
1
41
1
10
100.71985992748344
20
0.54743612695058674
30
0
10
100.78319649239261
20
1.312767753965818
30
0
10
100.80672719107403
20
1.5971025285541018
30
0
10
101.94762383406996
20
2.7302956618862275
30
0
0
SPLINE
5
273
100
AcDbEntity
8
0
100
AcDbSpline
70
4
71
3
72
8
73
4
74
0
42
0.000000001
43
0.0000000001
44
0.0000000001
40
0
40
0
40
0
40
0
40
1
40
1
40
1
40
1
41
1
41
1
41
1
41
1
10
95.217066774356425
20
-20.827413891868602
30
0
10
89.254615793216274
20
-20.124775901552837
30
0
10
89.254615793216274
20
-20.124775901552837
30
0
10
88.613787660586851
20
-15.119687349713642
30
0
0
SPLINE
5
274
100
AcDbEntity
8
0
100
AcDbSpline
70
4
71
3
72
8
73
4
74
0
42
0.000000001
43
0.0000000001
44
0.0000000001
40
0
40
0
40
0
40
0
40
1
40
1
40
1
40
1
41
1
41
1
41
1
41
1
10
90.630173788058812
20
35.507559952023826
30
0
10
90.673682921715638
20
35.55066132633209
30
0
10
90.673682921715638
20
35.55066132633209
30
0
10
98.252689784356008
20
36.324596644325254
30
0
0
SPLINE
5
275
100
AcDbEntity
8
0
100
AcDbSpline
70
4
71
3
72
8
73
4
74
0
42
0.000000001
43
0.0000000001
44
0.0000000001
40
0
40
0
40
0
40
0
40
1
40
1
40
1
40
1
41
1
41
1
41
1
41
1
10
74.740716498680939
20
18.771057304623934
30
0
10
68.882458124148911
20
21.979307859026605
30
0
10
68.882458124148911
20
21.979307859026605
30
0
10
68.530170195885546
20
23.649853500607819
30
0
0
SPLINE
5
276
100
AcDbEntity
8
0
100
AcDbSpline
70
4
71
3
72
8
73
4
74
0
42
0.000000001
43
0.0000000001
44
0.0000000001
40
0
40
0
40
0
40
0
40
1
40
1
40
1
40
1
41
1
41
1
41
1
41
1
10
68.530170195885546
20
23.649853500607819
30
0
10
68.177874193179647
20
25.320415291074131
30
0
10
68.177874193179647
20
25.320415291074131
30
0
10
72.032225491193984
20
30.577434524777733
30
0
0
SPLINE
5
277
100
AcDbEntity
8
0
100
AcDbSpline
70
4
71
3
72
8
73
4
74
0
42
0.000000001
43
0.0000000001
44
0.0000000001
40
0
40
0
40
0
40
0
40
1
40
1
40
1
40
1
41
1
41
1
41
1
41
1
10
93.14957346279229
20
-6.4964087954330445
30
0
10
98.326191434848369
20
-2.87820264410654
30
0
10
98.326191434848369
20
-2.87820264410654
30
0
10
102.83164963085257
20
-7.646936113751746
30
0
0
SPLINE
5
278
100
AcDbEntity
8
0
100
AcDbSpline
70
4
71
3
72
8
73
4
74
0
42
0.000000001
43
0.0000000001
44
0.0000000001
40
0
40
0
40
0
40
0
40
1
40
1
40
1
40
1
41
1
41
1
41
1
41
1
10
98.120147809970447
20
39.34836233544668
30
0
10
90.541140947330064
20
38.574427017453516
30
0
10
90.541140947330064
20
38.574427017453516
30
0
10
92.068793179182279
20
46.800604487342824
30
0
0
SPLINE
5
279
100
AcDbEntity
8
0
100
AcDbSpline
70
4
71
3
72
8
73
4
74
0
42
0.000000001
43
0.0000000001
44
0.0000000001
40
0
40
0
40
0
40
0
40
1
40
1
40
1
40
1
41
1
41
1
41
1
41
1
10
87.663401549645315
20
29.497962300860088
30
0
10
88.687789926517098
20
24.263914856198628
30
0
10
88.687789926517098
20
24.263914856198628
30
0
10
86.32996388434178
20
20.418041722857161
30
0
0
SPLINE
5
280
100
AcDbEntity
8
0
100
AcDbSpline
70
4
71
3
72
8
73
4
74
0
42
0.000000001
43
0.0000000001
44
0.0000000001
40
0
40
0
40
0
40
0
40
1
40
1
40
1
40
1
41
1
41
1
41
1
41
1
10
72.032225491193984
20
30.577434524777733
30
0
10
75.88656871476573
20
35.834461832923893
30
0
10
75.88656871476573
20
35.834461832923893
30
0
10
81.262790943769673
20
35.283235789222715
30
0
0
SPLINE
5
281
100
AcDbEntity
8
0
100
AcDbSpline
70
4
71
3
72
8
73
4
74
0
42
0.000000001
43
0.0000000001
44
0.0000000001
40
0
40
0
40
0
40
0
40
1
40
1
40
1
40
1
41
1
41
1
41
1
41
1
10
102.83164963085257
20
-7.646936113751746
30
0
10
107.33710782685682
20
-12.415669583396935
30
0
10
107.33710782685682
20
-12.415669583396935
30
0
10
104.25831077256605
20
-16.972860732790643
30
0
0
SPLINE
5
282
100
AcDbEntity
8
0
100
AcDbSpline
70
4
71
3
72
8
73
4
74
0
42
0.000000001
43
0.0000000001
44
0.0000000001
40
0
40
0
40
0
40
0
40
1
40
1
40
1
40
1
41
1
41
1
41
1
41
1
10
104.25831077256605
20
-16.972860732790643
30
0
10
101.17951775549655
20
-21.530059956626889
30
0
10
101.17951775549655
20
-21.530059956626889
30
0
10
95.217066774356425
20
-20.827413891868602
30
0
0
SPLINE
5
283
100
AcDbEntity
8
0
100
AcDbSpline
70
4
71
3
72
8
73
4
74
0
42
0.000000001
43
0.0000000001
44
0.0000000001
40
0
40
0
40
0
40
0
40
1
40
1
40
1
40
1
41
1
41
1
41
1
41
1
10
91.354281721103234
20
-3.7382357429631585
30
0
10
86.177663749047184
20
-7.3564418942896452
30
0
10
86.177663749047184
20
-7.3564418942896452
30
0
10
81.754476048139793
20
-4.751109964764904
30
0
0
SPLINE
5
284
100
AcDbEntity
8
0
100
AcDbSpline
70
4
71
3
72
8
73
4
74
0
42
0.000000001
43
0.0000000001
44
0.0000000001
40
0
40
0
40
0
40
0
40
0.423817213005936
40
0.423817213005936
40
0.423817213005936
40
0.423817213005936
41
1
41
1
41
1
41
1
10
92.068793179182279
20
46.800604487342824
30
0
10
92.71623849052817
20
50.28700009632356
30
0
10
93.089285334445705
20
52.295801234869934
30
0
10
93.871694555245767
20
53.280029958096065
30
0
0
SPLINE
5
285
100
AcDbEntity
8
0
100
AcDbSpline
70
4
71
3
72
8
73
4
74
0
42
0.000000001
43
0.0000000001
44
0.0000000001
40
0
40
0
40
0
40
0
40
1
40
1
40
1
40
1
41
1
41
1
41
1
41
1
10
73.130559612898068
20
15.542709462725334
30
0
10
78.988817987430153
20
12.334458908322649
30
0
10
78.988817987430153
20
12.334458908322649
30
0
10
76.540961910871715
20
5.5400335161717713
30
0
0
SPLINE
5
286
100
AcDbEntity
8
0
100
AcDbSpline
70
4
71
3
72
8
73
4
74
0
42
0.000000001
43
0.0000000001
44
0.0000000001
40
0
40
0
40
0
40
0
40
1
40
1
40
1
40
1
41
1
41
1
41
1
41
1
10
88.689243326175259
20
47.387051249427792
30
0
10
87.161591094323086
20
39.160873779538477
30
0
10
87.161591094323086
20
39.160873779538477
30
0
10
87.118077923444986
20
39.11775625634511
30
0
0
SPLINE
5
287
100
AcDbEntity
8
0
100
AcDbSpline
70
4
71
3
72
8
73
4
74
0
42
0.000000001
43
0.0000000001
44
0.0000000001
40
0
40
0
40
0
40
0
40
1
40
1
40
1
40
1
41
1
41
1
41
1
41
1
10
76.540961910871715
20
5.5400335161717713
30
0
10
74.093105834313278
20
-1.2543918759790951
30
0
10
74.093105834313278
20
-1.2543918759790951
30
0
10
71.404607146569134
20
-1.962132913983659
30
0
0
SPLINE
5
288
100
AcDbEntity
8
0
100
AcDbSpline
70
4
71
3
72
8
73
4
74
0
42
0.000000001
43
0.0000000001
44
0.0000000001
40
0
40
0
40
0
40
0
40
1
40
1
40
1
40
1
41
1
41
1
41
1
41
1
10
87.118077923444986
20
39.11775625634511
30
0
10
87.074564752566886
20
39.074654882036846
30
0
10
87.074564752566886
20
39.074654882036846
30
0
10
81.698342523562943
20
39.625880925738009
30
0
0
SPLINE
5
289
100
AcDbEntity
8
0
100
AcDbSpline
70
4
71
3
72
8
73
4
74
0
42
0.000000001
43
0.0000000001
44
0.0000000001
40
0
40
0
40
0
40
0
40
1
40
1
40
1
40
1
41
1
41
1
41
1
41
1
10
79.779136349348278
20
4.6486554313532586
30
0
10
82.226992425906673
20
11.443080823504125
30
0
10
82.226992425906673
20
11.443080823504125
30
0
10
83.913573910383406
20
11.947765780372618
30
0
0
SPLINE
5
290
100
AcDbEntity
8
0
100
AcDbSpline
70
4
71
3
72
8
73
4
74
0
42
0.000000001
43
0.0000000001
44
0.0000000001
40
0
40
0
40
0
40
0
40
1
40
1
40
1
40
1
41
1
41
1
41
1
41
1
10
88.713959194807302
20
58.276309061927805
30
0
10
90.2168915208062
20
55.613244868202202
30
0
10
90.2168915208062
20
55.613244868202202
30
0
10
88.689243326175259
20
47.387051249427792
30
0
0
SPLINE
5
291
100
AcDbEntity
8
0
100
AcDbSpline
70
4
71
3
72
8
73
4
74
0
42
0.000000001
43
0.0000000001
44
0.0000000001
40
0
40
0
40
0
40
0
40
1
40
1
40
1
40
1
41
1
41
1
41
1
41
1
10
81.698342523562943
20
39.625880925738009
30
0
10
76.322120294559056
20
40.177106969439187
30
0
10
76.322120294559056
20
40.177106969439187
30
0
10
73.768351755130354
20
44.657808924598683
30
0
0
SPLINE
5
292
100
AcDbEntity
8
0
100
AcDbSpline
70
4
71
3
72
8
73
4
74
0
42
0.000000001
43
0.0000000001
44
0.0000000001
40
0
40
0
40
0
40
0
40
1
40
1
40
1
40
1
41
1
41
1
41
1
41
1
10
72.756002372094059
20
53.755444829546605
30
0
10
74.297429602929029
20
58.372378779335037
30
0
10
74.297429602929029
20
58.372378779335037
30
0
10
80.754230254479296
20
59.655876017494208
30
0
0
SPLINE
5
293
100
AcDbEntity
8
0
100
AcDbSpline
70
4
71
3
72
8
73
4
74
0
42
0.000000001
43
0.0000000001
44
0.0000000001
40
0
40
0
40
0
40
0
40
0.4942971763127807
40
0.4942971763127807
40
0.4942971763127807
40
0.4942971763127807
41
1
41
1
41
1
41
1
10
48.055878903059217
20
-6.9419080884424833
30
0
10
46.44743971155102
20
-4.1591457266101992
30
0
10
45.63404747067618
20
-2.751894942581099
30
0
10
45.49031580201094
20
-1.6028312626470669
30
0
0
ARC
5
294
100
AcDbEntity
8
0
100
AcDbCircle
10
2.9499999999999948
20
-3.600000000000001
30
0
40
7.2500000000000044
210
0
220
0
230
1
100
AcDbArc
50
-55.959455013240557
51
52.03571892070417
0
ARC
5
295
100
AcDbEntity
8
0
100
AcDbCircle
10
38.119394119644852
20
25.409564291106133
30
0
40
28
210
0
220
-0
230
1
100
AcDbArc
50
54.698337825533322
51
65.103454160406883
0
SPLINE
5
296
100
AcDbEntity
8
0
100
AcDbSpline
70
4
71
3
72
8
73
4
74
0
42
0.000000001
43
0.0000000001
44
0.0000000001
40
0
40
0
40
0
40
0
40
0.72064148534232353
40
0.72064148534232353
40
0.72064148534232353
40
0.72064148534232353
41
1
41
1
41
1
41
1
10
6.5202439721306646
20
24.836925745887768
30
0
10
8.1364794617826668
20
30.814440286428631
30
0
10
8.5879886075088709
20
32.484309869818794
30
0
10
11.090037005559843
20
32.718042518429691
30
0
0
ARC
5
297
100
AcDbEntity
8
0
100
AcDbCircle
10
38.119394119644852
20
25.409564291106133
30
0
40
28.000000000000004
210
0
220
-0
230
1
100
AcDbArc
50
7.2738002292377484
51
44.979234032221278
0
SPLINE
5
298
100
AcDbEntity
8
0
100
AcDbSpline
70
4
71
3
72
8
73
4
74
0
42
0.000000001
43
0.0000000001
44
0.0000000001
40
0
40
0
40
0
40
0
40
0.12561498019040893
40
0.12561498019040893
40
0.12561498019040893
40
0.12561498019040893
41
1
41
1
41
1
41
1
10
8.1062259769320875
20
-10.652800765749614
30
0
10
7.6887074299376499
20
-10.262311525046186
30
0
10
7.3236354669530499
20
-9.9208735825782774
30
0
10
7.0084008419252095
20
-9.6076520044240858
30
0
0
SPLINE
5
299
100
AcDbEntity
8
0
100
AcDbSpline
70
4
71
3
72
8
73
4
74
0
42
0.000000001
43
0.0000000001
44
0.0000000001
40
0
40
0
40
0
40
0
40
0.12979005296751706
40
0.12979005296751706
40
0.12979005296751706
40
0.12979005296751706
41
1
41
1
41
1
41
1
10
24.941422535566563
20
52.681673162066147
30
0
10
25.358469198032807
20
51.918515664793787
30
0
10
25.721387352087646
20
51.254408419514981
30
0
10
26.030285197516356
20
50.665324930392224
30
0
0
ARC
5
300
100
AcDbEntity
8
0
100
AcDbCircle
10
38.119394119644852
20
25.409564291106133
30
0
40
27.999999999999986
210
0
220
0
230
1
100
AcDbArc
50
115.57891800484775
51
154.49104997274381
0
SPLINE
5
301
100
AcDbEntity
8
0
100
AcDbSpline
70
4
71
3
72
8
73
4
74
0
42
0.000000001
43
0.0000000001
44
0.0000000001
40
0.52880498235620399
40
0.52880498235620399
40
0.52880498235620399
40
0.52880498235620399
40
1
40
1
40
1
40
1
41
1
41
1
41
1
41
1
10
21.743129709424274
20
57.789597498314237
30
0
10
22.62670974920805
20
56.917364957341654
30
0
10
23.427355788615586
20
55.452263161548899
30
0
10
24.941422535566563
20
52.681673162066147
30
0
0
SPLINE
5
302
100
AcDbEntity
8
0
100
AcDbSpline
70
4
71
3
72
8
73
4
74
0
42
0.000000001
43
0.0000000001
44
0.0000000001
40
0
40
0
40
0
40
0
40
1
40
1
40
1
40
1
41
1
41
1
41
1
41
1
10
69.001895278283001
20
55.140453959388722
30
0
10
67.46046804744806
20
50.523503860715238
30
0
10
67.46046804744806
20
50.523503860715238
30
0
10
59.023612222659651
20
49.068812291704816
30
0
0
SPLINE
5
303
100
AcDbEntity
8
0
100
AcDbSpline
70
4
71
3
72
8
73
4
74
0
42
0.000000001
43
0.0000000001
44
0.0000000001
40
0
40
0
40
0
40
0
40
0.36006005191182894
40
0.36006005191182894
40
0.36006005191182894
40
0.36006005191182894
41
1
41
1
41
1
41
1
10
69.039279947269009
20
32.68426652042389
30
0
10
67.651484926103763
20
30.791420994950887
30
0
10
66.763379452302217
20
29.580113527640769
30
0
10
65.894062495857753
20
28.954673117559601
30
0
0
ARC
5
304
100
AcDbEntity
8
0
100
AcDbCircle
10
16.950000134110446
20
54.400000789761549
30
0
40
5.0000000000000018
210
0
220
0
230
1
100
AcDbArc
50
-114.08264714170423
51
9.5665925552635134
0
SPLINE
5
305
100
AcDbEntity
8
0
100
AcDbSpline
70
4
71
3
72
8
73
4
74
0
42
0.000000001
43
0.0000000001
44
0.0000000001
40
0.040368555846372403
40
0.040368555846372403
40
0.040368555846372403
40
0.040368555846372403
40
1
40
1
40
1
40
1
41
1
41
1
41
1
41
1
10
13.589304817973105
20
11.908648809109749
30
0
10
8.7257032874192841
20
11.808167652953914
30
0
10
8.6394731277225585
20
11.899938355964924
30
0
10
6.5034006849806012
20
14.173259783668538
30
0
0
ARC
5
306
100
AcDbEntity
8
0
100
AcDbCircle
10
11.672561888131517
20
42.567590874728495
30
0
40
4.99999999999996
210
0
220
0
230
1
100
AcDbArc
50
250.17691103495918
51
272.54842062810297
0
SPLINE
5
307
100
AcDbEntity
8
0
100
AcDbSpline
70
4
71
3
72
8
73
4
74
0
42
0.000000001
43
0.0000000001
44
0.0000000001
40
0
40
0
40
0
40
0
40
1
40
1
40
1
40
1
41
1
41
1
41
1
41
1
10
59.349222192752421
20
45.447957723223368
30
0
10
67.786069943098298
20
46.902665441118856
30
0
10
67.786069943098298
20
46.902665441118856
30
0
10
70.339846556969547
20
42.421979634844469
30
0
0
SPLINE
5
308
100
AcDbEntity
8
0
100
AcDbSpline
70
4
71
3
72
8
73
4
74
0
42
0.000000001
43
0.0000000001
44
0.0000000001
40
0.16293547808131545
40
0.16293547808131545
40
0.16293547808131545
40
0.16293547808131545
40
0.24063151749760231
40
0.24063151749760231
40
0.24063151749760231
40
0.24063151749760231
41
1
41
1
41
1
41
1
10
12.84888943923634
20
37.467822589776453
30
0
10
12.501036939668527
20
37.504316182409568
30
0
10
12.184196159889886
20
37.538923636319112
30
0
10
11.894880221768684
20
37.572535864167712
30
0
0
SPLINE
5
309
100
AcDbEntity
8
0
100
AcDbSpline
70
4
71
3
72
8
73
4
74
0
42
0.000000001
43
0.0000000001
44
0.0000000001
40
0
40
0
40
0
40
0
40
0.23895086426072129
40
0.23895086426072129
40
0.23895086426072129
40
0.23895086426072129
41
1
41
1
41
1
41
1
10
59.023612222659651
20
49.068812291704816
30
0
10
57.007620161078393
20
48.721208625266961
30
0
10
55.473351144954719
20
48.456665155344609
30
0
10
54.300070537349463
20
48.260947414793364
30
0
0
SPLINE
5
310
100
AcDbEntity
8
0
100
AcDbSpline
70
4
71
3
72
8
73
4
74
0
42
0.000000001
43
0.0000000001
44
0.0000000001
40
0
40
0
40
0
40
0
40
1
40
1
40
1
40
1
41
1
41
1
41
1
41
1
10
70.339846556969547
20
42.421979634844469
30
0
10
72.893623170840826
20
37.941293828570053
30
0
10
72.893623170840826
20
37.941293828570053
30
0
10
69.039279947269009
20
32.68426652042389
30
0
0
SPLINE
5
311
100
AcDbEntity
8
0
100
AcDbSpline
70
4
71
3
72
8
73
4
74
0
42
0.000000001
43
0.0000000001
44
0.0000000001
40
0.46762606622688102
40
0.46762606622688102
40
0.46762606622688102
40
0.46762606622688102
40
1
40
1
40
1
40
1
41
1
41
1
41
1
41
1
10
9.9769766510561961
20
37.863869932345551
30
0
10
8.8926677076463463
20
38.106440881845735
30
0
10
8.6223631003615964
20
38.424490525437676
30
0
10
8.0443273003777591
20
39.104627212766026
30
0
0
SPLINE
5
312
100
AcDbEntity
8
0
100
AcDbSpline
70
4
71
3
72
8
73
4
74
0
42
0.000000001
43
0.0000000001
44
0.0000000001
40
0.94024704522451841
40
0.94024704522451841
40
0.94024704522451841
40
0.94024704522451841
40
1
40
1
40
1
40
1
41
1
41
1
41
1
41
1
10
57.925558529520778
20
45.201377026905831
30
0
10
58.371092081464141
20
45.279305465401279
30
0
10
58.845095610678371
20
45.3610346387444
30
0
10
59.349222192752421
20
45.447957723223368
30
0
0
SPLINE
5
313
100
AcDbEntity
8
0
100
AcDbSpline
70
4
71
3
72
8
73
4
74
0
42
0.000000001
43
0.0000000001
44
0.0000000001
40
0
40
0
40
0
40
0
40
1
40
1
40
1
40
1
41
1
41
1
41
1
41
1
10
6.5034006849806012
20
14.173259783668538
30
0
10
4.2774706617872447
20
16.542204333229083
30
0
10
4.2774706617872447
20
16.542204333229083
30
0
10
6.5202439721306646
20
24.836925745887768
30
0
0
ARC
5
314
100
AcDbEntity
8
0
100
AcDbCircle
10
38.119394119644852
20
25.409564291106133
30
0
40
28.000000000000004
210
0
220
0
230
1
100
AcDbArc
50
164.8695794021024
51
208.82758746147147
0
ARC
5
315
100
AcDbEntity
8
0
100
AcDbCircle
10
4.1899812863372921
20
46.979089703115733
30
0
40
7.2500000000000124
210
0
220
0
230
1
100
AcDbArc
50
-63.858384757065515
51
34.666696591178784
0
SPLINE
5
316
100
AcDbEntity
8
0
100
AcDbSpline
70
4
71
3
72
8
73
4
74
0
42
0.000000001
43
0.0000000001
44
0.0000000001
40
0.023821340675868941
40
0.023821340675868941
40
0.023821340675868941
40
0.023821340675868941
40
0.05648235171687839
40
0.05648235171687839
40
0.05648235171687839
40
0.05648235171687839
41
1
41
1
41
1
41
1
10
10.152923573333556
20
51.102900959945003
30
0
10
10.245938622015153
20
51.41478713034477
30
0
10
10.335956078455247
20
51.71621394980388
30
0
10
10.42323323559444
20
52.007498111529529
30
0
0
SPLINE
5
317
100
AcDbEntity
8
0
100
AcDbSpline
70
4
71
3
72
8
73
4
74
0
42
0.000000001
43
0.0000000001
44
0.0000000001
40
0
40
0
40
0
40
0
40
0.35182510133493305
40
0.35182510133493305
40
0.35182510133493305
40
0.35182510133493305
41
1
41
1
41
1
41
1
10
8.0443273003777591
20
39.104627212766026
30
0
10
7.662326058387567
20
39.554102936051294
30
0
10
7.4147224420706435
20
39.845441817444154
30
0
10
7.3842682972134535
20
40.470708146065775
30
0
0
CIRCLE
5
318
100
AcDbEntity
8
0
100
AcDbCircle
10
38.119394119644852
20
25.409564291106133
30
0
40
21.999999999999996
210
0
220
0
230
1
0
SPLINE
5
319
100
AcDbEntity
8
0
100
AcDbSpline
70
4
71
5
72
15
73
9
74
0
42
0.000000001
43
0.0000000001
44
0.0000000001
40
-0.66930886658085453
40
-0.66930886658085453
40
-0.66930886658085453
40
-0.66930886658085453
40
-0.66930886658085453
40
-0.66930886658085453
40
-0.60000000000000009
40
-0.40000000000000002
40
-0.20000000000000001
40
0
40
0
40
0
40
0
40
0
40
0
41
1
41
1
41
1
41
1
41
1
41
1
41
1
41
1
41
1
10
10.423233235594436
20
52.007498111529529
30
0
10
10.519463337462685
20
51.976724596801702
30
0
10
10.891989301139711
20
51.84970541460391
30
0
10
11.532339752644425
20
51.581463399982411
30
0
10
12.429249771805287
20
51.116830532355394
30
0
10
13.315761392375428
20
50.617160405080988
30
0
10
14.111382512754428
20
50.204688118829459
30
0
10
14.643354150173661
20
49.95427075147532
30
0
10
14.909730251207256
20
49.835211768906561
30
0
0
SPLINE
5
320
100
AcDbEntity
8
0
100
AcDbSpline
70
4
71
5
72
13
73
7
74
0
42
0.000000001
43
0.0000000001
44
0.0000000001
40
0
40
0
40
0
40
0
40
0
40
0
40
0.20000000000000001
40
0.22165738897243825
40
0.22165738897243825
40
0.22165738897243825
40
0.22165738897243825
40
0.22165738897243825
40
0.22165738897243825
41
1
41
1
41
1
41
1
41
1
41
1
41
1
10
21.880465670598291
20
55.230969858683849
30
0
10
21.803878721012545
20
55.68539028129598
30
0
10
21.745210571216624
20
56.193646198256211
30
0
10
21.715572237600227
20
56.707019277063004
30
0
10
21.714027004723263
20
57.223430492696146
30
0
10
21.740297550189482
20
57.739211834355508
30
0
10
21.743129709424274
20
57.789597498314258
30
0
0
SPLINE
5
321
100
AcDbEntity
8
0
100
AcDbSpline
70
4
71
3
72
8
73
4
74
0
42
0.000000001
43
0.0000000001
44
0.0000000001
40
0
40
0
40
0
40
0
40
1
40
1
40
1
40
1
41
1
41
1
41
1
41
1
10
66.660169674543596
20
63.846188720944724
30
0
10
70.543330583560532
20
59.757404058062242
30
0
10
70.543330583560532
20
59.757404058062242
30
0
10
69.001895278283001
20
55.140453959388722
30
0
0
SPLINE
5
322
100
AcDbEntity
8
0
100
AcDbSpline
70
4
71
3
72
8
73
4
74
0
42
0.000000001
43
0.0000000001
44
0.0000000001
40
0.062609223134056785
40
0.062609223134056785
40
0.062609223134056785
40
0.062609223134056785
40
1
40
1
40
1
40
1
41
1
41
1
41
1
41
1
10
23.803057825074823
20
1.3462620426453649
30
0
10
26.60208327468159
20
-2.9748658011463185
30
0
10
26.493496199754336
20
-3.2069161002007429
30
0
10
24.759133920657682
20
-6.9132438174057036
30
0
0
CIRCLE
5
323
100
AcDbEntity
8
0
100
AcDbCircle
10
2.8925499690046874
20
-3.5519008194353683
30
0
40
5.25
210
0
220
0
230
1
0
CIRCLE
5
324
100
AcDbEntity
8
0
100
AcDbCircle
10
4.1554385032137358
20
46.953194528139541
30
0
40
5.25
210
0
220
0
230
1
0
CIRCLE
5
325
100
AcDbEntity
8
0
100
AcDbCircle
10
67.518066651652717
20
-20.656102878236414
30
0
40
5.25
210
0
220
0
230
1
0
CIRCLE
5
326
100
AcDbEntity
8
0
100
AcDbCircle
10
98.480923332290061
20
58.786130000468326
30
0
40
5.25
210
0
220
0
230
1
0
CIRCLE
5
327
100
AcDbEntity
8
0
100
AcDbCircle
10
112.86219171124826
20
-33.582938361140663
30
0
40
5.25
210
0
220
0
230
1
0
ENDSEC
0
SECTION
2
OBJECTS
0
DICTIONARY
5
C
100
AcDbDictionary
3
ACAD_GROUP
350
D
3
ACAD_MLINESTYLE
350
17
0
DICTIONARY
5
D
100
AcDbDictionary
0
DICTIONARY
5
1A
330
C
100
AcDbDictionary
0
DICTIONARY
5
17
100
AcDbDictionary
0
ENDSEC
0
EOF
