0
SECTION
2
HEADER
9
$INSUNITS
70
4
9
$ACADVER
1
AC1014
9
$HANDSEED
5
FFFF
0
ENDSEC
0
SECTION
2
TABLES
0
TABLE
2
VPORT
5
8
100
AcDbSymbolTable
0
ENDTAB
0
TABLE
2
LTYPE
5
5
100
AcDbSymbolTable
0
LTYPE
5
14
100
AcDbSymbolTableRecord
100
AcDbLinetypeTableRecord
2
BYBLOCK
70
0
0
LTYPE
5
15
100
AcDbSymbolTableRecord
100
AcDbLinetypeTableRecord
2
BYLAYER
70
0
0
ENDTAB
0
TABLE
2
LAYER
5
2
100
AcDbSymbolTable
70
2
0
LAYER
5
50
100
AcDbSymbolTableRecord
100
AcDbLayerTableRecord
2
0
70
0
6
CONTINUOUS
0
ENDTAB
0
TABLE
2
STYLE
5
3
100
AcDbSymbolTable
70
1
0
STYLE
5
11
100
AcDbSymbolTableRecord
100
AcDbTextStyleTableRecord
2
STANDARD
70
0
0
ENDTAB
0
TABLE
2
VIEW
5
6
100
AcDbSymbolTable
70
0
0
ENDTAB
0
TABLE
2
UCS
5
7
100
AcDbSymbolTable
70
0
0
ENDTAB
0
TABLE
2
APPID
5
9
100
AcDbSymbolTable
70
2
0
APPID
5
12
100
AcDbSymbolTableRecord
100
AcDbRegAppTableRecord
2
ACAD
70
0
0
ENDTAB
0
TABLE
2
DIMSTYLE
5
A
100
AcDbSymbolTable
70
1
0
ENDTAB
0
TABLE
2
BLOCK_RECORD
5
1
100
AcDbSymbolTable
70
1
0
BLOCK_RECORD
5
1F
100
AcDbSymbolTableRecord
100
AcDbBlockTableRecord
2
*MODEL_SPACE
0
BLOCK_RECORD
5
1B
100
AcDbSymbolTableRecord
100
AcDbBlockTableRecord
2
*PAPER_SPACE
0
ENDTAB
0
ENDSEC
0
SECTION
2
BLOCKS
0
BLOCK
5
20
100
AcDbEntity
100
AcDbBlockBegin
2
*MODEL_SPACE
0
ENDBLK
5
21
100
AcDbEntity
100
AcDbBlockEnd
0
BLOCK
5
1C
100
AcDbEntity
100
AcDbBlockBegin
2
*PAPER_SPACE
0
ENDBLK
5
1D
100
AcDbEntity
100
AcDbBlockEnd
0
ENDSEC
0
SECTION
2
ENTITIES
0
LWPOLYLINE
5
100
100
AcDbEntity
8
0
100
AcDbPolyline
90
7
70
1
43
0.0
10
72.294127764370899
20
0
10
59.108173770916309
20
0
10
59.108173770916309
20
-8
10
90.0723350274219
20
-8
10
90.0723350274219
20
4.0000000000000018
10
73.918689309907393
20
4
10
73.918689309907407
20
-8.6576073294109761e-15
0
LINE
5
101
100
AcDbEntity
8
0
100
AcDbLine
10
90.0723350274219
20
-8
30
0
11
59.108173770916309
21
-8
31
0
0
LINE
5
102
100
AcDbEntity
8
0
100
AcDbLine
10
73.13568400286016
20
-8.0000000000000178
30
0
11
73.13568400286016
21
-3.0000000000000182
31
0
0
LINE
5
103
100
AcDbEntity
8
0
100
AcDbLine
10
73.13568400286016
20
-3.0000000000000182
30
0
11
73.13568400286016
21
-1.2500000000000178
31
0
0
LWPOLYLINE
5
104
100
AcDbEntity
8
0
100
AcDbPolyline
90
6
70
1
43
0.0
10
76.235684002860154
20
-3.0583333333333429
10
70.035684002860151
20
-3.0583333333333433
10
76.235684002860154
20
0.55833333333331114
10
76.235684002860154
20
-3.0583333333333429
42
0.99999999999999989
10
76.235684002860154
20
0.55833333333331114
10
70.035684002860151
20
0.55833333333331125
0
LWPOLYLINE
5
105
100
AcDbEntity
8
0
100
AcDbPolyline
90
2
70
1
43
0.0
10
70.035684002860151
20
-3.0583333333333433
10
70.035684002860151
20
0.55833333333331092
42
0.99999999999999989
0
LINE
5
106
100
AcDbEntity
8
0
100
AcDbLine
10
73.13568400286016
20
-1.2500000000000178
30
0
11
89.035684002860165
21
-1.2500000000000189
31
0
0
LINE
5
107
100
AcDbEntity
8
0
100
AcDbLine
10
89.035684002860165
20
-1.2500000000000189
30
0
11
89.035684002860165
21
-1.600000000000019
31
0
0
CIRCLE
5
108
100
AcDbEntity
8
0
100
AcDbCircle
10
89.035684002860165
20
-1.600000000000019
30
0
40
2.6000000000000001
210
0
220
0
230
1
0
LWPOLYLINE
5
109
100
AcDbEntity
8
0
100
AcDbPolyline
90
11
70
1
43
0.0
10
92.535684002860165
20
-5.6000000000000094
10
85.535684002860194
20
-5.6000000000000103
10
92.535684002860165
20
2.3999999999999906
10
85.535684002860179
20
2.3999999999999915
10
83.135684002860145
20
2.9999999999999858
10
83.13568400286016
20
-5.500000000000016
10
63.13568400286016
20
2.9999999999999853
10
63.135684002860152
20
-5.500000000000016
10
83.13568400286016
20
-5.5000000000000151
10
85.535684002860194
20
-5.6000000000000103
10
85.535684002860179
20
2.399999999999991
0
LINE
5
110
100
AcDbEntity
8
0
100
AcDbLine
10
92.535684002860165
20
2.3999999999999906
30
0
11
92.535684002860165
21
-5.6000000000000094
31
0
0
LINE
5
111
100
AcDbEntity
8
0
100
AcDbLine
10
83.135684002860145
20
2.9999999999999853
30
0
11
63.13568400286016
21
2.9999999999999853
31
0
0
LINE
5
112
100
AcDbEntity
8
0
100
AcDbLine
10
83.135684002860145
20
2.9999999999999853
30
0
11
63.135684002860152
21
-5.500000000000016
31
0
0
LINE
5
113
100
AcDbEntity
8
0
100
AcDbLine
10
89.035684002860165
20
-1.600000000000019
30
0
11
87.535684002860151
21
-1.600000000000019
31
0
0
LWPOLYLINE
5
114
100
AcDbEntity
8
0
100
AcDbPolyline
90
4
70
1
43
0.0
10
87.535684002860151
20
-1.600000000000019
10
94.535684002860151
20
-1.600000000000019
10
94.535684002860151
20
-6.1000000000000192
10
87.535684002860151
20
-6.1000000000000192
0
ENDSEC
0
SECTION
2
OBJECTS
0
DICTIONARY
5
C
100
AcDbDictionary
3
ACAD_GROUP
350
D
3
ACAD_MLINESTYLE
350
17
0
DICTIONARY
5
D
100
AcDbDictionary
0
DICTIONARY
5
1A
330
C
100
AcDbDictionary
0
DICTIONARY
5
17
100
AcDbDictionary
0
ENDSEC
0
EOF
